<?xml version="1.0" encoding="UTF-8"?><svg xmlns="http://www.w3.org/2000/svg" viewBox="0 0 1652.24 672.41"><defs><style>.d{letter-spacing:.05em;}.e{letter-spacing:.04em;}.f{letter-spacing:.29em;}.g{letter-spacing:0em;}.h{letter-spacing:.02em;}.i{letter-spacing:0em;}.j{letter-spacing:.42em;}.k{letter-spacing:.17em;}.l{letter-spacing:.16em;}.m{letter-spacing:0em;}.n{letter-spacing:.02em;}.o{letter-spacing:.17em;}.p{letter-spacing:.03em;}.q{letter-spacing:0em;}.r{letter-spacing:.42em;}.s{letter-spacing:-.12em;}.t{letter-spacing:.02em;}.u{letter-spacing:0em;}.v{letter-spacing:.28em;}.w{letter-spacing:.06em;}.x{letter-spacing:.05em;}.y{letter-spacing:.17em;}.a`{letter-spacing:.02em;}.aa{letter-spacing:.02em;}.ab{letter-spacing:-.02em;}.ac{letter-spacing:0em;}.ad{letter-spacing:.3em;}.ae{letter-spacing:.04em;}.af{letter-spacing:.13em;}.ag{letter-spacing:.31em;}.ah{letter-spacing:.16em;}.ai{letter-spacing:.16em;}.aj{letter-spacing:.06em;}.ak{letter-spacing:.22em;}.al{letter-spacing:.05em;}.am{letter-spacing:.15em;}.an{letter-spacing:.28em;}.ao{letter-spacing:.02em;}.ap{letter-spacing:.28em;}.aq{letter-spacing:.02em;}.ar{letter-spacing:.21em;}.as{letter-spacing:.14em;}.at{letter-spacing:.14em;}.au{letter-spacing:.28em;}.av{letter-spacing:.02em;}.aw{letter-spacing:.02em;}.ax{letter-spacing:.21em;}.ay{letter-spacing:.02em;}.b`{letter-spacing:0em;}.ba{letter-spacing:.02em;}.bb{letter-spacing:.03em;}.bc{letter-spacing:.02em;}.bd{fill:none;stroke:#fff;stroke-miterlimit:10;stroke-width:2px;}.be{letter-spacing:.16em;}.bf{letter-spacing:.04em;}.bg{letter-spacing:.28em;}.bh{letter-spacing:.02em;}.bi{letter-spacing:-.02em;}.bj{letter-spacing:-.02em;}.bk{letter-spacing:.04em;}.bl{letter-spacing:.14em;}.bm{letter-spacing:.15em;}.bn{letter-spacing:-.02em;}.bo{font-size:88px;}.bo,.bp{fill:#e7c57e;font-family:Mulish-ExtraBold, Mulish;}.bq{letter-spacing:0em;}.br{letter-spacing:-.02em;}.bs{letter-spacing:.07em;}.bt{letter-spacing:.22em;}.bu{letter-spacing:.03em;}.bv{letter-spacing:.07em;}.bw{letter-spacing:.02em;}.bx{letter-spacing:-.08em;}.by{letter-spacing:.02em;}.c`{letter-spacing:.13em;}.ca{letter-spacing:.3em;}.cb{letter-spacing:.12em;}.cc{letter-spacing:.01em;}.cd{letter-spacing:.13em;}.ce{letter-spacing:.03em;}.cf{letter-spacing:.05em;}.cg{fill:#fff;font-family:Mulish-Regular, Mulish Regular;font-size:16px;}.ch{letter-spacing:.03em;}.ci{letter-spacing:.04em;}.cj{letter-spacing:0em;}.ck{letter-spacing:.04em;}.bp{font-size:19px;}.cl{letter-spacing:.28em;}.cm{letter-spacing:.01em;}.cn{letter-spacing:.05em;}.co{letter-spacing:-.04em;}.cp{letter-spacing:.22em;}.cq{letter-spacing:.12em;}.cr{letter-spacing:-.02em;}.cs{letter-spacing:0em;}.ct{letter-spacing:.29em;}.cu{letter-spacing:.04em;}.cv{letter-spacing:.13em;}.cw{letter-spacing:.42em;}.cx{letter-spacing:.16em;}.cy{letter-spacing:.17em;}.d`{letter-spacing:0em;}</style></defs><g id="a"/><g id="b"><g id="c"><g><text class="bo" transform="translate(1262.99 183.26)"><tspan x="0" y="0">06</tspan></text><text class="bo" transform="translate(1014.26 349.76)"><tspan x="0" y="0">05</tspan></text><g><text class="bp" transform="translate(2.87 161.86)"><tspan class="bj" x="0" y="0">K</tspan><tspan class="i" x="12.69" y="0">Ý HỢP ĐỒNG</tspan><tspan x="16.43" y="23">&amp; </tspan><tspan class="bj" x="35.05" y="23">Đ</tspan><tspan class="bx" x="49.37" y="23">Ặ</tspan><tspan x="62.29" y="23">T </tspan><tspan class="br" x="79.58" y="23">C</tspan><tspan x="92.14" y="23">ỌC</tspan></text><text class="cg" transform="translate(0 52.94)"><tspan class="ce" x="0" y="0">N</tspan><tspan class="bh" x="11.09" y="0">hà</tspan><tspan class="f" x="28.48" y="0"> </tspan><tspan class="av" x="36.57" y="0">đầu</tspan><tspan class="ct" x="63.32" y="0"> </tspan><tspan class="bh" x="71.4" y="0">tư</tspan><tspan class="f" x="86.31" y="0"> </tspan><tspan class="cu" x="94.4" y="0">k</tspan><tspan class="bh" x="102.57" y="0">í</tspan><tspan class="ct" x="106.72" y="0"> </tspan><tspan class="bh" x="114.8" y="0">hợp </tspan><tspan class="bh" x="0" y="25">đồng</tspan><tspan class="ba" x="37.23" y="25"> </tspan><tspan class="aa" x="40.86" y="25">v</tspan><tspan class="ch" x="48.9" y="25">à</tspan><tspan class="ba" x="57.01" y="25"> </tspan><tspan class="bh" x="60.64" y="25">đ</tspan><tspan class="aa" x="70.06" y="25">ặ</tspan><tspan class="ch" x="78.11" y="25">t</tspan><tspan class="ba" x="83.81" y="25"> </tspan><tspan class="by" x="87.44" y="25">c</tspan><tspan class="bh" x="94.91" y="25">ọc</tspan><tspan class="ba" x="111.67" y="25"> </tspan><tspan class="bh" x="115.3" y="25">tiền </tspan><tspan class="bh"><tspan x="0" y="50">làm thẻ</tspan></tspan></text><text class="bp" transform="translate(518.84 160.26)"><tspan x="0" y="0">THU THẬP</tspan><tspan x="-19.86" y="23">&amp; </tspan><tspan class="g" x="-1.24" y="23">X</tspan><tspan x="11.59" y="23">Ử </tspan><tspan class="s" x="31.12" y="23">L</tspan><tspan x="39.67" y="23">Ý HỒ SƠ</tspan></text><text class="bp" transform="translate(270.1 292.75)"><tspan x="0" y="0">THU THẬP</tspan><tspan x="-19.86" y="23">&amp; </tspan><tspan class="g" x="-1.24" y="23">X</tspan><tspan x="11.59" y="23">Ử </tspan><tspan class="s" x="31.12" y="23">L</tspan><tspan x="39.67" y="23">Ý HỒ SƠ</tspan></text><text class="cg" transform="translate(218.43 353.95)"><tspan class="ck" x="0" y="0">N</tspan><tspan class="bh" x="11.09" y="0">hà</tspan><tspan class="as" x="28.48" y="0"> </tspan><tspan class="bh" x="34.17" y="0">đầu</tspan><tspan class="bl" x="60.92" y="0"> </tspan><tspan class="bh" x="66.61" y="0">tư</tspan><tspan class="at" x="81.52" y="0"> </tspan><tspan class="av" x="87.21" y="0">lăn</tspan><tspan class="at" x="108.77" y="0"> </tspan><tspan class="bh" x="114.46" y="0">t</tspan><tspan class="aw" x="120.16" y="0">a</tspan><tspan class="bh" x="128.14" y="0">y</tspan><tspan class="bl" x="136.08" y="0"> </tspan><tspan class="bh" x="141.76" y="0">tại</tspan><tspan class="as" x="159.72" y="0"> </tspan><tspan class="bh" x="165.4" y="0">Đại</tspan><tspan class="bl" x="188.79" y="0"> </tspan><tspan class="bh" x="194.48" y="0">sứ </tspan><tspan class="bh" x="0" y="25">quán/</tspan><tspan class="cb" x="41.9" y="25"> </tspan><tspan class="bh" x="47.2" y="25">Lãnh</tspan><tspan class="cb" x="81.82" y="25"> </tspan><tspan class="bh" x="87.12" y="25">sự</tspan><tspan class="cb" x="103.07" y="25"> </tspan><tspan class="bh" x="108.37" y="25">quán</tspan><tspan class="cq" x="144.39" y="25"> </tspan><tspan class="ch" x="149.68" y="25">Hunga</tspan><tspan class="al" x="196.47" y="25">r</tspan><tspan class="bh" x="202.5" y="25">y </tspan><tspan class="bh" x="0" y="50">tại</tspan><tspan class="bs" x="17.95" y="50"> </tspan><tspan class="bh" x="22.53" y="50">Hà</tspan><tspan class="bs" x="41.48" y="50"> </tspan><tspan class="bh" x="46.06" y="50">Nội</tspan><tspan class="bs" x="70.31" y="50"> </tspan><tspan class="bh" x="74.9" y="50">hoặc</tspan><tspan class="bs" x="109.04" y="50"> </tspan><tspan class="p" x="113.62" y="50">S</tspan><tspan class="bh" x="122" y="50">ở</tspan><tspan class="bs" x="131.25" y="50"> </tspan><tspan class="bh" x="135.83" y="50">ngoại</tspan><tspan class="bs" x="175.9" y="50"> </tspan><tspan class="bf" x="180.48" y="50">k</tspan><tspan class="bh" x="188.65" y="50">iều </tspan><tspan class="bh" x="0" y="75">Budapes</tspan><tspan class="t" x="60.48" y="75">t</tspan><tspan class="bh" x="66.13" y="75">,</tspan><tspan class="bm" x="69.84" y="75"> </tspan><tspan class="ch" x="75.67" y="75">thanh</tspan><tspan class="am" x="117.31" y="75"> </tspan><tspan class="by" x="123.14" y="75">t</tspan><tspan class="bh" x="128.74" y="75">oán</tspan><tspan class="bm" x="155.32" y="75"> </tspan><tspan class="ch" x="161.15" y="75">số</tspan><tspan class="bm" x="177.07" y="75"> </tspan><tspan class="ch" x="182.9" y="75">tiền </tspan><tspan class="bh" x="0" y="100">làm thẻ </tspan><tspan class="by" x="57.01" y="100">c</tspan><tspan class="bh" x="64.48" y="100">òn lại</tspan></text><text class="bp" transform="translate(767.21 292.9)"><tspan x="0" y="0">NHẬN THẺ</tspan><tspan x="14.73" y="23">CƯ TRÚ</tspan></text><text class="cg" transform="translate(704.12 353.95)"><tspan class="ce" x="0" y="0">N</tspan><tspan class="bh" x="11.09" y="0">hà</tspan><tspan class="cy" x="28.48" y="0"> </tspan><tspan class="av" x="34.57" y="0">đầu</tspan><tspan class="y" x="61.32" y="0"> </tspan><tspan class="bh" x="67.4" y="0">tư</tspan><tspan class="k" x="82.31" y="0"> </tspan><tspan class="bh" x="88.4" y="0">sẽ</tspan><tspan class="o" x="103.55" y="0"> </tspan><tspan class="av" x="109.64" y="0">được</tspan><tspan class="o" x="145.09" y="0"> </tspan><tspan class="bh" x="151.18" y="0">cấp</tspan><tspan class="o" x="176.36" y="0"> </tspan><tspan class="bh" x="182.44" y="0">thẻ</tspan><tspan class="y" x="205.83" y="0"> </tspan><tspan class="ch" x="211.92" y="0">cư </tspan><tspan class="bh" x="0" y="25">trú</tspan><tspan class="ay" x="20.54" y="25"> </tspan><tspan class="bh" x="24.2" y="25">tạm</tspan><tspan class="bc" x="51.75" y="25"> </tspan><tspan class="bh" x="55.41" y="25">thời</tspan><tspan class="ay" x="83.78" y="25"> </tspan><tspan class="bh" x="87.44" y="25">ng</tspan><tspan class="aw" x="106.06" y="25">a</tspan><tspan class="ch" x="114.04" y="25">y</tspan><tspan class="ay" x="121.98" y="25"> </tspan><tspan class="bh" x="125.64" y="25">sau</tspan><tspan class="ay" x="149.7" y="25"> </tspan><tspan class="ae" x="153.36" y="25">k</tspan><tspan class="bh" x="161.53" y="25">hi</tspan><tspan class="bc" x="174.96" y="25"> </tspan><tspan class="bh" x="178.61" y="25">nộp</tspan><tspan class="bc" x="206.58" y="25"> </tspan><tspan class="bh" x="210.24" y="25">hồ </tspan><tspan class="bh" x="0" y="50">sơ</tspan><tspan class="ca" x="15.98" y="50"> </tspan><tspan class="ch" x="24.17" y="50">tại</tspan><tspan class="ca" x="42.12" y="50"> </tspan><tspan class="p" x="50.31" y="50">S</tspan><tspan class="bh" x="58.7" y="50">ở</tspan><tspan class="ca" x="67.94" y="50"> </tspan><tspan class="bh" x="76.13" y="50">ngoại</tspan><tspan class="ca" x="116.2" y="50"> </tspan><tspan class="bf" x="124.39" y="50">k</tspan><tspan class="ch" x="132.56" y="50">iều</tspan><tspan class="ad" x="154.34" y="50"> </tspan><tspan class="bh" x="162.53" y="50">Budapest </tspan><tspan class="bv" x="0" y="75">(</tspan><tspan class="h" x="5.71" y="75">T</tspan><tspan class="ch" x="13.95" y="75">hẻ</tspan><tspan class="an" x="31.65" y="75"> </tspan><tspan class="bh" x="39.51" y="75">tạm</tspan><tspan class="an" x="67.06" y="75"> </tspan><tspan class="a`" x="74.92" y="75">c</tspan><tspan class="bh" x="82.39" y="75">ó</tspan><tspan class="an" x="91.57" y="75"> </tspan><tspan class="bh" x="99.43" y="75">qu</tspan><tspan class="ao" x="118.06" y="75">y</tspan><tspan class="bh" x="125.83" y="75">ền</tspan><tspan class="an" x="143.53" y="75"> </tspan><tspan class="bh" x="151.39" y="75">hạn</tspan><tspan class="an" x="178.06" y="75"> </tspan><tspan class="bh" x="185.92" y="75">tương </tspan><tspan class="bh" x="0" y="100">đương</tspan><tspan class="cw" x="46.51" y="100"> </tspan><tspan class="ba" x="56.68" y="100">v</tspan><tspan class="bh" x="64.62" y="100">ới</tspan><tspan class="j" x="78.01" y="100"> </tspan><tspan class="ch" x="88.18" y="100">thẻ</tspan><tspan class="r" x="111.57" y="100"> </tspan><tspan class="bh" x="121.74" y="100">chính).</tspan><tspan class="ag" x="169.94" y="100"> </tspan><tspan class="cr" x="178.35" y="100">T</tspan><tspan class="bh" x="185.98" y="100">rường </tspan><tspan class="bh" x="0" y="125">hợp</tspan><tspan class="cs" x="28.03" y="125"> </tspan><tspan class="bh" x="31.33" y="125">nộp</tspan><tspan class="cs" x="59.3" y="125"> </tspan><tspan class="bh" x="62.6" y="125">tại</tspan><tspan class="co" x="80.55" y="125"> </tspan><tspan class="u" x="83.35" y="125">V</tspan><tspan class="bh" x="92.42" y="125">iệt</tspan><tspan class="cs" x="110.67" y="125"> </tspan><tspan class="ch" x="113.97" y="125">Nam,</tspan><tspan class="cs" x="150.47" y="125"> </tspan><tspan class="ch" x="153.77" y="125">nhà</tspan><tspan class="cs" x="180.44" y="125"> </tspan><tspan class="ch" x="183.74" y="125">đầu</tspan><tspan class="cs" x="210.49" y="125"> </tspan><tspan class="ch" x="213.79" y="125">tư </tspan><tspan class="bh" x="0" y="150">sẽ</tspan><tspan class="x" x="15.15" y="150"> </tspan><tspan class="bh" x="19.37" y="150">được</tspan><tspan class="x" x="54.83" y="150"> </tspan><tspan class="bh" x="59.05" y="150">cấp</tspan><tspan class="x" x="84.23" y="150"> </tspan><tspan class="bh" x="88.46" y="150">visa</tspan><tspan class="x" x="115.54" y="150"> </tspan><tspan class="bh" x="119.76" y="150">Hunga</tspan><tspan class="cn" x="166.55" y="150">r</tspan><tspan class="bh" x="172.58" y="150">y</tspan><tspan class="x" x="180.51" y="150"> </tspan><tspan class="bh" x="184.74" y="150">1</tspan><tspan class="x" x="193.34" y="150"> </tspan><tspan class="bh" x="197.57" y="150">năm </tspan><tspan class="bh" x="0" y="175">để làm thủ tục sinh t</tspan><tspan class="bw" x="144.64" y="175">r</tspan><tspan class="ch" x="150.19" y="175">ắc l</tspan><tspan class="aw" x="173.84" y="175">ấ</tspan><tspan class="bh" x="181.82" y="175">y thẻ</tspan></text><text class="bp" transform="translate(1012.8 158.6)"><tspan x="0" y="0">CHỌN M</tspan><tspan class="d`" x="79.38" y="0">U</tspan><tspan x="93.46" y="0">A</tspan><tspan class="m" x="-20.22" y="23">B</tspan><tspan class="bx" x="-7.05" y="23">Ấ</tspan><tspan class="i" x="5.87" y="23">T ĐỘNG </tspan><tspan class="ac" x="86.87" y="23">S</tspan><tspan class="cj" x="99.24" y="23">ẢN</tspan></text><text class="cg" transform="translate(960.45 13.39)"><tspan class="bh" x="0" y="0">Kể</tspan><tspan class="d" x="17.49" y="0"> </tspan><tspan class="bh" x="21.73" y="0">từ</tspan><tspan class="cf" x="36.64" y="0"> </tspan><tspan class="ch" x="40.88" y="0">3</tspan><tspan class="cf" x="49.49" y="0"> </tspan><tspan class="ch" x="53.73" y="0">tháng</tspan><tspan class="d" x="95.45" y="0"> </tspan><tspan class="bf" x="99.69" y="0">k</tspan><tspan class="bh" x="107.86" y="0">hi</tspan><tspan class="d" x="121.29" y="0"> </tspan><tspan class="a`" x="125.53" y="0">c</tspan><tspan class="bh" x="133" y="0">ó</tspan><tspan class="d" x="142.19" y="0"> </tspan><tspan class="bh" x="146.43" y="0">thẻ</tspan><tspan class="d" x="169.82" y="0"> </tspan><tspan class="bh" x="174.06" y="0">chính </tspan><tspan class="bh" x="0" y="25">thứ</tspan><tspan class="ba" x="24.19" y="25">c</tspan><tspan class="av" x="31.6" y="25">,</tspan><tspan class="ci" x="35.31" y="25"> </tspan><tspan class="bh" x="39.41" y="25">nhà</tspan><tspan class="ci" x="66.08" y="25"> </tspan><tspan class="ch" x="70.19" y="25">đầu</tspan><tspan class="e" x="96.94" y="25"> </tspan><tspan class="bh" x="101.04" y="25">tư</tspan><tspan class="bk" x="115.95" y="25"> </tspan><tspan class="bh" x="120.05" y="25">phải</tspan><tspan class="ci" x="151.09" y="25"> </tspan><tspan class="bh" x="155.19" y="25">mua</tspan><tspan class="bk" x="186.26" y="25"> </tspan><tspan class="bh" x="190.37" y="25">b</tspan><tspan class="n" x="199.87" y="25">ấ</tspan><tspan class="bh" x="207.92" y="25">t </tspan><tspan class="bh" x="0" y="50">động</tspan><tspan class="ai" x="37.23" y="50"> </tspan><tspan class="bh" x="43.24" y="50">sản</tspan><tspan class="ah" x="67.36" y="50"> </tspan><tspan class="ba" x="73.37" y="50">v</tspan><tspan class="bh" x="81.31" y="50">ới</tspan><tspan class="ah" x="94.7" y="50"> </tspan><tspan class="bh" x="100.7" y="50">số</tspan><tspan class="ah" x="116.62" y="50"> </tspan><tspan class="ch" x="122.63" y="50">tiền</tspan><tspan class="ah" x="150.16" y="50"> </tspan><tspan class="ch" x="156.17" y="50">cam</tspan><tspan class="ah" x="185.59" y="50"> </tspan><tspan class="bh" x="191.6" y="50">kết </tspan><tspan class="bh" x="0" y="75">đầu</tspan><tspan class="cd" x="26.75" y="75"> </tspan><tspan class="ch" x="32.15" y="75">tư</tspan><tspan class="af" x="47.06" y="75"> </tspan><tspan class="by" x="52.46" y="75">t</tspan><tspan class="bh" x="58.06" y="75">ối</tspan><tspan class="cd" x="71.39" y="75"> </tspan><tspan class="ch" x="76.79" y="75">thiểu</tspan><tspan class="cv" x="113.54" y="75"> </tspan><tspan class="bh" x="118.94" y="75">175.000</tspan><tspan class="af" x="174.3" y="75"> </tspan><tspan class="ch" x="179.7" y="75">EUR/ </tspan><tspan class="bh"><tspan x="0" y="100">BĐS. </tspan></tspan></text><text class="bp" transform="translate(1248.7 292.75)"><tspan x="0" y="0">H</tspan><tspan class="bi" x="14.8" y="0">O</tspan><tspan class="cj" x="29.58" y="0">ÀN THÀNH</tspan><tspan x="24.41" y="23">THỦ TỤC</tspan></text><text class="cg" transform="translate(1224.53 353.95)"><tspan class="bh" x="0" y="0">Nộp</tspan><tspan class="ax" x="29.62" y="0"> </tspan><tspan class="bh" x="36.34" y="0">hồ</tspan><tspan class="ax" x="54.8" y="0"> </tspan><tspan class="bh" x="61.52" y="0">sơ</tspan><tspan class="ax" x="77.5" y="0"> </tspan><tspan class="ch" x="84.22" y="0">sang</tspan><tspan class="ar" x="117.69" y="0"> </tspan><tspan class="by" x="124.42" y="0">t</tspan><tspan class="bh" x="130.02" y="0">ên</tspan><tspan class="ax" x="147.71" y="0"> </tspan><tspan class="bh" x="154.43" y="0">BĐS </tspan><tspan class="aa" x="0" y="25">v</tspan><tspan class="bh" x="8.03" y="25">à</tspan><tspan class="ap" x="16.14" y="25"> </tspan><tspan class="ch" x="23.98" y="25">nhận</tspan><tspan class="au" x="59.94" y="25"> </tspan><tspan class="by" x="67.78" y="25">g</tspan><tspan class="av" x="77.02" y="25">i</tspan><tspan class="aq" x="81.17" y="25">ấ</tspan><tspan class="bh" x="89.15" y="25">y</tspan><tspan class="au" x="97.09" y="25"> </tspan><tspan class="bh" x="104.93" y="25">chủ</tspan><tspan class="bg" x="130.99" y="25"> </tspan><tspan class="bh" x="138.83" y="25">qu</tspan><tspan class="cc" x="157.46" y="25">y</tspan><tspan class="bh" x="165.23" y="25">ền </tspan><tspan class="bh" x="0" y="50">nhà</tspan><tspan class="ak" x="26.67" y="50"> </tspan><tspan class="ch" x="33.61" y="50">t</tspan><tspan class="ba" x="39.3" y="50">r</tspan><tspan class="av" x="44.78" y="50">ong</tspan><tspan class="ak" x="72.58" y="50"> </tspan><tspan class="ba" x="79.52" y="50">v</tspan><tspan class="ch" x="87.46" y="50">òng</tspan><tspan class="bt" x="115.26" y="50"> </tspan><tspan class="bh" x="122.2" y="50">1</tspan><tspan class="cp" x="130.81" y="50"> </tspan><tspan class="bh" x="137.75" y="50">thán</tspan><tspan class="q" x="170.11" y="50">g</tspan><tspan class="ch" x="179.22" y="50">. </tspan><tspan class="bh" x="0" y="75">Hoàn</tspan><tspan class="bn" x="37.41" y="75"> </tspan><tspan class="ch" x="40.52" y="75">t</tspan><tspan class="aa" x="46.22" y="75">ấ</tspan><tspan class="bh" x="54.27" y="75">t</tspan><tspan class="bn" x="59.96" y="75"> </tspan><tspan class="ch" x="63.08" y="75">thủ</tspan><tspan class="bn" x="87.27" y="75"> </tspan><tspan class="ch" x="90.38" y="75">tục</tspan><tspan class="bn" x="112.86" y="75"> </tspan><tspan class="ch" x="115.98" y="75">thẻ</tspan><tspan class="ab" x="139.37" y="75"> </tspan><tspan class="bh" x="142.49" y="75">cư</tspan><tspan class="bn" x="159.27" y="75"> </tspan><tspan class="ch" x="162.39" y="75">trú </tspan><tspan class="bh" x="0" y="100">&amp;</tspan><tspan class="c`" x="10.08" y="100"> </tspan><tspan class="ch" x="15.6" y="100">đầu</tspan><tspan class="c`" x="42.35" y="100"> </tspan><tspan class="ch" x="47.87" y="100">tư</tspan><tspan class="c`" x="62.78" y="100"> </tspan><tspan class="ch" x="68.3" y="100">BĐS</tspan><tspan class="c`" x="96.8" y="100"> </tspan><tspan class="n" x="102.32" y="100">v</tspan><tspan class="bh" x="110.35" y="100">à</tspan><tspan class="c`" x="118.46" y="100"> </tspan><tspan class="ch" x="123.98" y="100">nhà</tspan><tspan class="c`" x="150.66" y="100"> </tspan><tspan class="ch" x="156.18" y="100">đầu </tspan><tspan class="bh" x="0" y="125">tư</tspan><tspan class="b`" x="14.91" y="125"> </tspan><tspan class="bh" x="18.29" y="125">được</tspan><tspan class="bq" x="53.75" y="125"> </tspan><tspan class="bh" x="57.13" y="125">qu</tspan><tspan class="cc" x="75.75" y="125">y</tspan><tspan class="bh" x="83.53" y="125">ền</tspan><tspan class="b`" x="101.22" y="125"> </tspan><tspan class="by" x="104.6" y="125">g</tspan><tspan class="bh" x="113.85" y="125">ia</tspan><tspan class="b`" x="126.1" y="125"> </tspan><tspan class="bh" x="129.48" y="125">hạn</tspan><tspan class="b`" x="156.16" y="125"> </tspan><tspan class="bh" x="159.54" y="125">thẻ </tspan><tspan class="bh"><tspan x="0" y="150">cư trú sau mỗi 3 năm. </tspan></tspan></text><g><line class="bd" x1="1298.3" y1="230.96" x2="1084.55" y2="230.96"/><circle class="bd" cx="1315.79" cy="230.96" r="5.35"/><circle class="bd" cx="1067.06" cy="230.96" r="5.35"/><line class="bd" x1="1049.57" y1="230.96" x2="835.82" y2="230.96"/><circle class="bd" cx="818.33" cy="230.96" r="5.35"/><line class="bd" x1="800.2" y1="230.96" x2="586.45" y2="230.96"/><circle class="bd" cx="568.96" cy="230.96" r="5.35"/><line class="bd" x1="551.47" y1="230.96" x2="337.72" y2="230.96"/><circle class="bd" cx="320.23" cy="230.96" r="5.35"/><line class="bd" x1="302.74" y1="230.96" x2="88.98" y2="230.96"/><circle class="bd" cx="71.49" cy="230.96" r="5.35"/></g><text class="bo" transform="translate(18.97 349.76)"><tspan x="0" y="0">01</tspan></text><text class="bo" transform="translate(267.43 183.26)"><tspan x="0" y="0">02</tspan></text><text class="bo" transform="translate(516.16 349.76)"><tspan x="0" y="0">03</tspan></text><text class="bo" transform="translate(765.86 183.26)"><tspan x="0" y="0">04</tspan></text><text class="cg" transform="translate(432.96 27.6)"><tspan class="cm" x="0" y="0">C</tspan><tspan class="bh" x="9.5" y="0">ông</tspan><tspan class="be" x="37.31" y="0"> </tspan><tspan class="bb" x="43.2" y="0">t</tspan><tspan class="bh" x="49.04" y="0">y</tspan><tspan class="be" x="56.98" y="0"> </tspan><tspan class="ch" x="62.87" y="0">làm</tspan><tspan class="be" x="88.9" y="0"> </tspan><tspan class="bh" x="94.79" y="0">thủ</tspan><tspan class="cx" x="118.98" y="0"> </tspan><tspan class="bh" x="124.87" y="0">tục</tspan><tspan class="cx" x="147.35" y="0"> </tspan><tspan class="n" x="153.24" y="0">v</tspan><tspan class="bh" x="161.27" y="0">à</tspan><tspan class="l" x="169.38" y="0"> </tspan><tspan class="bh" x="175.27" y="0">nộp</tspan><tspan class="be" x="203.24" y="0"> </tspan><tspan class="ch" x="209.13" y="0">hồ</tspan><tspan class="be" x="227.59" y="0"> </tspan><tspan class="bh" x="233.48" y="0">sơ</tspan><tspan class="be" x="249.46" y="0"> </tspan><tspan class="ch" x="255.35" y="0">cho </tspan><tspan class="bh" x="0" y="25">nhà</tspan><tspan class="v" x="26.67" y="25"> </tspan><tspan class="bh" x="34.58" y="25">đầu</tspan><tspan class="v" x="61.33" y="25"> </tspan><tspan class="bh" x="69.24" y="25">tư</tspan><tspan class="cl" x="84.15" y="25"> </tspan><tspan class="bh" x="92.06" y="25">tại</tspan><tspan class="v" x="110.01" y="25"> </tspan><tspan class="bh" x="117.92" y="25">Đại</tspan><tspan class="v" x="141.31" y="25"> </tspan><tspan class="bh" x="149.22" y="25">sứ</tspan><tspan class="cl" x="165.17" y="25"> </tspan><tspan class="bh" x="173.08" y="25">quán/</tspan><tspan class="v" x="214.99" y="25"> </tspan><tspan class="bh" x="222.9" y="25">Lãnh</tspan><tspan class="v" x="257.52" y="25"> </tspan><tspan class="ch" x="265.43" y="25">sự </tspan><tspan class="bh" x="0" y="50">quán</tspan><tspan class="aj" x="36.02" y="50"> </tspan><tspan class="bh" x="40.3" y="50">Hunga</tspan><tspan class="cn" x="87.08" y="50">r</tspan><tspan class="bh" x="93.11" y="50">y</tspan><tspan class="aj" x="101.05" y="50"> </tspan><tspan class="ch" x="105.33" y="50">tại</tspan><tspan class="aj" x="123.28" y="50"> </tspan><tspan class="bh" x="127.57" y="50">Hà</tspan><tspan class="w" x="146.51" y="50"> </tspan><tspan class="bh" x="150.79" y="50">Nội</tspan><tspan class="aj" x="175.05" y="50"> </tspan><tspan class="bh" x="179.33" y="50">hoặc</tspan><tspan class="aj" x="213.47" y="50"> </tspan><tspan class="bu" x="217.76" y="50">S</tspan><tspan class="bh" x="226.14" y="50">ở</tspan><tspan class="w" x="235.39" y="50"> </tspan><tspan class="av" x="239.67" y="50">Ngoại </tspan><tspan class="ae" x="0" y="75">k</tspan><tspan class="bh" x="8.18" y="75">iều Budapest </tspan></text><line class="bd" x1="1652.24" y1="230.96" x2="1333.28" y2="230.96"/></g></g></g></g></svg>