<svg xmlns="http://www.w3.org/2000/svg" width="247.024" height="74" viewBox="0 0 247.024 74">
    <g id="Group_114" data-name="Group 114" transform="translate(-354.894 -1157.717)">
        <text id="Liên_minh_Châu_Âu_NATO_OECD_WTO" data-name="Liên minh Châu Âu,
NATO, OECD, WTO" transform="translate(400.918 1157.717)" fill="#595a5a" font-size="18.243"
              font-family="'Mulish-SemiBold', sans-serif" font-weight="500" letter-spacing="0.025em">
            <tspan x="0" y="18">Liên minh Châu Âu,</tspan>
            <tspan x="0" y="46.504">NATO, OECD, WTO</tspan>
        </text>
        <g id="Group_82" data-name="Group 82">
            <path id="Path_1484" data-name="Path 1484"
                  d="M384.239,1176.962a14.673,14.673,0,1,1-14.673-14.672A14.673,14.673,0,0,1,384.239,1176.962Z"
                  fill="#be1e2d"/>
            <g id="Group_81" data-name="Group 81">
                <path id="Path_1485" data-name="Path 1485"
                      d="M370.457,1180.012a3.12,3.12,0,0,1-2.208-.912l-4.057-4.059a1.9,1.9,0,0,1,2.688-2.687l3.577,3.577,11.026-11.026a1.9,1.9,0,0,1,2.688,2.688L372.665,1179.1A3.114,3.114,0,0,1,370.457,1180.012Z"
                      fill="#fff"/>
            </g>
        </g>
    </g>
</svg>
