<svg xmlns="http://www.w3.org/2000/svg" width="562.024" height="117" viewBox="0 0 551.024 117">
    <g id="Group_119" data-name="Group 119" transform="translate(-354.894 -1800.795)">
        <g id="Group_88" data-name="Group 88">
            <path id="Path_1490" data-name="Path 1490"
                  d="M384.239,1820.042a14.673,14.673,0,1,1-14.673-14.673A14.673,14.673,0,0,1,384.239,1820.042Z"
                  fill="#be1e2d"/>
            <g id="Group_87" data-name="Group 87">
                <path id="Path_1491" data-name="Path 1491"
                      d="M370.457,1823.091a3.116,3.116,0,0,1-2.208-.912l-4.057-4.058a1.9,1.9,0,0,1,2.688-2.687l3.577,3.577,11.026-11.027a1.9,1.9,0,0,1,2.688,2.688l-11.506,11.506A3.11,3.11,0,0,1,370.457,1823.091Z"
                      fill="#fff"/>
            </g>
        </g>
        <text
            id="Chế_độ_phúc_lợi_xã_hội_cực_tốt_môi_trường_sống_trong_lành_nền_giáo_dục_y_tế_phát_triển_nhất_nhì_châu_Âu"
            data-name="Chế độ phúc lợi xã hội cực tốt, môi trường sống trong lành, nền giáo dục &amp; y tế phát triển nhất nhì châu Âu"
            transform="translate(400.918 1800.795)" fill="#595a5a" font-size="18.243"
            font-family="'Mulish-SemiBold', sans-serif" font-weight="500" letter-spacing="0.025em">
            <tspan x="0" y="18">Chế độ phúc lợi xã hội cực tốt, môi trường sống trong</tspan>
            <tspan x="0" y="46.504">lành, nền giáo dục &amp; y tế phát triển nhất nhì châu Âu</tspan>
        </text>
    </g>
</svg>
