<svg xmlns="http://www.w3.org/2000/svg" width="264.449" height="102" viewBox="0 0 264.449 102">
    <style>
        @font-face {
        font-family: 'Mulish-SemiBold';
        src: url("/fonts/Mulish-SemiBold.ttf");
        }

        text {
        font-family: 'Mulish-SemiBold', sans-serif;
        }
    </style>
    <g id="Group_125" data-name="Group 125" transform="translate(-717.876 -753.952)">
        <text id="_93.030_km2" data-name="93.030 km2" transform="translate(790.325 755.352)" fill="#595a5a"
              font-size="30" font-weight="500" letter-spacing="0.026em">
            <tspan x="0" y="25">93.030 km2</tspan>
        </text>
        <g id="Group_19" data-name="Group 19" transform="translate(-2211.915)">
            <path id="Path_730" data-name="Path 730"
                  d="M2972.667,775.39a21.438,21.438,0,1,1-21.438-21.438A21.438,21.438,0,0,1,2972.667,775.39Z"
                  fill="#be1e2d"/>
            <g id="Group_18" data-name="Group 18">
                <path id="Path_731" data-name="Path 731"
                      d="M2952.53,779.845a4.553,4.553,0,0,1-3.225-1.332l-5.928-5.93a2.776,2.776,0,0,1,3.927-3.926l5.227,5.226,16.11-16.11a2.777,2.777,0,0,1,3.927,3.927l-16.811,16.811A4.546,4.546,0,0,1,2952.53,779.845Z"
                      fill="#fff"/>
            </g>
        </g>
    </g>
</svg>
