<svg xmlns="http://www.w3.org/2000/svg" width="390.951" height="124" viewBox="0 0 390.951 124">
    <g id="Group_128" data-name="Group 128" transform="translate(-189.644 -969.317)">
        <text id="Forint_HUF_" data-name="Forint (HUF)" transform="translate(273.595 970.717)" fill="#595a5a"
              font-size="30" font-family="Mulish-SemiBold, sans-serif" font-weight="500" letter-spacing="0.026em">
            <tspan x="0" y="25">Forint (HUF)</tspan>
        </text>
        <g id="Group_23" data-name="Group 23" transform="translate(-2211.915)">
            <path id="Path_734" data-name="Path 734"
                  d="M2444.435,990.756A21.438,21.438,0,1,1,2423,969.317,21.438,21.438,0,0,1,2444.435,990.756Z"
                  fill="#be1e2d"/>
            <g id="Group_22" data-name="Group 22">
                <path id="Path_735" data-name="Path 735"
                      d="M2424.3,995.211a4.554,4.554,0,0,1-3.225-1.333l-5.928-5.929a2.776,2.776,0,0,1,3.927-3.926l5.227,5.226,16.11-16.111a2.777,2.777,0,0,1,3.927,3.928l-16.811,16.811A4.55,4.55,0,0,1,2424.3,995.211Z"
                      fill="#fff"/>
            </g>
        </g>
    </g>
</svg>
