<svg xmlns="http://www.w3.org/2000/svg" width="582.991" height="165" viewBox="0 0 582.991 174.462">
    <g id="Group_110" data-name="Group 110" transform="translate(-1020.079 -1519.043)">
        <g id="Group_90" data-name="Group 90">
            <path id="Path_1492" data-name="Path 1492"
                  d="M1049.424,1533.716a14.672,14.672,0,1,1-14.673-14.673A14.672,14.672,0,0,1,1049.424,1533.716Z"
                  fill="#be1e2d"/>
            <g id="Group_89" data-name="Group 89">
                <path id="Path_1493" data-name="Path 1493"
                      d="M1035.642,1536.765a3.116,3.116,0,0,1-2.208-.912l-4.057-4.058a1.9,1.9,0,0,1,2.688-2.688l3.577,3.578,11.026-11.027a1.9,1.9,0,0,1,2.688,2.688l-11.506,11.506A3.11,3.11,0,0,1,1035.642,1536.765Z"
                      fill="#fff"/>
            </g>
        </g>
        <g id="Group_92" data-name="Group 92">
            <path id="Path_1494" data-name="Path 1494"
                  d="M1049.424,1599.881a14.672,14.672,0,1,1-14.673-14.673A14.673,14.673,0,0,1,1049.424,1599.881Z"
                  fill="#be1e2d"/>
            <g id="Group_91" data-name="Group 91">
                <path id="Path_1495" data-name="Path 1495"
                      d="M1035.642,1602.931a3.121,3.121,0,0,1-2.208-.912l-4.057-4.059a1.9,1.9,0,0,1,2.688-2.687l3.577,3.577,11.026-11.026a1.9,1.9,0,0,1,2.688,2.687l-11.506,11.506A3.111,3.111,0,0,1,1035.642,1602.931Z"
                      fill="#fff"/>
            </g>
        </g>
        <text id="Thuế_doanh_nghiệp_chỉ_9_-_thấp_nhất_khối_EU" data-name="Thuế doanh nghiệp chỉ 9% - thấp nhất khối EU"
              transform="translate(1070.07 1521.837)" fill="#595a5a" font-size="18.243"
              font-family="Mulish, sans-serif" font-weight="500" letter-spacing="0.025em">
            <tspan x="0" y="18">Thuế doanh nghiệp chỉ 9% - thấp nhất khối EU</tspan>
        </text>
        <text
            id="Top_13_quốc_gia_hòa_bình_nhất_thế_giới._Người_bản_địa_hòa_nhã_thân_thiện_với_người_nhập_cư_không_phân_biệt_-_không_xung_đột_sắc_tộc_như_các_quốc_gia_khác"
            data-name="Top 13 quốc gia hòa bình nhất thế giới. Người bản địa hòa nhã thân thiện với người nhập cư, không phân biệt - không xung đột sắc tộc như các quốc gia khác"
            transform="translate(1070.07 1586.505)" fill="#595a5a" font-size="18.243"
            font-family="Mulish, sans-serif" font-weight="500" letter-spacing="0.025em">
            <tspan x="0" y="18" letter-spacing="0.028em">Top 13 quốc gia hòa bình nhất thế giới. Người bản địa hòa</tspan>
            <tspan x="0" y="46.504">nhã thân thiện với người nhập cư, không phân biệt - không</tspan>
            <tspan x="0" y="75.009"> xung đột sắc tộc như các quốc gia khác</tspan>
        </text>
    </g>
</svg>
