<svg xmlns="http://www.w3.org/2000/svg" xmlns:xlink="http://www.w3.org/1999/xlink" width="1139.412" height="377.309"
     viewBox="0 0 1139.412 377.309">
    <style>
        @font-face {
        font-family: 'Mulish-SemiBold';
        src: url("/fonts/Mulish-SemiBold.ttf");
        }
        @font-face {
        font-family: 'Mulish-ExtraBold';
        src: url("/fonts/Mulish-ExtraBold.ttf");
        }
        .text2 {
        font-family: Mulish-ExtraBold, Mulish;
        }
    </style>
    <defs>
        <clipPath id="clip-path">
            <path id="Path_37" data-name="Path 37"
                  d="M1514.025,1211.227a67.651,67.651,0,0,1-77.591,86.373v252.465H2473.4V1211.227Z" fill="none"/>
        </clipPath>
    </defs>
    <g id="Group_52" data-name="Group 52" transform="translate(-1390.745 -1172.756)">
        <g id="Group_46" data-name="Group 46">
            <path id="Path_33" data-name="Path 33"
                  d="M1501.8,1228.681a55.526,55.526,0,1,1-55.525-55.526,55.523,55.523,0,0,1,55.525,55.526"
                  fill="#e7c57e"/>
            <g id="Group_45" data-name="Group 45">
                <path id="Path_34" data-name="Path 34"
                      d="M1481.017,1227.356c-.909-.318-1.828-.613-2.751-.891a1.554,1.554,0,0,1-1.1-1.085,19.7,19.7,0,0,0-4.278-7.248,1.052,1.052,0,0,1-.2-.792,23.26,23.26,0,0,0,.305-7.8c-.282-1.782-1.12-2.746-2.489-2.8a8.1,8.1,0,0,0-1.96.195,35.025,35.025,0,0,0-8.393,3.083c-1.133.563-2.011.147-3.06-.069a5.256,5.256,0,0,0,.262-.713c.33-1.511.687-3.018.931-4.543a1.312,1.312,0,0,0-.558-1.011,1.082,1.082,0,0,0-1.025.071,1.759,1.759,0,0,0-.507,1.084,12.127,12.127,0,0,1-7.586,10.489,2.154,2.154,0,0,1-.887.127c-2.069-.034-4.14-.089-6.209-.13a5.95,5.95,0,0,1-2.754-.189,12.224,12.224,0,0,1-6.911-13.172,12.261,12.261,0,0,1,20.875-6.508,20.441,20.441,0,0,1,2.156,2.956c.418.606.947.81,1.492.5a1.084,1.084,0,0,0,.376-1.536c-.039-.085-.089-.165-.134-.248a14.411,14.411,0,1,0-21.005,18.614c.176.125.344.261.583.443-.691.218-1.279.38-1.848.586a.9.9,0,0,0-.655,1.163,2.049,2.049,0,0,0,.874.87c.165.1.5-.03.743-.107a28.013,28.013,0,0,1,17.306.011c.827.261,1.4.015,1.6-.654.189-.632-.138-1.118-.949-1.389-.49-.164-.986-.314-1.593-.506a15.072,15.072,0,0,0,4.116-3.95.578.578,0,0,1,.442-.227c.549.093,1.09.243,1.621.369a1.592,1.592,0,0,1,.027.273c-.021.162-.053.323-.08.486a12.984,12.984,0,0,0,.006,4.989c.993,4.524,4.863,6.495,8.577,6.4a5.29,5.29,0,0,0,5.19-3.554c.083-.21.189-.41.352-.762.119.191.17.3.242.386a16.309,16.309,0,0,1,2.945,5.358,3.679,3.679,0,0,0,2.7,2.623c.794.22,1.569.5,2.349.761a1.912,1.912,0,0,1,1.5,2.1q.006,2.193,0,4.388a1.91,1.91,0,0,1-1.516,2.093q-2.145.707-4.3,1.379a3.49,3.49,0,0,0-2.09,1.579,20.48,20.48,0,0,1-8.286,7.7,2.687,2.687,0,0,0-1.511,2.12c-.394,2.343-.87,4.674-1.288,7.013a.876.876,0,0,1-1.048.844c-1.366-.046-2.735-.032-4.1,0a.776.776,0,0,1-.916-.734c-.223-1.275-.476-2.544-.713-3.817a1.756,1.756,0,0,0-2.237-1.653,45.864,45.864,0,0,1-10.864.233,1.749,1.749,0,0,0-2.173,1.653c-.227,1.226-.482,2.447-.692,3.677a.663.663,0,0,1-.766.633c-1.487-.007-2.973-.009-4.46,0a.679.679,0,0,1-.76-.65c-.413-2.2-.893-4.383-1.245-6.59a2.955,2.955,0,0,0-1.643-2.356,17.392,17.392,0,0,1-6.251-5.527c-3.87-5.7-4.256-11.913-2.363-18.334a17.264,17.264,0,0,1,8.165-10.005,1.1,1.1,0,0,0,.53-1.6,1.075,1.075,0,0,0-1.608-.24,19.924,19.924,0,0,0-9.88,14.2,6.35,6.35,0,0,1-.2.676,1.066,1.066,0,0,1-.232-.621,4.741,4.741,0,0,0-2.911-4.108,2.989,2.989,0,0,0-3.849,1.718,2.573,2.573,0,0,0,1.133,3.621,15.55,15.55,0,0,0,2.135.906c.224.091.464.14.749.224a5.2,5.2,0,0,1-3.833,2.29,1.591,1.591,0,0,0-1.339.766v.849c.72.908,1.668.708,2.581.481a7.779,7.779,0,0,0,4.634-3.588,2.789,2.789,0,0,1,.588-.5,2.066,2.066,0,0,1,.146.865,24.844,24.844,0,0,0,.62,6.525,20.262,20.262,0,0,0,9.983,13.2,1.306,1.306,0,0,1,.745,1c.382,2.2.828,4.392,1.254,6.586a2.649,2.649,0,0,0,2.827,2.322q2.231.009,4.46,0a2.626,2.626,0,0,0,2.89-2.4q.341-1.757.688-3.52c1.243.072,2.419.22,3.59.189,2.19-.053,4.377-.189,6.563-.336.63-.044,1.048-.087,1.129.756a25.669,25.669,0,0,0,.6,3.189,2.56,2.56,0,0,0,2.69,2.122c1.556.006,3.115.008,4.671,0a2.557,2.557,0,0,0,2.7-2.19c.48-2.4.946-4.8,1.373-7.212a1.146,1.146,0,0,1,.654-.9,23.034,23.034,0,0,0,8.841-8.253,1.838,1.838,0,0,1,.905-.7c1.531-.541,3.089-1,4.623-1.528a3.877,3.877,0,0,0,2.716-3.809q.009-2.406,0-4.812A3.888,3.888,0,0,0,1481.017,1227.356Zm-11.338-7.444a3.469,3.469,0,0,1-3.609,2.453,6.046,6.046,0,0,1-6.364-6.134,18.082,18.082,0,0,1,.291-3.154,1.479,1.479,0,0,1,.694-.974,36.894,36.894,0,0,1,8.937-3.2c.889-.157,1.067-.065,1.212.809.144.857.187,1.729.231,2.164A23.854,23.854,0,0,1,1469.679,1219.912Zm-54.871,7.083c-.441-.189-.749-.5-.414-1.056.365-.6.79-.781,1.335-.505a3.079,3.079,0,0,1,1.35,2.389C1416.236,1227.521,1415.506,1227.294,1414.808,1226.995Z"/>
                <path id="Path_35" data-name="Path 35"
                      d="M1446.028,1203.206c-.233-.112-.488-.184-.707-.316-.14-.085-.331-.244-.335-.373-.025-1.148-.015-2.3-.015-3.612.667.246,1.214.437,1.751.65a.81.81,0,0,0,1.235-.6.872.872,0,0,0-.635-1.162c-.748-.259-1.525-.427-2.291-.633-.14-.344-.408-.759-.647-.742s-.478.447-.715.7l.091.188c-.249.058-.5.107-.749.172a3.336,3.336,0,0,0-.647,6.357c.358.175.749.285,1.1.47.157.082.363.273.367.418.028,1.336.017,2.671.017,4.018a3.491,3.491,0,0,1-2.288-1c-.356-.3-.729-.6-1.173-.182a.984.984,0,0,0-.166,1.455,5.784,5.784,0,0,0,1.69,1.206,9.827,9.827,0,0,0,1.89.485c-.044.041-.089.083-.133.126.233.261.441.715.7.747.7.086.562-.573.628-1,.1-.031.163-.053.227-.068a3.56,3.56,0,0,0,3.117-3.271A3.706,3.706,0,0,0,1446.028,1203.206Zm-2.075-.889c-1.258-.32-1.8-.929-1.717-1.869.068-.8.614-1.229,1.717-1.343Zm.914,6.345v-3.648a1.819,1.819,0,0,1,1.594,1.884A1.624,1.624,0,0,1,1444.867,1208.662Z"/>
                <path id="Path_36" data-name="Path 36"
                      d="M1472.147,1228.457a3.461,3.461,0,0,1-6.913-.1,1.081,1.081,0,0,1,.969-1.176,1.032,1.032,0,0,1,1.146.978c.174.936.582,1.358,1.328,1.367.769.01,1.193-.423,1.363-1.394a1.044,1.044,0,0,1,1.178-.947C1471.829,1227.258,1472.172,1227.725,1472.147,1228.457Z"/>
            </g>
        </g>
        <g id="Group_48" data-name="Group 48">
            <g id="Group_47" data-name="Group 47" clip-path="url(#clip-path)">
                <rect id="Rectangle_17" data-name="Rectangle 17" width="1013.326" height="224.294"
                      transform="translate(1445.982 1227.806)" fill="none" stroke="#e7c57e" stroke-miterlimit="10"
                      stroke-width="4"/>
                <rect id="Rectangle_18" data-name="Rectangle 18" width="1013.326" height="224.294"
                      transform="translate(1445.982 1227.806)" fill="#231f20" stroke="#e7c57e" stroke-miterlimit="10"
                      stroke-width="4" opacity="0.5"/>
            </g>
        </g>
        <text id="CHỨNG_MINH_SỐ_DƯ_TKNH" data-name="CHỨNG MINH SỐ DƯ TKNH" transform="translate(1515.157 1173.756)"
              fill="#e7c57e" font-size="39.031" font-family="Mulish-ExtraBold, Mulish" font-weight="800"
              letter-spacing="0.028em">
            <tspan x="0" y="39">CHỨNG MINH SỐ DƯ TKNH</tspan>
        </text>
        <g id="Group_51" data-name="Group 51">
            <g id="Group_50" data-name="Group 50">
                <g id="Group_49" data-name="Group 49">
                    <text class="text2" id="TÀI_KHOẢN_NH_VIỆT_NAM:_400.000_EUR_KHOẢNG_10_TỶ_VNĐ_" data-name="TÀI KHOẢN NH VIỆT NAM: 400.000 EUR
(KHOẢNG 10 TỶ VNĐ)" transform="translate(1445.116 1293.06)" fill="#fff" font-size="31"
                          font-weight="800" letter-spacing="0.05em">
                        <tspan x="160" y="31">TÀI KHOẢN NH VIỆT NAM:</tspan>
                        <tspan y="31" fill="#e7c57e" font-size="45"> 400.000 </tspan>
                        <tspan y="31" fill="#e7c57e" font-size="31">EUR</tspan>
                        <tspan x="325.715" y="87.873">(KHOẢNG 10 TỶ VNĐ)</tspan>
                    </text>
                </g>
            </g>
        </g>
    </g>
</svg>
