<svg xmlns="http://www.w3.org/2000/svg" xmlns:xlink="http://www.w3.org/1999/xlink" width="1021.564" height="338.476" viewBox="0 0 1021.564 338.476">
  <defs>
    <clipPath id="clip-path">
      <path id="Path_9" data-name="Path 9" d="M2428.357,1064.871a60.661,60.661,0,0,1-69.578,77.453v226.394H3288.66V1064.871Z" fill="none"/>
    </clipPath>
  </defs>
  <g id="Group_11" data-name="Group 11" transform="translate(-2317.809 -1030.242)">
    <g id="Group_5" data-name="Group 5">
      <path id="Path_5" data-name="Path 5" d="M2417.392,1080.523a49.792,49.792,0,1,1-49.792-49.792,49.79,49.79,0,0,1,49.792,49.792" fill="#e7c57e"/>
      <g id="Group_4" data-name="Group 4">
        <path id="Path_6" data-name="Path 6" d="M2398.758,1079.335c-.815-.285-1.64-.55-2.467-.8a1.4,1.4,0,0,1-.989-.974,17.684,17.684,0,0,0-3.836-6.5.942.942,0,0,1-.182-.71,20.856,20.856,0,0,0,.273-7c-.253-1.6-1-2.463-2.232-2.51a7.33,7.33,0,0,0-1.757.174,31.458,31.458,0,0,0-7.527,2.765c-1.016.5-1.8.132-2.744-.061a4.9,4.9,0,0,0,.236-.64c.295-1.355.615-2.706.834-4.073a1.179,1.179,0,0,0-.5-.908.97.97,0,0,0-.919.065,1.576,1.576,0,0,0-.455.972,10.876,10.876,0,0,1-6.8,9.406,1.934,1.934,0,0,1-.795.113c-1.855-.03-3.713-.079-5.568-.117a5.333,5.333,0,0,1-2.469-.169,10.963,10.963,0,0,1-6.2-11.811,10.994,10.994,0,0,1,18.719-5.836,18.386,18.386,0,0,1,1.934,2.65c.375.543.849.726,1.338.452a.972.972,0,0,0,.337-1.378c-.035-.076-.079-.147-.12-.222a12.923,12.923,0,1,0-18.836,16.692c.158.112.309.234.522.4-.619.195-1.146.341-1.657.526a.8.8,0,0,0-.586,1.043,1.835,1.835,0,0,0,.783.78c.148.09.45-.027.667-.1a25.124,25.124,0,0,1,15.518.01c.741.234,1.255.013,1.433-.587.17-.567-.123-1-.851-1.245-.439-.147-.884-.281-1.428-.454a13.518,13.518,0,0,0,3.69-3.542.513.513,0,0,1,.4-.2c.492.083.977.217,1.454.33a1.544,1.544,0,0,1,.024.245c-.019.146-.048.29-.072.436a11.654,11.654,0,0,0,0,4.474,7.317,7.317,0,0,0,7.692,5.741,4.746,4.746,0,0,0,4.654-3.187c.074-.188.169-.368.315-.684.107.172.153.267.217.346a14.629,14.629,0,0,1,2.641,4.8,3.3,3.3,0,0,0,2.418,2.352c.713.2,1.408.447,2.107.682a1.714,1.714,0,0,1,1.346,1.888q.006,1.967,0,3.935a1.713,1.713,0,0,1-1.36,1.877q-1.923.633-3.856,1.237a3.131,3.131,0,0,0-1.875,1.416,18.35,18.35,0,0,1-7.43,6.9,2.41,2.41,0,0,0-1.355,1.9c-.353,2.1-.78,4.191-1.155,6.289a.784.784,0,0,1-.939.757c-1.225-.041-2.453-.029-3.681,0a.7.7,0,0,1-.821-.658c-.2-1.143-.427-2.281-.639-3.422a1.574,1.574,0,0,0-2.006-1.483,41.132,41.132,0,0,1-9.742.209,1.569,1.569,0,0,0-1.949,1.482c-.2,1.1-.433,2.195-.621,3.3a.593.593,0,0,1-.687.568c-1.333-.006-2.666-.008-4,0a.61.61,0,0,1-.682-.583c-.369-1.971-.8-3.93-1.116-5.909a2.646,2.646,0,0,0-1.473-2.113,15.593,15.593,0,0,1-5.606-4.956c-3.47-5.112-3.816-10.683-2.118-16.441a15.477,15.477,0,0,1,7.322-8.972.989.989,0,0,0,.474-1.432.964.964,0,0,0-1.441-.215,17.865,17.865,0,0,0-8.86,12.73,5.589,5.589,0,0,1-.178.606.964.964,0,0,1-.209-.557,4.25,4.25,0,0,0-2.61-3.683,2.679,2.679,0,0,0-3.451,1.54,2.307,2.307,0,0,0,1.016,3.248,14.062,14.062,0,0,0,1.914.812c.2.081.416.125.672.2a4.657,4.657,0,0,1-3.438,2.054,1.427,1.427,0,0,0-1.2.687v.761c.647.814,1.5.635,2.315.431a6.97,6.97,0,0,0,4.156-3.217,2.485,2.485,0,0,1,.527-.448,1.855,1.855,0,0,1,.131.775,22.209,22.209,0,0,0,.556,5.851,18.169,18.169,0,0,0,8.952,11.833,1.175,1.175,0,0,1,.668.9c.342,1.974.743,3.938,1.124,5.906a2.376,2.376,0,0,0,2.536,2.082q2,.008,4,0a2.354,2.354,0,0,0,2.591-2.152q.306-1.575.618-3.156c1.114.064,2.169.2,3.219.169,1.964-.047,3.924-.169,5.885-.3.565-.039.94-.078,1.013.679a23.021,23.021,0,0,0,.542,2.859,2.3,2.3,0,0,0,2.412,1.9c1.4.005,2.793.007,4.189,0a2.293,2.293,0,0,0,2.425-1.964c.431-2.153.848-4.307,1.232-6.467a1.03,1.03,0,0,1,.587-.811,20.659,20.659,0,0,0,7.927-7.4,1.65,1.65,0,0,1,.812-.631c1.372-.485,2.77-.9,4.145-1.371a3.477,3.477,0,0,0,2.436-3.415q.007-2.159,0-4.315A3.486,3.486,0,0,0,2398.758,1079.335Zm-10.167-6.676a3.112,3.112,0,0,1-3.236,2.2,5.42,5.42,0,0,1-5.707-5.5,16.216,16.216,0,0,1,.261-2.829,1.329,1.329,0,0,1,.622-.874,33.156,33.156,0,0,1,8.014-2.873c.8-.141.957-.057,1.087.726.129.768.168,1.55.207,1.94A21.372,21.372,0,0,1,2388.591,1072.659Zm-49.205,6.352c-.4-.17-.671-.45-.371-.947.327-.542.709-.7,1.2-.453a2.763,2.763,0,0,1,1.211,2.143C2340.667,1079.482,2340.012,1079.279,2339.386,1079.011Z"/>
        <path id="Path_7" data-name="Path 7" d="M2367.382,1057.678c-.208-.1-.437-.164-.634-.283-.126-.076-.3-.219-.3-.334-.022-1.03-.014-2.059-.014-3.239.6.22,1.089.391,1.571.583a.727.727,0,0,0,1.107-.534.782.782,0,0,0-.57-1.042c-.67-.232-1.367-.383-2.054-.568-.125-.308-.366-.68-.58-.665s-.429.4-.641.624l.082.168c-.224.053-.45.1-.672.155a2.991,2.991,0,0,0-.58,5.7c.321.158.672.256.987.422.141.073.326.245.329.375.026,1.2.015,2.4.015,3.6a3.129,3.129,0,0,1-2.052-.893c-.319-.27-.653-.54-1.051-.163a.881.881,0,0,0-.15,1.3,5.179,5.179,0,0,0,1.517,1.082,8.8,8.8,0,0,0,1.694.434c-.039.038-.08.075-.119.114.209.234.4.641.629.67.631.076.5-.514.564-.894.088-.027.145-.047.2-.061a3.19,3.19,0,0,0,2.795-2.932A3.324,3.324,0,0,0,2367.382,1057.678Zm-1.86-.8c-1.128-.286-1.613-.833-1.54-1.676.061-.714.551-1.1,1.54-1.2Zm.819,5.69V1059.3a1.632,1.632,0,0,1,1.43,1.689A1.457,1.457,0,0,1,2366.341,1062.571Z"/>
        <path id="Path_8" data-name="Path 8" d="M2390.8,1080.322a3.1,3.1,0,0,1-6.2-.087.969.969,0,0,1,.869-1.055.925.925,0,0,1,1.027.877c.156.84.523,1.218,1.191,1.226.69.009,1.07-.38,1.223-1.25a.936.936,0,0,1,1.056-.849C2390.519,1079.246,2390.826,1079.665,2390.8,1080.322Z"/>
      </g>
    </g>
    <g id="Group_7" data-name="Group 7">
      <g id="Group_6" data-name="Group 6" clip-path="url(#clip-path)">
        <rect id="Rectangle_7" data-name="Rectangle 7" width="908.68" height="201.131" transform="translate(2367.341 1079.738)" fill="none" stroke="#e7c57e" stroke-miterlimit="10" stroke-width="4"/>
        <rect id="Rectangle_8" data-name="Rectangle 8" width="908.68" height="201.131" transform="translate(2367.341 1079.738)" fill="#231f20" stroke="#e7c57e" stroke-miterlimit="10" stroke-width="4" opacity="0.5"/>
      </g>
    </g>
    <text id="CHỨNG_MINH_SỐ_DƯ_TKNH" data-name="CHỨNG MINH SỐ DƯ TKNH" transform="translate(2429.373 1031.242)" fill="#e7c57e" font-size="35" font-family="Mulish-ExtraBold, Mulish" font-weight="800" letter-spacing="0.028em"><tspan x="0" y="35">CHỨNG MINH SỐ DƯ TKNH</tspan></text>
    <g id="Group_10" data-name="Group 10">
      <g id="Group_9" data-name="Group 9">
        <g id="Group_8" data-name="Group 8">
          <text id="TÀI_KHOẢN_NH_VIỆT_NAM:_400.000_EUR_KHOẢNG_10_TỶ_VNĐ_" data-name="TÀI KHOẢN NH VIỆT NAM: 400.000 EUR
(KHOẢNG 10 TỶ VNĐ)" transform="translate(2366.564 1140.199)" fill="#fff" font-size="28" font-family="Mulish-ExtraBold, Mulish" font-weight="800" letter-spacing="0.025em"><tspan x="171.173" y="28">TÀI KHOẢN NH VIỆT NAM: 400.000 EUR</tspan><tspan x="296.851" y="85">(KHOẢNG 10 TỶ VNĐ)</tspan></text>
        </g>
      </g>
    </g>
  </g>
</svg>
