<svg xmlns="http://www.w3.org/2000/svg" width="488.883" height="74" viewBox="0 0 488.883 74">
    <g id="Group_116" data-name="Group 116" transform="translate(-1077.309 -1157.717)">
        <text id="_5000_người_2019_và_có_xu_hướng_tăng_mạnh_những_năm_gần_đây"
              data-name="~ 5000 người (2019) và có xu hướng tăng mạnh những năm gần đây"
              transform="translate(1134.192 1157.717)" fill="#595a5a" font-size="18.243"
              font-family="Mulish, sans-serif" font-weight="500" letter-spacing="0.025em">
            <tspan x="0" y="18">~ 5000 người (2019) và có xu hướng tăng mạnh</tspan>
            <tspan x="0" y="46.504">những năm gần đây</tspan>
        </text>
        <g id="Group_106" data-name="Group 106">
            <path id="Path_1508" data-name="Path 1508"
                  d="M1106.654,1176.962a14.673,14.673,0,1,1-14.672-14.672A14.672,14.672,0,0,1,1106.654,1176.962Z"
                  fill="#be1e2d"/>
            <g id="Group_105" data-name="Group 105">
                <path id="Path_1509" data-name="Path 1509"
                      d="M1092.872,1180.012a3.118,3.118,0,0,1-2.207-.912l-4.058-4.059a1.9,1.9,0,0,1,2.688-2.687l3.578,3.577,11.026-11.026a1.9,1.9,0,0,1,2.687,2.688l-11.505,11.506A3.118,3.118,0,0,1,1092.872,1180.012Z"
                      fill="#fff"/>
            </g>
        </g>
    </g>
</svg>
