<svg xmlns="http://www.w3.org/2000/svg" width="800.951" height="121" viewBox="0 0 800.951 121">
    <style>
        @font-face {
        font-family: 'Mulish-SemiBold';
        src: url("/fonts/Mulish-SemiBold.ttf");
        }

        text {
        font-family: 'Mulish-SemiBold', sans-serif;
        }
    </style>
    <g id="Group_133" data-name="Group 133" transform="translate(-189.076 -1669.712)">
        <text id="Thị_trường_bất_động_sản_sôi_động_với_giá_trị_tăng_trưởng_lợi_nhuận_cho_thuê_cực_kì_cao"
              data-name="Thị trường bất động sản sôi động với giá trị tăng trưởng &amp; lợi nhuận cho thuê cực kì cao"
              transform="translate(273.028 1669.712)" fill="#595a5a" font-size="30"
              font-weight="500" letter-spacing="0.026em">
            <tspan x="0" y="25" letter-spacing="0.087em">Thị trường bất động sản sôi động với giá trị</tspan>
            <tspan x="0" y="61" letter-spacing="0.088em"> tăng trưởng &amp; lợi nhuận cho thuê cực kì cao</tspan>
        </text>
        <g id="Group_33" data-name="Group 33" transform="translate(-2211.915)">
            <path id="Path_742" data-name="Path 742"
                  d="M2443.867,1697.751a21.438,21.438,0,1,1-21.438-21.438A21.438,21.438,0,0,1,2443.867,1697.751Z"
                  fill="#be1e2d"/>
            <g id="Group_32" data-name="Group 32">
                <path id="Path_743" data-name="Path 743"
                      d="M2423.73,1702.206a4.558,4.558,0,0,1-3.225-1.332l-5.928-5.93a2.776,2.776,0,0,1,3.927-3.926l5.227,5.226,16.11-16.11a2.777,2.777,0,0,1,3.927,3.927l-16.811,16.811A4.55,4.55,0,0,1,2423.73,1702.206Z"
                      fill="#fff"/>
            </g>
        </g>
    </g>
</svg>
