<svg xmlns="http://www.w3.org/2000/svg" width="775.951" height="105" viewBox="0 0 775.951 105">
    <style>
        @font-face {
        font-family: 'Mulish-SemiBold';
        src: url("/fonts/Mulish-SemiBold.ttf");
        }

        text {
        font-family: 'Mulish-SemiBold', sans-serif;
        }
    </style>
    <g id="Group_134" data-name="Group 134" transform="translate(-189.076 -1775.573)">
        <text
            id="Chế_độ_phúc_lợi_xã_hội_cực_tốt_môi_trường_sống_trong_lành_nền_giáo_dục_y_tế_phát_triển_nhất_nhì_châu_Âu"
            data-name="Chế độ phúc lợi xã hội cực tốt, môi trường sống trong lành, nền giáo dục &amp; y tế phát triển nhất nhì châu Âu"
            transform="translate(273.028 1775.573)" fill="#595a5a" font-size="30" font-weight="500" letter-spacing="0.026em">
            <tspan x="0" y="25">Chế độ phúc lợi xã hội cực tốt, môi trường sống</tspan>
            <tspan x="0" y="61" letter-spacing="0.03em">trong lành, nền giáo dục &amp; y tế phát triển nhất</tspan>
            <tspan x="0" y="97">nhì Châu Âu</tspan>
        </text>
        <g id="Group_35" data-name="Group 35" transform="translate(-2211.915)">
            <path id="Path_744" data-name="Path 744"
                  d="M2443.867,1803.612a21.438,21.438,0,1,1-21.438-21.438A21.438,21.438,0,0,1,2443.867,1803.612Z"
                  fill="#be1e2d"/>
            <g id="Group_34" data-name="Group 34">
                <path id="Path_745" data-name="Path 745"
                      d="M2423.73,1808.067a4.553,4.553,0,0,1-3.225-1.332l-5.928-5.93a2.776,2.776,0,0,1,3.927-3.926l5.227,5.226,16.11-16.11a2.777,2.777,0,0,1,3.927,3.927l-16.811,16.811A4.546,4.546,0,0,1,2423.73,1808.067Z"
                      fill="#fff"/>
            </g>
        </g>
    </g>
</svg>
