<svg xmlns="http://www.w3.org/2000/svg" width="275.449" height="124" viewBox="0 0 275.449 124">
    <g id="Group_129" data-name="Group 129" transform="translate(-717.876 -969.317)">
        <text id="_9.7_triệu_dân" data-name="~ 9.7 triệu dân" transform="translate(790.325 970.717)" fill="#595a5a"
              font-size="30" font-family="'Mulish-SemiBold', sans-serif" font-weight="500" letter-spacing="0.026em">
            <tspan x="0" y="25">~ 9.7 triệu dân</tspan>
        </text>
        <g id="Group_25" data-name="Group 25" transform="translate(-2211.915)">
            <path id="Path_736" data-name="Path 736"
                  d="M2972.667,990.756a21.438,21.438,0,1,1-21.438-21.439A21.438,21.438,0,0,1,2972.667,990.756Z"
                  fill="#be1e2d"/>
            <g id="Group_24" data-name="Group 24">
                <path id="Path_737" data-name="Path 737"
                      d="M2952.53,995.211a4.554,4.554,0,0,1-3.225-1.333l-5.928-5.929a2.776,2.776,0,0,1,3.927-3.926l5.227,5.226,16.11-16.111a2.777,2.777,0,0,1,3.927,3.928l-16.811,16.811A4.551,4.551,0,0,1,2952.53,995.211Z"
                      fill="#fff"/>
            </g>
        </g>
    </g>
</svg>
