<svg xmlns="http://www.w3.org/2000/svg" xmlns:xlink="http://www.w3.org/1999/xlink" width="1083.805" height="420.463"
     viewBox="0 0 1083.805 420.463">
    <style>
        @font-face {
        font-family: 'Mulish-SemiBold';
        src: url("/fonts/Mulish-SemiBold.ttf");
        }
        @font-face {
        font-family: 'Mulish-ExtraBold';
        src: url("/fonts/Mulish-ExtraBold.ttf");
        }
        .text2 {
        font-family: Mulish-SemiBold, Mulish;
        }
    </style>
    <defs>
        <clipPath id="clip-path">
            <path id="Path_26" data-name="Path 26"
                  d="M172.849,1493.825a67.721,67.721,0,0,1-77.673,86.464q.48,147.18.961,294.359l1035.574-1.532q.766-189.646,1.532-379.291Z"
                  fill="none"/>
        </clipPath>
    </defs>
    <g id="Group_38" data-name="Group 38" transform="translate(-49.438 -1454.185)">
        <g id="Group_37" data-name="Group 37">
            <g id="Group_33" data-name="Group 33">
                <path id="Path_22" data-name="Path 22"
                      d="M160.607,1511.3a55.584,55.584,0,1,1-55.584-55.584,55.583,55.583,0,0,1,55.584,55.584"
                      fill="#e7c57e"/>
                <path id="Path_23" data-name="Path 23"
                      d="M103.034,1508.129a1.333,1.333,0,0,0,.833-1.235V1474.31a1.336,1.336,0,0,0-1.333-1.333,33.763,33.763,0,0,0-23.6,9.56,1.363,1.363,0,0,0-.406.937,1.346,1.346,0,0,0,.379.951l22.662,23.4a1.343,1.343,0,0,0,.961.406,1.305,1.305,0,0,0,.5-.1m-1.836-4.53-19.425-20.054a31.073,31.073,0,0,1,19.425-7.872Z"/>
                <path id="Path_24" data-name="Path 24"
                      d="M102.426,1513.861a1.331,1.331,0,0,0-.369-1.052l-22.665-23.4a1.336,1.336,0,0,0-.937-.406,1.367,1.367,0,0,0-.951.375,33.879,33.879,0,0,0-4.073,43.961,1.339,1.339,0,0,0,1.861.318l26.576-18.836a1.319,1.319,0,0,0,.558-.964M74.859,1530.7a31.22,31.22,0,0,1,3.562-38.451l20.636,21.3Z"/>
                <path id="Path_25" data-name="Path 25"
                      d="M142.555,1512.681c-.075-.555-.159-1.1-.257-1.648a34.137,34.137,0,0,0-.819-3.464c-.139-.49-.294-.971-.457-1.451-.355-1.035-.761-2.07-1.214-3.068-.2-.437-.4-.866-.616-1.3-.463-.927-.981-1.85-1.539-2.747-.244-.392-.49-.778-.748-1.157-.636-.93-1.322-1.843-2.046-2.709-.288-.345-.582-.687-.883-1.022-.667-.738-1.38-1.465-2.128-2.158-.328-.305-.663-.606-1-.9-.768-.663-1.577-1.3-2.392-1.888-.372-.27-.748-.531-1.127-.778-.889-.595-1.793-1.136-2.679-1.61-.413-.223-.832-.44-1.258-.646a33.029,33.029,0,0,0-3.346-1.417c-.47-.17-.944-.335-1.421-.484-1.106-.345-2.256-.643-3.41-.88-.534-.108-1.072-.2-1.613-.291a34.945,34.945,0,0,0-3.914-.368c-.46-.017-.921-.034-1.387-.034a1.979,1.979,0,0,0-1.979,1.979v31.559L80.58,1534.45a2.009,2.009,0,0,0-.812,1.292,1.973,1.973,0,0,0,.342,1.472l.128.172c.559.778,1.178,1.56,1.9,2.392.295.342.589.677.893,1,.667.717,1.394,1.431,2.165,2.121.335.3.677.6,1.022.883.954.792,1.837,1.462,2.713,2.054.318.216.643.416.971.619l.193.118c.9.558,1.816,1.076,2.747,1.546.426.21.852.42,1.282.612.944.427,1.952.823,3.082,1.208.477.163.957.318,1.441.457a33.7,33.7,0,0,0,3.461.832c.544.1,1.1.179,1.644.254a34.606,34.606,0,0,0,4.421.308l.129,0c.625,0,1.245-.02,1.857-.051a34.351,34.351,0,0,0,4.9-.619c.815-.162,1.637-.358,2.51-.6a34.157,34.157,0,0,0,7.188-2.906,34.58,34.58,0,0,0,16.837-21.119c.244-.887.443-1.7.6-2.51a35.506,35.506,0,0,0,.619-4.906c.027-.612.048-1.231.048-1.85v-.1a35.6,35.6,0,0,0-.308-4.452m-2.4,6.262a32.249,32.249,0,0,1-.572,4.523c-.146.737-.328,1.5-.555,2.317a31.865,31.865,0,0,1-22.171,22.168c-.809.227-1.567.409-2.314.558a32.055,32.055,0,0,1-4.523.569c-.569.03-1.134.054-1.709.047l-.094,0a31.663,31.663,0,0,1-4.107-.285c-.511-.067-1.018-.142-1.523-.23a32.1,32.1,0,0,1-3.19-.771c-.446-.129-.889-.274-1.329-.423-1.049-.355-1.976-.72-2.845-1.113-.4-.179-.8-.375-1.184-.565-.853-.433-1.7-.91-2.534-1.427l-.2-.122c-.3-.183-.593-.365-.88-.558-.795-.542-1.617-1.161-2.5-1.9-.318-.264-.636-.538-.943-.815-.714-.639-1.384-1.3-2-1.959-.281-.3-.555-.615-.822-.927-.541-.625-1.025-1.221-1.462-1.809l25.731-18.238a1.335,1.335,0,0,0,.561-1.089v-31.549c.2,0,.4.014.6.02a32,32,0,0,1,3.609.342q.751.117,1.492.267a31.784,31.784,0,0,1,3.143.812c.443.139.876.288,1.309.447a31.356,31.356,0,0,1,3.085,1.305c.393.19.782.39,1.167.6.812.436,1.644.937,2.47,1.488.352.227.693.467,1.035.714.758.545,1.5,1.133,2.212,1.746.312.27.623.548.927.829.69.642,1.35,1.312,1.962,1.992.281.308.552.623.819.944.667.8,1.3,1.641,1.891,2.507.237.348.464.707.687,1.062.511.825.988,1.678,1.417,2.534.2.392.386.788.569,1.194.419.923.795,1.874,1.119,2.831.149.44.291.883.423,1.34a31.917,31.917,0,0,1,.755,3.193c.091.5.172,1.012.24,1.519a32.638,32.638,0,0,1,.281,4.111l0,.091c0,.575-.02,1.147-.047,1.712"/>
            </g>
            <g id="Group_35" data-name="Group 35">
                <g id="Group_34" data-name="Group 34" clip-path="url(#clip-path)">
                    <rect id="Rectangle_12" data-name="Rectangle 12" width="1014.401" height="322.6"
                          transform="translate(104.734 1510.422)" fill="none" stroke="#e7c57e" stroke-miterlimit="10"
                          stroke-width="4"/>
                    <rect id="Rectangle_13" data-name="Rectangle 13" width="1014.401" height="322.6"
                          transform="translate(104.734 1510.422)" fill="#231f20" stroke="#e7c57e" stroke-miterlimit="10"
                          stroke-width="4" opacity="0.5"/>
                </g>
            </g>
            <text id="QUẢN_LÝ_VẬN_HÀNH_BĐS" data-name="QUẢN LÝ VẬN HÀNH BĐS" transform="translate(175.68 1454.185)"
                  fill="#e7c57e" font-size="34.302" font-family="Mulish-ExtraBold, Mulish" font-weight="800"
                  letter-spacing="0.028em">
                <tspan x="0" y="34">QUẢN LÝ VẬN HÀNH BĐS</tspan>
            </text>
            <g id="Group_36" data-name="Group 36">
                <text class="text2"
                    id="Hỗ_trợ_đóng_thuế_và_các_dịch_vụ_cần_thiết_liên_quan_đến_tài_sản_BĐS_Hỗi_trợ_quản_lý_cho_thuê_trọn_gói_sản_phẩm_Nhận_báo_cáo_dòng_tiền_kết_quả_kinh_doanh_cho_thuê_BĐS_định_kỳ_3_tháng_lần_"
                    data-name="Hỗ trợ đóng thuế và các dịch vụ cần thiết liên quan đến tài sản BĐS
Hỗi trợ quản lý cho thuê trọn gói sản phẩm
Nhận báo cáo dòng tiền &amp; kết quả kinh doanh cho thuê BĐS định kỳ 3 tháng/lần "
                    transform="translate(171.75 1557.905)" fill="#fff" font-size="36">
                    <tspan x="0" y="37" word-spacing="0.16em">Hỗ trợ đóng thuế và các dịch vụ cần thiết liên quan</tspan>
                    <tspan x="0" y="85">đến tài sản BĐS</tspan>
                    <tspan x="0" y="133">Hỗi trợ quản lý cho thuê trọn gói sản phẩm</tspan>
                    <tspan x="0" y="181" word-spacing="0.2em">Nhận báo cáo dòng tiền &amp; kết quả kinh doanh cho</tspan>
                    <tspan x="0" y="229">thuê BĐS định kỳ 3 tháng/lần</tspan>
                </text>
                <circle id="Ellipse_5" data-name="Ellipse 5" cx="6.86" cy="6.86" r="6.86"
                        transform="translate(140.996 1578.014)" fill="#e7c57e"/>
            </g>
        </g>
        <circle id="Ellipse_6" data-name="Ellipse 6" cx="6.86" cy="6.86" r="6.86"
                transform="translate(140.996 1674.525)" fill="#e7c57e"/>
        <circle id="Ellipse_7" data-name="Ellipse 7" cx="6.86" cy="6.86" r="6.86"
                transform="translate(140.996 1722.254)" fill="#e7c57e"/>
    </g>
</svg>
