<svg xmlns="http://www.w3.org/2000/svg" xmlns:xlink="http://www.w3.org/1999/xlink" width="642.638" height="225.13"
     viewBox="0 0 642.638 225.13">
    <style>
        @font-face {
        font-family: 'Mulish-SemiBold';
        src: url("/fonts/Mulish-SemiBold.ttf");
        }

<!--                text {-->
<!--                font-family: 'Mulish-SemiBold', sans-serif;-->
<!--                }-->
    </style>
    <defs>
        <clipPath id="clip-path">
            <path id="Path_53" data-name="Path 53"
                  d="M429.8,442.642a40.033,40.033,0,0,1-45.915,51.113v149.4H997.532V442.642Z" fill="none"/>
        </clipPath>
    </defs>
    <g id="Group_128" data-name="Group 128" transform="translate(-354.894 -418.025)">
        <g id="Group_124" data-name="Group 124">
            <path id="Path_48" data-name="Path 48"
                  d="M425.821,453.489a35.464,35.464,0,1,1-35.464-35.464,35.462,35.462,0,0,1,35.464,35.464"
                  fill="#e7c57e"/>
            <path id="Path_49" data-name="Path 49"
                  d="M372.587,449.038a.747.747,0,0,0-.216,1.475,35.5,35.5,0,0,0,7.557.88c10.788,0,16.373-6.173,20.342-12.729l2.4,1.441a.749.749,0,0,0,1.124-.765l-1.544-9.126a.75.75,0,0,0-1.03-.564l-8.169,3.464a.75.75,0,0,0-.036,1.362l2.462,1.2c-6.569,14.465-22.216,13.414-22.89,13.361m24.552-13.428a.748.748,0,0,0-.36-.963l-1.632-.8,5.786-2.456,1.113,6.591L400.4,437a.759.759,0,0,0-.571-.082.749.749,0,0,0-.459.346c-4,6.8-9.247,12.854-19.932,12.64,5.769-1.227,13.655-4.69,17.7-14.29"/>
            <path id="Path_50" data-name="Path 50"
                  d="M374.988,458.578c-1.444,0-2.574,1.411-2.574,3.21v5.623c0,1.8,1.13,3.211,2.574,3.211h3.521c1.443,0,2.574-1.409,2.574-3.211v-5.623c0-1.8-1.131-3.21-2.574-3.21Zm4.6,3.21v5.623c0,.914-.5,1.716-1.079,1.716h-3.521c-.573,0-1.079-.8-1.079-1.716v-5.623c0-.913.506-1.713,1.079-1.713h3.521c.575,0,1.079.8,1.079,1.713"/>
            <path id="Path_51" data-name="Path 51"
                  d="M385.629,453.3c-1.443,0-2.573,1.411-2.573,3.21v10.9c0,1.8,1.13,3.211,2.573,3.211h3.522c1.443,0,2.573-1.409,2.573-3.211v-10.9c0-1.8-1.13-3.21-2.573-3.21Zm4.6,3.21v10.9c0,.914-.5,1.714-1.078,1.714h-3.522c-.572,0-1.076-.8-1.076-1.714v-10.9c0-.913.5-1.713,1.076-1.713h3.522c.574,0,1.078.8,1.078,1.713"/>
            <path id="Path_52" data-name="Path 52"
                  d="M400.842,446.976h-3.521c-1.444,0-2.574,1.411-2.574,3.211v17.225c0,1.8,1.13,3.211,2.574,3.211h3.521c1.444,0,2.574-1.411,2.574-3.211V450.187c0-1.8-1.13-3.211-2.574-3.211m1.079,20.436c0,.914-.5,1.714-1.079,1.714h-3.521c-.573,0-1.079-.8-1.079-1.714V450.187c0-.914.506-1.714,1.079-1.714h3.521c.575,0,1.079.8,1.079,1.714Z"/>
        </g>
        <g id="Group_126" data-name="Group 126">
            <g id="Group_125" data-name="Group 125" clip-path="url(#clip-path)">
                <rect id="Rectangle_46" data-name="Rectangle 46" width="601.988" height="173.198"
                      transform="translate(389.949 453.164)" fill="none" stroke="#e7c57e" stroke-miterlimit="10"
                      stroke-width="4"/>
                <rect id="Rectangle_47" data-name="Rectangle 47" width="601.988" height="173.198"
                      transform="translate(389.949 453.164)" fill="#231f20" stroke="#e7c57e" stroke-miterlimit="10"
                      stroke-width="4" opacity="0.5"/>
            </g>
        </g>
        <text id="ĐẦU_TƯ_BẤT_ĐỘNG_SẢN" data-name="ĐẦU TƯ BẤT ĐỘNG SẢN" transform="translate(431.258 422.082)"
              fill="#e7c57e" font-size="22" font-family="Mulish-ExtraBold, Mulish" font-weight="800"
              letter-spacing="0.028em">
            <tspan x="0" y="22">ĐẦU TƯ BẤT ĐỘNG SẢN</tspan>
        </text>
        <g id="Group_127" data-name="Group 127">
            <text
                id="Nhà_đầu_tư_có_thể_chọn_mua_bất_động_sản_trực_tuyến_tại_Việt_Nam_Công_ty_sẽ_đồng_hành_và_hướng_dẫn_tận_tình_nếu_Nhà_đầu_tư_có_nhu_cầu_trực_tiếp_tới_Hungary_Mọi_thủ_tục_pháp_lý_sẽ_có_luật_sư_ủy_quyền_hoàn_thiện"
                data-name="Nhà đầu tư có thể chọn mua bất động sản trực tuyến tại Việt Nam
Công ty sẽ đồng hành và hướng dẫn tận tình nếu Nhà đầu tư
có nhu cầu trực tiếp tới Hungary
Mọi thủ tục pháp lý sẽ có luật sư ủy quyền hoàn thiện" transform="translate(448.469 485.834)" fill="#fff" font-size="16"
                font-family="Mulish-SemiBold, Mulish" letter-spacing="0.025em">
                <tspan x="0" y="17">Nhà đầu tư có thể chọn mua bất động sản trực tuyến tại Việt Nam</tspan>
                <tspan x="0" y="42" word-spacing="0.18em">Công ty sẽ đồng hành và hướng dẫn tận tình nếu Nhà đầu tư</tspan>
                <tspan x="0" y="67">có nhu cầu trực tiếp tới Hungary</tspan>
                <tspan x="0" y="92">Mọi thủ tục pháp lý sẽ có luật sư ủy quyền hoàn thiện</tspan>
            </text>
            <circle id="Ellipse_33" data-name="Ellipse 33" cx="4" cy="4" r="4" transform="translate(429.258 494.527)"
                    fill="#e7c57e"/>
            <circle id="Ellipse_34" data-name="Ellipse 34" cx="4" cy="4" r="4" transform="translate(429.258 519.612)"
                    fill="#e7c57e"/>
            <circle id="Ellipse_35" data-name="Ellipse 35" cx="4" cy="4" r="4" transform="translate(429.258 569.442)"
                    fill="#e7c57e"/>
        </g>
    </g>
</svg>
