<svg xmlns="http://www.w3.org/2000/svg" width="247.024" height="74" viewBox="0 0 247.024 74">
  <g id="Group_110" data-name="Group 110" transform="translate(-354.894 -1057.872)">
    <text id="Thu_hút_62_triệu_lượt_khách_du_lịch_năm" data-name="Thu hút 62 triệu lượt
khách du lịch/năm" transform="translate(400.918 1057.872)" fill="#595a5a" font-size="18.243" font-family="Mulish, sans-serif" font-weight="500" letter-spacing="0.025em"><tspan x="0" y="18">Thu hút 62 triệu lượt</tspan><tspan x="0" y="46.504">khách du lịch/năm</tspan></text>
    <g id="Group_80" data-name="Group 80">
      <path id="Path_1482" data-name="Path 1482" d="M384.239,1077.118a14.673,14.673,0,1,1-14.673-14.673A14.672,14.672,0,0,1,384.239,1077.118Z" fill="#be1e2d"/>
      <g id="Group_79" data-name="Group 79">
        <path id="Path_1483" data-name="Path 1483" d="M370.457,1080.167a3.12,3.12,0,0,1-2.208-.912l-4.057-4.059a1.9,1.9,0,0,1,2.688-2.687l3.577,3.577,11.026-11.026a1.9,1.9,0,0,1,2.688,2.688l-11.506,11.506A3.114,3.114,0,0,1,370.457,1080.167Z" fill="#fff"/>
      </g>
    </g>
  </g>
</svg>
