<svg xmlns="http://www.w3.org/2000/svg" xmlns:xlink="http://www.w3.org/1999/xlink" width="1139.412" height="377.627"
     viewBox="0 0 1139.412 377.627">
    <style>
        @font-face {
        font-family: 'Mulish-SemiBold';
        src: url("/fonts/Mulish-SemiBold.ttf");
        }

        text {
        font-family: 'Mulish-SemiBold', sans-serif;
        }
    </style>
    <defs>
        <clipPath id="clip-path">
            <path id="Path_47" data-name="Path 47"
                  d="M1514.025,829.714a67.648,67.648,0,0,1-77.591,86.373v252.466H2473.4V829.714Z" fill="none"/>
        </clipPath>
    </defs>
    <g id="Group_67" data-name="Group 67" transform="translate(-1390.745 -790.926)">
        <g id="Group_61" data-name="Group 61">
            <path id="Path_42" data-name="Path 42"
                  d="M1502.506,846.806a55.88,55.88,0,1,1-55.88-55.88,55.878,55.878,0,0,1,55.88,55.88" fill="#e7c57e"/>
            <g id="Group_60" data-name="Group 60">
                <path id="Path_43" data-name="Path 43"
                      d="M1476.14,871.692a6.045,6.045,0,0,0,6.039-6.019l.112-33.377a6.055,6.055,0,0,0-6.022-6.059l-54.83-.179h-.02a6.047,6.047,0,0,0-6.042,6.018l-.108,33.378a6.038,6.038,0,0,0,6.018,6.059l54.833.179Zm-52.585-2.687h-2.122v-.037h-.139a3.494,3.494,0,0,1-3.484-3.5l.111-33.378a3.5,3.5,0,0,1,3.5-3.484h.01l54.833.179a3.5,3.5,0,0,1,3.484,3.508l-.111,33.378a3.5,3.5,0,0,1-3.495,3.484h-.013l-52.572-.173Z"/>
                <path id="Path_44" data-name="Path 44"
                      d="M1473.034,831.35h-12.713a.634.634,0,0,0-.636.635v16.89a.635.635,0,0,0,.636.635h12.713a.635.635,0,0,0,.635-.635v-16.89a.634.634,0,0,0-.635-.635m-.636,16.889h-11.442V832.62H1472.4Z"/>
                <path id="Path_45" data-name="Path 45"
                      d="M1425.677,854.31h19.7a1.271,1.271,0,0,0,0-2.542h-19.7a1.271,1.271,0,0,0,0,2.542"/>
                <path id="Path_46" data-name="Path 46"
                      d="M1454.6,859.077h-28.924a1.27,1.27,0,0,0,0,2.541H1454.6a1.27,1.27,0,0,0,0-2.541"/>
            </g>
        </g>
        <g id="Group_63" data-name="Group 63">
            <g id="Group_62" data-name="Group 62" clip-path="url(#clip-path)">
                <rect id="Rectangle_21" data-name="Rectangle 21" width="1013.326" height="257.138"
                      transform="translate(1445.982 846.294)" fill="none" stroke="#e7c57e" stroke-miterlimit="10"
                      stroke-width="4"/>
                <rect id="Rectangle_22" data-name="Rectangle 22" width="1013.326" height="257.138"
                      transform="translate(1445.982 846.294)" fill="#231f20" stroke="#e7c57e" stroke-miterlimit="10"
                      stroke-width="4" opacity="0.5"/>
            </g>
        </g>
        <text id="THỜI_GIAN_NHẬN_THẺ" data-name="THỜI GIAN NHẬN THẺ" transform="translate(1515.157 792.046)"
              fill="#e7c57e" font-size="39.031" font-family="Mulish-ExtraBold, Mulish" font-weight="800"
              letter-spacing="0.028em">
            <tspan x="0" y="39">THỜI GIAN NHẬN THẺ</tspan>
        </text>
        <g id="Group_66" data-name="Group 66">
            <g id="Group_65" data-name="Group 65">
                <g id="Group_64" data-name="Group 64">
                    <text
                        id="_03_THÁNG_KHÁCH_HÀNG_SẼ_ĐƯỢC_CẤP_THẺ_TẠM_TRƯỚC_KHI_NHẬN_THẺ_CHÍNH_THẺ_TẠM_CÓ_QUYỀN_TƯƠNG_ĐƯƠNG_THẺ_CHÍNH_"
                        data-name="03 THÁNG (KHÁCH HÀNG SẼ ĐƯỢC CẤP
THẺ TẠM TRƯỚC KHI NHẬN THẺ CHÍNH,
THẺ TẠM CÓ QUYỀN TƯƠNG ĐƯƠNG THẺ CHÍNH)" transform="translate(1445.116 894.508)" fill="#e7c57e" font-size="31"
                        font-weight="800" letter-spacing="0.05em">
                        <tspan x="110.854" y="31" font-size="45">03 </tspan>
                        <tspan y="31" font-size="31">THÁNG </tspan>
                        <tspan y="31" xml:space="preserve" fill="#fff">(KHÁCH HÀNG SẼ ĐƯỢC CẤP </tspan>
                        <tspan fill="#fff">
                            <tspan x="174.869" y="87.873">THẺ TẠM TRƯỚC KHI NHẬN THẺ CHÍNH,</tspan>
                            <tspan x="99.772" y="144.747">THẺ TẠM CÓ QUYỀN TƯƠNG ĐƯƠNG THẺ CHÍNH)</tspan>
                        </tspan>
                    </text>
                </g>
            </g>
        </g>
    </g>
</svg>
