<svg xmlns="http://www.w3.org/2000/svg" width="290.449" height="124" viewBox="0 0 290.449 124">
    <style>
        @font-face {
        font-family: 'Mulish-SemiBold';
        src: url("/fonts/Mulish-SemiBold.ttf");
        }

        text {
        font-family: 'Mulish-SemiBold', sans-serif;
        }
    </style>
    <g id="Group_127" data-name="Group 127" transform="translate(-717.876 -855.034)">
        <g id="Group_21" data-name="Group 21" transform="translate(-2211.915)">
            <path id="Path_732" data-name="Path 732"
                  d="M2972.667,883.073a21.438,21.438,0,1,1-21.438-21.438A21.438,21.438,0,0,1,2972.667,883.073Z"
                  fill="#be1e2d"/>
            <g id="Group_20" data-name="Group 20">
                <path id="Path_733" data-name="Path 733"
                      d="M2952.53,887.528a4.557,4.557,0,0,1-3.225-1.332l-5.928-5.93a2.776,2.776,0,0,1,3.927-3.926l5.227,5.226,16.11-16.11a2.777,2.777,0,0,1,3.927,3.927l-16.811,16.811A4.55,4.55,0,0,1,2952.53,887.528Z"
                      fill="#fff"/>
            </g>
        </g>
        <text id="Tiếng_Hungary_Tiếng_Anh" data-name="Tiếng Hungary
Tiếng Anh" transform="translate(790.325 855.034)" fill="#595a5a" font-size="30"
              font-weight="500" letter-spacing="0.026em">
            <tspan x="0" y="25">Tiếng Hungary</tspan>
            <tspan x="0" y="61">Tiếng Anh</tspan>
        </text>
    </g>
</svg>
