<svg xmlns="http://www.w3.org/2000/svg" width="582.991" height="116" viewBox="0 0 550.991 116">
    <g id="Group_122" data-name="Group 122" transform="translate(-1020.079 -1709.293)">
        <g id="Group_94" data-name="Group 94">
            <path id="Path_1496" data-name="Path 1496"
                  d="M1049.424,1725.918a14.672,14.672,0,1,1-14.673-14.673A14.672,14.672,0,0,1,1049.424,1725.918Z"
                  fill="#be1e2d"/>
            <g id="Group_93" data-name="Group 93">
                <path id="Path_1497" data-name="Path 1497"
                      d="M1035.642,1728.967a3.117,3.117,0,0,1-2.208-.912l-4.057-4.058a1.9,1.9,0,0,1,2.688-2.688l3.577,3.578,11.026-11.027a1.9,1.9,0,0,1,2.688,2.688l-11.506,11.506A3.11,3.11,0,0,1,1035.642,1728.967Z"
                      fill="#fff"/>
            </g>
        </g>
        <text id="Top_4_hộ_chiếu_quyền_lực_nhất_thế_giới_cho_phép_du_lịch_dễ_dàng_tới_hơn_50_quốc_gia"
              data-name="Top 4 hộ chiếu quyền lực nhất thế giới cho phép du lịch dễ dàng tới hơn 50 quốc gia"
              transform="translate(1070.07 1709.293)" fill="#595a5a" font-size="18.243"
              font-family="Mulish, sans-serif" font-weight="500">
            <tspan x="0" y="18" letter-spacing="0.06em">Top 4 hộ chiếu quyền lực nhất thế giới cho phép du</tspan>
            <tspan x="0" y="46.504">lịch dễ dàng tới hơn 50 quốc gia</tspan>
        </text>
    </g>
</svg>
