<svg xmlns="http://www.w3.org/2000/svg" width="390.951" height="102" viewBox="0 0 390.951 102">
    <g id="Group_124" data-name="Group 124" transform="translate(-189.644 -747.351)">
        <text id="Thu_hút_62_triệu_lượt_khách_du_lịch_năm" data-name="Thu hút 62 triệu lượt
khách du lịch/năm" transform="translate(273.595 747.351)" fill="#595a5a" font-size="30"
              font-family="'Mulish-SemiBold', sans-serif" font-weight="500" letter-spacing="0.026em">
            <tspan x="0" y="25">Thu hút 62 triệu lượt</tspan>
            <tspan x="0" y="61">khách du lịch/năm</tspan>
        </text>
        <g id="Group_15" data-name="Group 15" transform="translate(-2211.915)">
            <path id="Path_726" data-name="Path 726"
                  d="M2444.435,775.39A21.438,21.438,0,1,1,2423,753.952,21.438,21.438,0,0,1,2444.435,775.39Z"
                  fill="#be1e2d"/>
            <g id="Group_14" data-name="Group 14">
                <path id="Path_727" data-name="Path 727"
                      d="M2424.3,779.845a4.553,4.553,0,0,1-3.225-1.332l-5.928-5.93a2.776,2.776,0,0,1,3.927-3.926l5.227,5.226,16.11-16.11a2.777,2.777,0,0,1,3.927,3.927l-16.811,16.811A4.545,4.545,0,0,1,2424.3,779.845Z"
                      fill="#fff"/>
            </g>
        </g>
    </g>
</svg>
