<svg xmlns="http://www.w3.org/2000/svg" width="775.951" height="70.622" viewBox="0 0 775.951 70.622">
    <g id="Group_135" data-name="Group 135" transform="translate(-189.076 -1888.035)">
        <text id="Thuế_doanh_nghiệp_chỉ_9_-_thấp_nhất_khối_EU" data-name="Thuế doanh nghiệp chỉ 9% - thấp nhất khối EU"
              transform="translate(273.028 1895.657)" fill="#595a5a" font-size="29"
              font-family="Mulish, sans-serif" font-weight="500" letter-spacing="0.026em">
            <tspan x="0" y="25">Thuế doanh nghiệp chỉ 9% - thấp nhất khối EU</tspan>
        </text>
        <g id="Group_37" data-name="Group 37" transform="translate(-2211.915)">
            <path id="Path_746" data-name="Path 746"
                  d="M2443.867,1909.473a21.438,21.438,0,1,1-21.438-21.438A21.438,21.438,0,0,1,2443.867,1909.473Z"
                  fill="#be1e2d"/>
            <g id="Group_36" data-name="Group 36">
                <path id="Path_747" data-name="Path 747"
                      d="M2423.73,1913.929a4.554,4.554,0,0,1-3.225-1.333l-5.928-5.93a2.776,2.776,0,0,1,3.927-3.926l5.227,5.227,16.11-16.111a2.777,2.777,0,0,1,3.927,3.927l-16.811,16.812A4.55,4.55,0,0,1,2423.73,1913.929Z"
                      fill="#fff"/>
            </g>
        </g>
    </g>
</svg>
