<svg xmlns="http://www.w3.org/2000/svg" xmlns:xlink="http://www.w3.org/1999/xlink" width="1605.657" height="225.455"
     viewBox="0 0 1605.657 225.455">
    <defs>
        <clipPath id="clip-path">
            <path id="Path_6" data-name="Path 6"
                  d="M3514.367,389.769a40.03,40.03,0,0,1-45.915,51.112v149.4h613.642V389.769Z" fill="none"/>
        </clipPath>
        <clipPath id="clip-path-2">
            <path id="Path_11" data-name="Path 11"
                  d="M4039.316,389.769a40.03,40.03,0,0,1-45.916,51.112v149.4h613.643V389.769Z" fill="none"/>
        </clipPath>
        <clipPath id="clip-path-3">
            <path id="Path_15" data-name="Path 15"
                  d="M3076.3,389.769a40.03,40.03,0,0,1-45.915,51.112v149.4h613.642V389.769Z" fill="none"/>
        </clipPath>
    </defs>
    <g id="Group_70" data-name="Group 70" transform="translate(-277.49 -364.827)">
        <g id="Group_6" data-name="Group 6" transform="translate(-2723.896)">
            <g id="Group_2" data-name="Group 2">
                <g id="Group_1" data-name="Group 1">
                    <path id="Path_1" data-name="Path 1"
                          d="M3510.383,400.291a35.464,35.464,0,1,1-35.463-35.464,35.462,35.462,0,0,1,35.463,35.464"
                          fill="#e7c57e"/>
                    <path id="Path_2" data-name="Path 2"
                          d="M3493.225,416.086a3.836,3.836,0,0,0,3.832-3.82l.071-21.182a3.842,3.842,0,0,0-3.821-3.846l-34.8-.113h-.013a3.838,3.838,0,0,0-3.835,3.819l-.068,21.183a3.833,3.833,0,0,0,3.819,3.845l34.8.114Zm-33.373-1.7h-1.346v-.024h-.088a2.218,2.218,0,0,1-2.211-2.224l.07-21.182a2.22,2.22,0,0,1,2.22-2.211h.006l34.8.113a2.222,2.222,0,0,1,2.211,2.226l-.07,21.183a2.22,2.22,0,0,1-2.218,2.211h-.009l-33.364-.109Z"/>
                    <path id="Path_3" data-name="Path 3"
                          d="M3491.253,390.483h-8.068a.4.4,0,0,0-.4.4v10.719a.4.4,0,0,0,.4.4h8.068a.4.4,0,0,0,.4-.4V390.886a.4.4,0,0,0-.4-.4m-.4,10.719h-7.261V391.29h7.261Z"/>
                    <path id="Path_4" data-name="Path 4"
                          d="M3461.2,405.054h12.506a.806.806,0,0,0,0-1.612H3461.2a.806.806,0,0,0,0,1.612"/>
                    <path id="Path_5" data-name="Path 5"
                          d="M3479.554,408.08H3461.2a.807.807,0,0,0,0,1.613h18.356a.807.807,0,0,0,0-1.613"/>
                </g>
            </g>
            <g id="Group_4" data-name="Group 4">
                <g id="Group_3" data-name="Group 3" clip-path="url(#clip-path)">
                    <rect id="Rectangle_3" data-name="Rectangle 3" width="475.619" height="173.198"
                          transform="translate(3474.511 400.291)" fill="none" stroke="#e7c57e" stroke-miterlimit="10"
                          stroke-width="4"/>
                    <rect id="Rectangle_4" data-name="Rectangle 4" width="475.619" height="173.198"
                          transform="translate(3474.511 400.291)" fill="#231f20" stroke="#e7c57e" stroke-miterlimit="10"
                          stroke-width="4" opacity="0.5"/>
                </g>
            </g>
            <text id="THỜI_GIAN_NHẬN_THẺ" data-name="THỜI GIAN NHẬN THẺ" transform="translate(3517.511 367.367)"
                  fill="#e7c57e" font-size="19" font-family="Mulish-ExtraBold, Mulish" font-weight="800"
                  letter-spacing="0.028em">
                <tspan x="0" y="19">THỜI GIAN NHẬN THẺ</tspan>
            </text>
            <g id="Group_5" data-name="Group 5">
                <text
                    id="_03_THÁNG_KHÁCH_HÀNG_SẼ_ĐƯỢC_CẤP_THẺ_TẠM_TRƯỚC_KHI_NHẬN_THẺ_CHÍNH_THẺ_TẠM_CÓ_QUYỀN_TƯƠNG_ĐƯƠNG_THẺ_CHÍNH_"
                    data-name="03 THÁNG (KHÁCH HÀNG SẼ ĐƯỢC CẤP
THẺ TẠM TRƯỚC KHI NHẬN THẺ CHÍNH,
THẺ TẠM CÓ QUYỀN TƯƠNG ĐƯƠNG THẺ CHÍNH)" transform="translate(3474.511 444.236)" fill="#e7c57e" font-size="16"
                    font-family="Mulish-ExtraBold, Mulish" font-weight="800" letter-spacing="0.025em">
                    <tspan x="52" y="16" font-size="25">03 </tspan>
                    <tspan y="16" font-size="16">THÁNG</tspan>
                    <tspan y="16" xml:space="preserve" fill="#fff"> (KHÁCH HÀNG SẼ ĐƯỢC CẤP </tspan>
                    <tspan fill="#fff">
                        <tspan x="72.738" y="44">THẺ TẠM TRƯỚC KHI NHẬN THẺ CHÍNH,</tspan>
                        <tspan x="35.178" y="72">THẺ TẠM CÓ QUYỀN TƯƠNG ĐƯƠNG THẺ CHÍNH)</tspan>
                    </tspan>
                </text>
            </g>
        </g>
        <g id="Group_15" data-name="Group 15" transform="translate(-2723.896)">
            <g id="Group_9" data-name="Group 9">
                <g id="Group_8" data-name="Group 8">
                    <path id="Path_7" data-name="Path 7"
                          d="M4035.331,400.291a35.464,35.464,0,1,1-35.463-35.464,35.461,35.461,0,0,1,35.463,35.464"
                          fill="#e7c57e"/>
                    <g id="Group_7" data-name="Group 7">
                        <path id="Path_8" data-name="Path 8"
                              d="M4021.141,402.6c-.552-.193-1.11-.372-1.67-.541a.943.943,0,0,1-.67-.659,11.961,11.961,0,0,0-2.6-4.4.642.642,0,0,1-.123-.481,14.1,14.1,0,0,0,.185-4.737c-.171-1.082-.679-1.667-1.511-1.7a4.914,4.914,0,0,0-1.189.118,21.269,21.269,0,0,0-5.095,1.871,2.517,2.517,0,0,1-1.858-.041,3.284,3.284,0,0,0,.16-.433c.2-.917.417-1.832.565-2.758a.8.8,0,0,0-.339-.614.657.657,0,0,0-.622.044,1.064,1.064,0,0,0-.308.658,7.362,7.362,0,0,1-4.6,6.367,1.324,1.324,0,0,1-.538.077c-1.256-.021-2.513-.054-3.769-.08a3.609,3.609,0,0,1-1.672-.114,7.419,7.419,0,0,1-4.2-7.995,7.442,7.442,0,0,1,12.671-3.951,12.411,12.411,0,0,1,1.309,1.794c.254.368.575.492.906.306a.658.658,0,0,0,.228-.932c-.024-.052-.054-.1-.081-.151a8.748,8.748,0,1,0-12.751,11.3c.107.075.209.158.354.268-.419.132-.776.231-1.122.356a.544.544,0,0,0-.4.706,1.236,1.236,0,0,0,.531.528c.1.061.3-.018.451-.065a17.008,17.008,0,0,1,10.505.007c.5.158.849.009.97-.4.114-.383-.084-.678-.577-.842-.3-.1-.6-.191-.966-.308a9.155,9.155,0,0,0,2.5-2.4.346.346,0,0,1,.268-.138c.333.056.662.147.984.224a.805.805,0,0,1,.016.165c-.012.1-.032.2-.048.3a7.873,7.873,0,0,0,0,3.029,4.951,4.951,0,0,0,5.206,3.886,3.211,3.211,0,0,0,3.15-2.157c.051-.127.115-.249.214-.463a2.735,2.735,0,0,0,.147.235,9.9,9.9,0,0,1,1.787,3.252,2.237,2.237,0,0,0,1.638,1.592c.482.134.953.3,1.426.462a1.16,1.16,0,0,1,.911,1.278q0,1.33,0,2.663A1.16,1.16,0,0,1,4020.6,409q-1.3.429-2.61.837a2.121,2.121,0,0,0-1.269.959,12.428,12.428,0,0,1-5.03,4.673,1.635,1.635,0,0,0-.917,1.287c-.239,1.423-.528,2.837-.782,4.258a.532.532,0,0,1-.636.512c-.829-.028-1.66-.02-2.491,0a.47.47,0,0,1-.556-.445c-.135-.774-.289-1.544-.433-2.317a1.065,1.065,0,0,0-1.358-1,27.873,27.873,0,0,1-6.594.141,1.061,1.061,0,0,0-1.319,1c-.138.744-.293,1.486-.421,2.232a.4.4,0,0,1-.465.385q-1.353-.008-2.707,0a.412.412,0,0,1-.461-.395c-.251-1.334-.542-2.66-.756-4a1.791,1.791,0,0,0-1-1.43,10.558,10.558,0,0,1-3.8-3.355,12.568,12.568,0,0,1-1.434-11.13,10.484,10.484,0,0,1,4.957-6.073.669.669,0,0,0,.321-.969.653.653,0,0,0-.976-.146,12.093,12.093,0,0,0-6,8.618,4.041,4.041,0,0,1-.121.41.646.646,0,0,1-.141-.377,2.877,2.877,0,0,0-1.767-2.493,1.813,1.813,0,0,0-2.336,1.042,1.563,1.563,0,0,0,.687,2.2,9.422,9.422,0,0,0,1.3.549c.135.056.281.085.454.136a3.151,3.151,0,0,1-2.327,1.39.969.969,0,0,0-.813.465v.516c.438.551,1.013.429,1.567.291a4.715,4.715,0,0,0,2.813-2.178,1.71,1.71,0,0,1,.357-.3,1.259,1.259,0,0,1,.089.525,15.064,15.064,0,0,0,.376,3.961,12.3,12.3,0,0,0,6.06,8.01.794.794,0,0,1,.452.61c.232,1.336.5,2.665.761,4A1.609,1.609,0,0,0,3993,422.8q1.355,0,2.708,0a1.594,1.594,0,0,0,1.754-1.457c.138-.711.278-1.421.418-2.137.754.044,1.468.134,2.179.115,1.329-.032,2.656-.115,3.984-.2.382-.026.636-.053.685.459a15.712,15.712,0,0,0,.367,1.936,1.555,1.555,0,0,0,1.633,1.288c.945,0,1.891.005,2.836,0a1.552,1.552,0,0,0,1.641-1.33c.292-1.457.574-2.915.834-4.377a.694.694,0,0,1,.4-.549,13.978,13.978,0,0,0,5.366-5.01,1.119,1.119,0,0,1,.55-.427c.929-.329,1.875-.606,2.806-.928a2.354,2.354,0,0,0,1.649-2.312q0-1.461,0-2.921A2.36,2.36,0,0,0,4021.141,402.6Zm-6.883-4.519a2.105,2.105,0,0,1-2.19,1.489,3.669,3.669,0,0,1-3.863-3.723,10.911,10.911,0,0,1,.176-1.915.9.9,0,0,1,.422-.591,22.38,22.38,0,0,1,5.424-1.945c.54-.1.648-.039.736.491s.114,1.05.14,1.314A14.466,14.466,0,0,1,4014.258,398.084Zm-33.307,4.3c-.268-.115-.455-.3-.252-.641.222-.367.48-.474.811-.307a1.872,1.872,0,0,1,.819,1.45C3981.817,402.7,3981.374,402.565,3980.951,402.384Z"/>
                        <path id="Path_9" data-name="Path 9"
                              d="M3999.9,387.943c-.142-.068-.3-.111-.43-.192-.085-.051-.2-.148-.2-.226-.015-.7-.009-1.394-.009-2.193.405.15.737.266,1.063.395a.492.492,0,0,0,.75-.361.53.53,0,0,0-.386-.7c-.454-.157-.925-.26-1.39-.385-.085-.209-.248-.46-.393-.45s-.29.271-.434.423l.055.113c-.151.036-.3.066-.454.105a1.976,1.976,0,0,0-1.63,1.762,1.956,1.956,0,0,0,1.237,2.1c.217.107.455.174.668.286.095.05.22.166.223.254.017.811.01,1.621.01,2.439a2.114,2.114,0,0,1-1.389-.606c-.216-.182-.442-.365-.712-.11a.6.6,0,0,0-.1.883,3.522,3.522,0,0,0,1.026.733,6.007,6.007,0,0,0,1.147.294c-.026.025-.054.05-.08.076.141.159.268.434.426.454.427.052.341-.348.381-.605.06-.018.1-.032.138-.041a2.16,2.16,0,0,0,1.892-1.985A2.25,2.25,0,0,0,3999.9,387.943Zm-1.26-.539c-.763-.194-1.092-.564-1.042-1.135.041-.483.373-.746,1.042-.815Zm.555,3.851v-2.214a1.1,1.1,0,0,1,.968,1.143A.986.986,0,0,1,3999.2,391.255Z"/>
                        <path id="Path_10" data-name="Path 10"
                              d="M4015.757,403.271a2.1,2.1,0,0,1-4.2-.059.657.657,0,0,1,.588-.714.627.627,0,0,1,.7.594c.1.568.353.824.806.83s.724-.257.828-.846a.632.632,0,0,1,.715-.575C4015.564,402.543,4015.771,402.827,4015.757,403.271Z"/>
                    </g>
                </g>
            </g>
            <g id="Group_11" data-name="Group 11">
                <g id="Group_10" data-name="Group 10" clip-path="url(#clip-path-2)">
                    <rect id="Rectangle_5" data-name="Rectangle 5" width="345.664" height="173.198"
                          transform="translate(3999.459 400.291)" fill="none" stroke="#e7c57e" stroke-miterlimit="10"
                          stroke-width="4"/>
                    <rect id="Rectangle_6" data-name="Rectangle 6" width="345.664" height="173.198"
                          transform="translate(3999.459 400.291)" fill="#231f20" stroke="#e7c57e" stroke-miterlimit="10"
                          stroke-width="4" opacity="0.5"/>
                </g>
            </g>
            <text id="CHỨNG_MINH_SỐ_DƯ_TKNH" data-name="CHỨNG MINH SỐ DƯ TKNH" transform="translate(4042.459 367.368)"
                  fill="#e7c57e" font-size="19" font-family="Mulish-ExtraBold, Mulish" font-weight="800"
                  letter-spacing="0.028em">
                <tspan x="0" y="19">CHỨNG MINH SỐ DƯ TKNH</tspan>
            </text>
            <g id="Group_14" data-name="Group 14">
                <g id="Group_13" data-name="Group 13">
                    <g id="Group_12" data-name="Group 12">
                        <text id="TÀI_KHOẢN_NH_VIỆT_NAM:_400.000_EUR_KHOẢNG_10_TỶ_VNĐ_" data-name="TÀI KHOẢN NH VIỆT NAM:
400.000 EUR
(KHOẢNG 10 TỶ VNĐ)" transform="translate(4000.629 441.236)" fill="#fff" font-size="16"
                              font-family="Mulish-ExtraBold, Mulish" font-weight="800" letter-spacing="0.025em">
                            <tspan x="64.431" y="16">TÀI KHOẢN NH VIỆT NAM:</tspan>
                            <tspan fill="#e7c57e" font-size="29">
                                <tspan x="94.46" y="44">400.000</tspan>
                                <tspan y="44" xml:space="preserve" font-size="16">EUR</tspan>
                            </tspan>
                            <tspan x="82.031" y="72">(KHOẢNG 10 TỶ VNĐ)</tspan>
                        </text>
                    </g>
                </g>
            </g>
        </g>
        <g id="Group_24" data-name="Group 24" transform="translate(-2723.896)">
            <g id="Group_18" data-name="Group 18">
                <g id="Group_17" data-name="Group 17">
                    <path id="Path_12" data-name="Path 12"
                          d="M3072.313,400.291a35.464,35.464,0,1,1-35.463-35.464,35.461,35.461,0,0,1,35.463,35.464"
                          fill="#e7c57e"/>
                    <g id="Group_16" data-name="Group 16">
                        <path id="Path_13" data-name="Path 13"
                              d="M3042.367,403.528a3.029,3.029,0,0,0-.335-1.231,4.218,4.218,0,0,0-1.845-1.772,16.438,16.438,0,0,0-6.836-1.82,22.793,22.793,0,0,0-4.323.055,16.866,16.866,0,0,0-5.623,1.437,4.612,4.612,0,0,0-2.813,2.957v8.791a3.816,3.816,0,0,0,.711,1.418,6.992,6.992,0,0,0,2.981,1.918,19.208,19.208,0,0,0,5.669,1.131,22.064,22.064,0,0,0,8.03-.883,8.283,8.283,0,0,0,3.344-1.8,2.946,2.946,0,0,0,1.053-2.159C3042.385,408.89,3042.4,406.209,3042.367,403.528Zm-19.344-.739a6.534,6.534,0,0,1,2.668-1.37,20.33,20.33,0,0,1,7-.761,17.709,17.709,0,0,1,5.171.952,5.788,5.788,0,0,1,2.086,1.17.949.949,0,0,1,.007,1.606,6.637,6.637,0,0,1-2.667,1.372,20.14,20.14,0,0,1-5.822.8,19.331,19.331,0,0,1-6.316-.987,5.891,5.891,0,0,1-2.115-1.179A.949.949,0,0,1,3023.023,402.789Zm-.455,4.374a6.019,6.019,0,0,0,0-.619,21.012,21.012,0,0,0,17.8.019c.1,1.181.107,1.514-1,2.236a9.6,9.6,0,0,1-3.215,1.225,21.656,21.656,0,0,1-5.869.457,16.81,16.81,0,0,1-5.14-.957,11.366,11.366,0,0,1-1.858-.956A1.39,1.39,0,0,1,3022.568,407.163Zm16.776,5.627a11.773,11.773,0,0,1-3.8,1.322,22.277,22.277,0,0,1-6.99.182,13.267,13.267,0,0,1-4.436-1.242,6.9,6.9,0,0,1-1.028-.68,1.291,1.291,0,0,1-.523-1.191c.017-.212,0-.426,0-.676a21,21,0,0,0,17.787.024A1.9,1.9,0,0,1,3039.344,412.79Z"/>
                        <path id="Path_14" data-name="Path 14"
                              d="M3052.291,391.731a2.84,2.84,0,0,0-.685-1.842,6.794,6.794,0,0,0-2.994-1.952,19.207,19.207,0,0,0-5.7-1.137,22.106,22.106,0,0,0-8.033.888,8.3,8.3,0,0,0-3.295,1.767,3.09,3.09,0,0,0-1.091,2.393c.024,1.259,0,2.518.007,3.776a.989.989,0,1,0,1.977.013c0-.315,0-.63,0-.98a20.988,20.988,0,0,0,17.832,0c0,.263-.015.489,0,.711a1.271,1.271,0,0,1-.487,1.116,4.7,4.7,0,0,1-.618.462,9.362,9.362,0,0,1-2.957,1.13c-.986.2-1.988.327-2.983.489a.987.987,0,0,0-.875,1.139,1.017,1.017,0,0,0,1.156.831c.46-.056.922-.1,1.38-.175a14.608,14.608,0,0,0,5.168-1.667,1.983,1.983,0,0,1,.213-.088c0,.244-.017.462,0,.676a1.343,1.343,0,0,1-.542,1.213,7.046,7.046,0,0,1-2.61,1.292c-.679.2-1.379.331-2.066.51a.991.991,0,0,0-.711,1.175,1.015,1.015,0,0,0,1.089.764,13.873,13.873,0,0,0,4.655-1.569,1.248,1.248,0,0,1,.181-.067,5.913,5.913,0,0,0,0,.613,1.39,1.39,0,0,1-.588,1.286,7.2,7.2,0,0,1-2.564,1.25c-.68.2-1.379.331-2.065.511a.989.989,0,0,0-.712,1.174,1.014,1.014,0,0,0,1.089.764,13.88,13.88,0,0,0,4.655-1.569,1.248,1.248,0,0,1,.181-.067,5.911,5.911,0,0,0,0,.613,1.39,1.39,0,0,1-.588,1.286,7.207,7.207,0,0,1-2.564,1.251c-.68.2-1.379.331-2.066.51a.99.99,0,0,0-.711,1.174,1,1,0,0,0,1.149.751c.555-.111,1.108-.229,1.656-.372a11.039,11.039,0,0,0,3.12-1.292c0,.274-.017.482,0,.685a1.336,1.336,0,0,1-.542,1.216,4.88,4.88,0,0,1-.575.417,9.348,9.348,0,0,1-2.957,1.127c-1,.2-2.01.329-3.015.494a.991.991,0,0,0,.274,1.962c1.257-.206,2.524-.386,3.762-.678a8.94,8.94,0,0,0,3.738-1.767,3.181,3.181,0,0,0,1.293-2.522Q3052.282,401.573,3052.291,391.731Zm-2.439.773a6.687,6.687,0,0,1-2.669,1.369c-.158.049-.316.1-.474.139l-.161.044c-.115.031-.231.06-.346.087-.063.016-.127.031-.19.045l-.021.005-.164.036c-.081.017-.162.035-.243.05l-.095.019-.137.026-.154.027c-.1.018-.193.034-.29.049-.08.013-.162.026-.242.037s-.181.026-.272.037l-.207.027-.216.025-.217.023q-.183.018-.366.033c-.076.006-.153.013-.23.018-.1.008-.206.015-.31.021h-.011l-.3.016c-.085.005-.169.009-.254.012l-.369.013c-.184.006-.37.009-.554.012l-.1,0-.1,0-.294-.008q-.2-.006-.393-.015l-.2-.009-.2-.011-.2-.012-.216-.015-.295-.023c-.2-.017-.4-.036-.593-.059l-.194-.022-.207-.026-.247-.035-.259-.04-.2-.033-.175-.031c-.058-.01-.116-.021-.173-.033h0c-.058-.011-.115-.022-.172-.035s-.118-.023-.175-.036-.111-.023-.166-.037l-.195-.045c-.065-.016-.131-.031-.2-.048l-.178-.047-.092-.025c-.139-.037-.279-.077-.418-.121l-.044-.013-.17-.053-.131-.044-.126-.042-.192-.068a5.846,5.846,0,0,1-2.113-1.182.947.947,0,0,1,0-1.6,6.476,6.476,0,0,1,2.639-1.36,20.311,20.311,0,0,1,7-.768,17.727,17.727,0,0,1,5.172.947,5.833,5.833,0,0,1,2.113,1.181A.948.948,0,0,1,3049.852,392.5Z"/>
                    </g>
                </g>
            </g>
            <g id="Group_20" data-name="Group 20">
                <g id="Group_19" data-name="Group 19" clip-path="url(#clip-path-3)">
                    <rect id="Rectangle_7" data-name="Rectangle 7" width="388.767" height="173.198"
                          transform="translate(3036.441 400.291)" fill="none" stroke="#e7c57e" stroke-miterlimit="10"
                          stroke-width="4"/>
                    <rect id="Rectangle_8" data-name="Rectangle 8" width="388.767" height="173.198"
                          transform="translate(3036.441 400.291)" fill="#231f20" stroke="#e7c57e" stroke-miterlimit="10"
                          stroke-width="4" opacity="0.5"/>
                </g>
            </g>
            <text id="CHI_PHÍ_LÀM_THẺ" data-name="CHI PHÍ LÀM THẺ" transform="translate(3079.85 367.367)" fill="#e7c57e"
                  font-size="19" font-family="Mulish-ExtraBold, Mulish" font-weight="800" letter-spacing="0.028em">
                <tspan x="0" y="19">CHI PHÍ LÀM THẺ</tspan>
            </text>
            <g id="Group_23" data-name="Group 23">
                <g id="Group_22" data-name="Group 22">
                    <g id="Group_21" data-name="Group 21">
                        <text
                            id="LÀM_THẺ:_65.000_EUR_ĐẦU_TƯ_BĐS_TỐI_THIỂU:_175.000_EUR_TỔNG_CHI_PHÍ_TỐI_THIỂU_240.000_EUR_"
                            data-name="LÀM THẺ: 65.000 EUR
ĐẦU TƯ BĐS TỐI THIỂU: 175.000 EUR
(TỔNG CHI PHÍ TỐI THIỂU 240.000 EUR)" transform="translate(3036.441 444.235)" fill="#fff" font-size="16"
                            font-family="Mulish-ExtraBold, Mulish" font-weight="800" letter-spacing="0.025em">
                            <tspan x="80.84" y="16">LÀM THẺ:</tspan>
                            <tspan y="16" fill="#e7c57e" font-size="26">65.000</tspan>
                            <tspan y="16" xml:space="preserve" fill="#e7c57e" font-size="16">EUR</tspan>
                            <tspan x="41.192" y="44">ĐẦU TƯ BĐS TỐI THIỂU: 175.000 EUR</tspan>
                            <tspan x="31.112" y="72">(TỔNG CHI PHÍ TỐI THIỂU 240.000 EUR)</tspan>
                        </text>
                    </g>
                </g>
            </g>
        </g>
    </g>
</svg>
