<svg xmlns="http://www.w3.org/2000/svg" width="800.519" height="101" viewBox="0 0 800 101">
    <style>
        @font-face {
        font-family: 'Mulish-SemiBold';
        src: url("/fonts/Mulish-SemiBold.ttf");
        }

        text {
        font-family: 'Mulish-SemiBold', sans-serif;
        }
    </style>
    <g id="Group_139" data-name="Group 139" transform="translate(-189.076 -2249.771)">
        <text id="Mở_rộng_cửa_chào_đón_người_nhập_cư_do_dân_số_tăng_trưởng_âm:_dân_số_giảm_27.700_người_năm"
              data-name="Mở rộng cửa chào đón người nhập cư do dân số tăng trưởng âm: dân số giảm 27.700 người/ năm"
              transform="translate(273.595 2249.771)" fill="#595a5a" font-size="30"
              font-weight="500" letter-spacing="0.026em">
            <tspan x="0" y="25">Mở rộng cửa chào đón người nhập cư do dân số </tspan>
            <tspan x="0" y="61">tăng trưởng âm: dân số giảm 27.700 người/ năm</tspan>
        </text>
        <g id="Group_43" data-name="Group 43" transform="translate(-2211.915)">
            <path id="Path_752" data-name="Path 752"
                  d="M2443.867,2277.81a21.438,21.438,0,1,1-21.438-21.438A21.438,21.438,0,0,1,2443.867,2277.81Z"
                  fill="#be1e2d"/>
            <g id="Group_42" data-name="Group 42">
                <path id="Path_753" data-name="Path 753"
                      d="M2423.73,2282.265a4.557,4.557,0,0,1-3.225-1.332l-5.928-5.93a2.776,2.776,0,0,1,3.927-3.926l5.227,5.226,16.11-16.11a2.777,2.777,0,0,1,3.927,3.927l-16.811,16.811A4.549,4.549,0,0,1,2423.73,2282.265Z"
                      fill="#fff"/>
            </g>
        </g>
    </g>
</svg>
