<svg xmlns="http://www.w3.org/2000/svg" xmlns:xlink="http://www.w3.org/1999/xlink" width="1021.564" height="338.629" viewBox="0 0 1021.564 338.629">
  <defs>
    <clipPath id="clip-path">
      <path id="Path_19" data-name="Path 19" d="M2428.357,763.464a60.664,60.664,0,0,1-69.578,77.453V1067.31H3288.66V763.464Z" fill="none"/>
    </clipPath>
  </defs>
  <g id="Group_26" data-name="Group 26" transform="translate(-2317.809 -728.681)">
    <g id="Group_20" data-name="Group 20">
      <path id="Path_14" data-name="Path 14" d="M2418.028,778.79a50.109,50.109,0,1,1-50.11-50.109,50.109,50.109,0,0,1,50.11,50.109" fill="#e7c57e"/>
      <g id="Group_19" data-name="Group 19">
        <path id="Path_15" data-name="Path 15" d="M2394.385,801.106a5.42,5.42,0,0,0,5.415-5.4l.1-29.93a5.429,5.429,0,0,0-5.4-5.434l-49.167-.16h-.018a5.424,5.424,0,0,0-5.419,5.4l-.1,29.93a5.417,5.417,0,0,0,5.4,5.434l49.171.16ZM2347.23,798.7h-1.9v-.033h-.124a3.134,3.134,0,0,1-3.125-3.143l.1-29.93a3.136,3.136,0,0,1,3.137-3.125h.009l49.17.161a3.14,3.14,0,0,1,3.124,3.145l-.1,29.931a3.136,3.136,0,0,1-3.133,3.124h-.012l-47.143-.154Z"/>
        <path id="Path_16" data-name="Path 16" d="M2391.6,764.93h-11.4a.57.57,0,0,0-.57.57v15.145a.57.57,0,0,0,.57.57h11.4a.57.57,0,0,0,.57-.57V765.5a.57.57,0,0,0-.57-.57m-.57,15.146h-10.26V766.069h10.26Z"/>
        <path id="Path_17" data-name="Path 17" d="M2349.133,785.519h17.67a1.139,1.139,0,0,0,0-2.279h-17.67a1.139,1.139,0,1,0,0,2.279"/>
        <path id="Path_18" data-name="Path 18" d="M2375.068,789.794h-25.937a1.139,1.139,0,0,0,0,2.279h25.937a1.139,1.139,0,0,0,0-2.279"/>
      </g>
    </g>
    <g id="Group_22" data-name="Group 22">
      <g id="Group_21" data-name="Group 21" clip-path="url(#clip-path)">
        <rect id="Rectangle_11" data-name="Rectangle 11" width="908.68" height="194.433" transform="translate(2367.341 778.331)" fill="none" stroke="#e7c57e" stroke-miterlimit="10" stroke-width="4"/>
        <rect id="Rectangle_12" data-name="Rectangle 12" width="908.68" height="194.433" transform="translate(2367.341 778.331)" fill="#231f20" stroke="#e7c57e" stroke-miterlimit="10" stroke-width="4" opacity="0.5"/>
      </g>
    </g>
    <text id="THỜI_GIAN_NHẬN_THẺ" data-name="THỜI GIAN NHẬN THẺ" transform="translate(2429.373 729.657)" fill="#e7c57e" font-size="35" font-family="Mulish-ExtraBold, Mulish" font-weight="800" letter-spacing="0.028em"><tspan x="0" y="35">THỜI GIAN NHẬN THẺ</tspan></text>
    <g id="Group_25" data-name="Group 25">
      <g id="Group_24" data-name="Group 24">
        <g id="Group_23" data-name="Group 23">
          <text id="_03_THÁNG_KHÁCH_HÀNG_SẼ_ĐƯỢC_CẤP_THẺ_TẠM_TRƯỚC_KHI_NHẬN_THẺ_CHÍNH_THẺ_TẠM_CÓ_QUYỀN_TƯƠNG_ĐƯƠNG_THẺ_CHÍNH_" data-name="03 THÁNG (KHÁCH HÀNG SẼ ĐƯỢC CẤP 
THẺ TẠM TRƯỚC KHI NHẬN THẺ CHÍNH, 
THẺ TẠM CÓ QUYỀN TƯƠNG ĐƯƠNG THẺ CHÍNH)" transform="translate(2366.564 821.306)" fill="#fff" font-size="28" font-family="Mulish-ExtraBold, Mulish" font-weight="800" letter-spacing="0.025em"><tspan x="163.683" y="28">03 THÁNG (KHÁCH HÀNG SẼ ĐƯỢC CẤP </tspan><tspan x="165.853" y="69">THẺ TẠM TRƯỚC KHI NHẬN THẺ CHÍNH, </tspan><tspan x="100.122" y="110">THẺ TẠM CÓ QUYỀN TƯƠNG ĐƯƠNG THẺ CHÍNH)</tspan></text>
        </g>
      </g>
    </g>
  </g>
</svg>
