<svg xmlns="http://www.w3.org/2000/svg" xmlns:xlink="http://www.w3.org/1999/xlink" width="1087.252" height="464.717"
     viewBox="0 0 1087.252 464.717">
    <style>
        @font-face {
        font-family: 'Mulish-SemiBold';
        src: url("/fonts/Mulish-SemiBold.ttf");
        }

        text {
        font-family: 'Mulish-SemiBold', sans-serif;
        }
    </style>
    <defs>
        <clipPath id="clip-path">
            <path id="Path_32" data-name="Path 32"
                  d="M172.849,1036.9a67.721,67.721,0,0,1-77.673,86.464l-1.72,337.094,1043.234-5.744q-1.723-208.908-3.447-417.814Z"
                  fill="none"/>
        </clipPath>
    </defs>
    <g id="Group_44" data-name="Group 44" transform="translate(-49.438 -995.738)">
        <g id="Group_43" data-name="Group 43">
            <g id="Group_39" data-name="Group 39">
                <path id="Path_27" data-name="Path 27"
                      d="M161.318,1054.006a55.94,55.94,0,1,1-55.94-55.939,55.939,55.939,0,0,1,55.94,55.939"
                      fill="#e7c57e"/>
                <path id="Path_28" data-name="Path 28"
                      d="M77.348,1046.985a1.179,1.179,0,0,0-.341,2.328,56.012,56.012,0,0,0,11.921,1.387c17.016,0,25.825-9.736,32.087-20.078l3.785,2.274a1.183,1.183,0,0,0,1.773-1.208l-2.436-14.394a1.18,1.18,0,0,0-1.623-.89l-12.886,5.463a1.182,1.182,0,0,0-.057,2.148l3.883,1.9c-10.362,22.817-35.043,21.16-36.106,21.075m38.728-21.18a1.181,1.181,0,0,0-.568-1.519l-2.575-1.255,9.127-3.873,1.756,10.395-2.6-1.563a1.194,1.194,0,0,0-.9-.128,1.178,1.178,0,0,0-.724.544c-6.316,10.734-14.587,20.278-31.441,19.939,9.1-1.935,21.539-7.4,27.926-22.54"/>
                <path id="Path_29" data-name="Path 29"
                      d="M81.135,1062.034c-2.277,0-4.06,2.225-4.06,5.064v8.87c0,2.841,1.783,5.064,4.06,5.064h5.554c2.277,0,4.06-2.223,4.06-5.064v-8.87c0-2.839-1.783-5.064-4.06-5.064Zm7.256,5.064v8.87c0,1.441-.795,2.706-1.7,2.706H81.135c-.9,0-1.7-1.265-1.7-2.706v-8.87c0-1.441.8-2.7,1.7-2.7h5.554c.907,0,1.7,1.262,1.7,2.7"/>
                <path id="Path_30" data-name="Path 30"
                      d="M97.92,1053.716c-2.276,0-4.059,2.226-4.059,5.064v17.189c0,2.841,1.783,5.064,4.059,5.064h5.555c2.277,0,4.059-2.223,4.059-5.064V1058.78c0-2.838-1.782-5.064-4.059-5.064Zm7.257,5.064v17.189c0,1.441-.795,2.7-1.7,2.7H97.92c-.9,0-1.7-1.262-1.7-2.7V1058.78c0-1.441.795-2.7,1.7-2.7h5.555c.907,0,1.7,1.262,1.7,2.7"/>
                <path id="Path_31" data-name="Path 31"
                      d="M121.917,1043.733h-5.555c-2.276,0-4.059,2.226-4.059,5.065v27.171c0,2.838,1.783,5.064,4.059,5.064h5.555c2.277,0,4.06-2.226,4.06-5.064V1048.8c0-2.839-1.783-5.065-4.06-5.065m1.7,32.236c0,1.441-.8,2.7-1.7,2.7h-5.555c-.9,0-1.7-1.262-1.7-2.7V1048.8c0-1.442.8-2.7,1.7-2.7h5.555c.907,0,1.7,1.261,1.7,2.7Z"/>
            </g>
            <g id="Group_41" data-name="Group 41">
                <g id="Group_40" data-name="Group 40" clip-path="url(#clip-path)">
                    <rect id="Rectangle_14" data-name="Rectangle 14" width="1014.401" height="331.423"
                          transform="translate(104.734 1053.494)" fill="none" stroke="#e7c57e" stroke-miterlimit="10"
                          stroke-width="4"/>
                    <rect id="Rectangle_15" data-name="Rectangle 15" width="1014.401" height="331.423"
                          transform="translate(104.734 1053.494)" fill="#231f20" stroke="#e7c57e" stroke-miterlimit="10"
                          stroke-width="4" opacity="0.5"/>
                </g>
            </g>
            <text id="ĐẦU_TƯ_BẤT_ĐỘNG_SẢN" data-name="ĐẦU TƯ BẤT ĐỘNG SẢN" transform="translate(169.538 996.738)"
                  fill="#e7c57e" font-size="32.506" font-family="Mulish-ExtraBold, Mulish" font-weight="800"
                  letter-spacing="0.028em">
                <tspan x="0" y="33">ĐẦU TƯ BẤT ĐỘNG SẢN</tspan>
            </text>
            <g id="Group_42" data-name="Group 42">
                <text
                    id="Nhà_đầu_tư_có_thể_chọn_mua_bất_động_sản_trực_tuyến_tại_Việt_Nam_Công_ty_sẽ_đồng_hành_và_hướng_dẫn_tận_tình_nếu_Nhà_đầu_tư_có_nhu_cầu_trực_tiếp_tới_Hungary_Mọi_thủ_tục_pháp_lý_sẽ_có_luật_sư_ủy_quyền_hoàn_thiện"
                    data-name="Nhà đầu tư có thể chọn mua bất động sản trực tuyến tại Việt Nam
Công ty sẽ đồng hành và hướng dẫn tận tình nếu Nhà đầu tư có nhu cầu trực tiếp tới Hungary
Mọi thủ tục pháp lý sẽ có luật sư ủy quyền hoàn thiện" transform="translate(171.75 1097.965)" fill="#fff"
                    font-size="36">
                    <tspan x="0" y="37">Nhà đầu tư có thể chọn mua bất động sản trực tuyến tại</tspan>
                    <tspan x="0" y="85">Việt Nam</tspan>
                    <tspan x="0" y="133" letter-spacing="0.02em">Công ty sẽ đồng hành và hướng dẫn tận tình nếu Nhà</tspan>
                    <tspan x="0" y="181">đầu tư có nhu cầu trực tiếp tới Hungary</tspan>
                    <tspan x="0" y="229">Mọi thủ tục pháp lý sẽ có luật sư ủy quyền hoàn thiện</tspan>
                </text>
                <circle id="Ellipse_8" data-name="Ellipse 8" cx="6.501" cy="6.501" r="6.501"
                        transform="translate(140.996 1118.719)" fill="#e7c57e"/>
            </g>
        </g>
        <circle id="Ellipse_9" data-name="Ellipse 9" cx="6.501" cy="6.501" r="6.501"
                transform="translate(140.996 1166.883)" fill="#e7c57e"/>
        <circle id="Ellipse_10" data-name="Ellipse 10" cx="6.501" cy="6.501" r="6.501"
                transform="translate(140.996 1215.218)" fill="#e7c57e"/>
        <circle id="Ellipse_11" data-name="Ellipse 11" cx="6.501" cy="6.501" r="6.501"
                transform="translate(140.996 1311.298)" fill="#e7c57e"/>
    </g>
</svg>
