<svg xmlns="http://www.w3.org/2000/svg" xmlns:xlink="http://www.w3.org/1999/xlink" width="970.851" height="339.089" viewBox="0 0 970.851 339.089">
  <defs>
    <clipPath id="clip-path">
      <path id="Path_13" data-name="Path 13" d="M2428.357,473.037a60.664,60.664,0,0,1-69.578,77.453V776.883H3288.66V473.037Z" fill="none"/>
    </clipPath>
  </defs>
  <g id="Group_18" data-name="Group 18" transform="translate(-2317.809 -437.794)">
    <g id="Group_14" data-name="Group 14">
      <g id="Group_13" data-name="Group 13">
        <path id="Path_10" data-name="Path 10" d="M2418.028,487.9a50.109,50.109,0,1,1-50.11-50.11,50.109,50.109,0,0,1,50.11,50.11" fill="#e7c57e"/>
        <g id="Group_12" data-name="Group 12">
          <path id="Path_11" data-name="Path 11" d="M2374.976,490.632a4.31,4.31,0,0,0-.474-1.747,5.985,5.985,0,0,0-2.62-2.515,23.322,23.322,0,0,0-9.7-2.585,32.433,32.433,0,0,0-6.137.078,23.943,23.943,0,0,0-7.982,2.04c-1.851.888-3.441,2.059-4,4.2v12.48a5.43,5.43,0,0,0,1.01,2.013,9.94,9.94,0,0,0,4.232,2.723,27.263,27.263,0,0,0,8.047,1.606,31.341,31.341,0,0,0,11.4-1.254,11.763,11.763,0,0,0,4.746-2.553,4.178,4.178,0,0,0,1.5-3.064C2375,498.244,2375.018,494.438,2374.976,490.632Zm-27.46-1.049a9.279,9.279,0,0,1,3.788-1.945,28.886,28.886,0,0,1,9.932-1.08,25.092,25.092,0,0,1,7.339,1.352,8.186,8.186,0,0,1,2.962,1.661,1.346,1.346,0,0,1,.01,2.279,9.431,9.431,0,0,1-3.786,1.947,28.588,28.588,0,0,1-8.265,1.141,27.439,27.439,0,0,1-8.966-1.4,8.346,8.346,0,0,1-3-1.675A1.345,1.345,0,0,1,2347.516,489.583Zm-.646,6.209a8.54,8.54,0,0,0,0-.878,29.824,29.824,0,0,0,25.267.026c.14,1.677.151,2.15-1.419,3.174a13.6,13.6,0,0,1-4.564,1.74,30.74,30.74,0,0,1-8.331.648,23.87,23.87,0,0,1-7.3-1.357,16.326,16.326,0,0,1-2.639-1.357A1.978,1.978,0,0,1,2346.87,495.792Zm23.815,7.989a16.741,16.741,0,0,1-5.392,1.877,31.611,31.611,0,0,1-9.922.257,18.816,18.816,0,0,1-6.3-1.763,9.765,9.765,0,0,1-1.459-.965,1.834,1.834,0,0,1-.743-1.691c.024-.3,0-.6,0-.959a29.817,29.817,0,0,0,25.251.034A2.7,2.7,0,0,1,2370.685,503.781Z"/>
          <path id="Path_12" data-name="Path 12" d="M2389.064,473.885a4.025,4.025,0,0,0-.972-2.615,9.633,9.633,0,0,0-4.25-2.771,27.284,27.284,0,0,0-8.093-1.614,31.362,31.362,0,0,0-11.4,1.261,11.761,11.761,0,0,0-4.677,2.508,4.385,4.385,0,0,0-1.549,3.4c.035,1.787.005,3.575.01,5.361a1.4,1.4,0,1,0,2.806.019c.006-.448,0-.895,0-1.393a29.792,29.792,0,0,0,25.315,0c0,.374-.021.694,0,1.01a1.8,1.8,0,0,1-.691,1.584,6.79,6.79,0,0,1-.877.655,13.252,13.252,0,0,1-4.2,1.605c-1.4.289-2.824.464-4.236.694a1.4,1.4,0,0,0-1.242,1.617,1.444,1.444,0,0,0,1.641,1.179c.653-.079,1.309-.145,1.959-.248a20.746,20.746,0,0,0,7.337-2.366,2.61,2.61,0,0,1,.3-.126c0,.347-.023.656.005.96a1.908,1.908,0,0,1-.768,1.723,10.053,10.053,0,0,1-3.705,1.834c-.964.286-1.958.47-2.934.724a1.406,1.406,0,0,0-1.009,1.667,1.44,1.44,0,0,0,1.546,1.085,19.681,19.681,0,0,0,6.608-2.227,1.73,1.73,0,0,1,.257-.1c0,.316-.023.6.005.871a1.971,1.971,0,0,1-.834,1.825,10.215,10.215,0,0,1-3.639,1.775c-.965.285-1.958.47-2.932.725a1.405,1.405,0,0,0-1.011,1.667,1.439,1.439,0,0,0,1.546,1.084,19.739,19.739,0,0,0,6.608-2.226,1.628,1.628,0,0,1,.257-.1c0,.316-.023.6.005.87a1.969,1.969,0,0,1-.834,1.825,10.225,10.225,0,0,1-3.639,1.776c-.965.285-1.958.47-2.934.724a1.407,1.407,0,0,0-1.009,1.668,1.424,1.424,0,0,0,1.631,1.065c.787-.157,1.573-.325,2.35-.528a15.671,15.671,0,0,0,4.43-1.834c0,.389-.023.684.005.973a1.89,1.89,0,0,1-.769,1.725,6.619,6.619,0,0,1-.816.592,13.267,13.267,0,0,1-4.2,1.6c-1.414.289-2.853.466-4.28.7a1.406,1.406,0,0,0,.389,2.785c1.785-.292,3.583-.547,5.341-.962a12.691,12.691,0,0,0,5.306-2.509,4.51,4.51,0,0,0,1.835-3.579Q2389.052,487.857,2389.064,473.885Zm-3.462,1.1a9.473,9.473,0,0,1-3.788,1.942c-.225.071-.449.137-.674.2l-.228.061q-.246.066-.492.125c-.089.022-.179.043-.268.062l-.031.008c-.077.018-.154.034-.232.051-.115.025-.231.049-.345.071l-.135.027-.195.037-.218.039c-.138.025-.274.048-.412.069-.114.019-.23.036-.344.053s-.257.036-.386.053l-.294.037-.307.035c-.1.012-.2.022-.308.033-.173.018-.345.033-.519.048l-.326.025c-.147.011-.293.021-.44.03h-.016c-.141.009-.283.016-.425.023-.12.006-.24.012-.36.016-.174.008-.349.014-.524.019-.262.009-.525.013-.787.018l-.143,0-.143,0c-.14,0-.278-.006-.417-.011-.187-.005-.373-.013-.559-.021-.1,0-.192-.008-.287-.013s-.192-.01-.288-.015l-.287-.018c-.1-.007-.205-.013-.307-.021q-.21-.015-.418-.033-.422-.034-.843-.083c-.091-.009-.182-.02-.275-.031l-.294-.038c-.116-.015-.234-.032-.351-.049s-.245-.037-.367-.057c-.1-.014-.192-.03-.287-.047s-.166-.028-.248-.044-.165-.03-.247-.046h0c-.083-.017-.164-.032-.246-.05s-.166-.033-.247-.051-.158-.033-.236-.052l-.277-.065c-.093-.022-.185-.044-.277-.068l-.253-.066c-.043-.011-.087-.023-.13-.036-.2-.052-.4-.11-.594-.171l-.062-.019c-.08-.024-.16-.05-.241-.076l-.187-.062c-.059-.019-.119-.039-.178-.06-.092-.031-.182-.063-.272-.1a8.3,8.3,0,0,1-3-1.677,1.346,1.346,0,0,1,0-2.28,9.2,9.2,0,0,1,3.746-1.931,28.84,28.84,0,0,1,9.931-1.089,25.115,25.115,0,0,1,7.342,1.344,8.289,8.289,0,0,1,3,1.677A1.346,1.346,0,0,1,2385.6,474.983Z"/>
        </g>
      </g>
    </g>
    <g id="Group_16" data-name="Group 16">
      <g id="Group_15" data-name="Group 15" clip-path="url(#clip-path)">
        <rect id="Rectangle_9" data-name="Rectangle 9" width="908.68" height="181.216" transform="translate(2367.341 487.904)" fill="none" stroke="#e7c57e" stroke-miterlimit="10" stroke-width="4"/>
        <rect id="Rectangle_10" data-name="Rectangle 10" width="908.68" height="181.216" transform="translate(2367.341 487.904)" fill="#231f20" stroke="#e7c57e" stroke-miterlimit="10" stroke-width="4" opacity="0.5"/>
      </g>
    </g>
    <text id="CHI_PHÍ_LÀM_THẺ" data-name="CHI PHÍ LÀM THẺ" transform="translate(2429.373 438.464)" fill="#e7c57e" font-size="35" font-family="Mulish-ExtraBold, Mulish" font-weight="800" letter-spacing="0.028em"><tspan x="0" y="35">CHI PHÍ LÀM THẺ</tspan></text>
    <g id="Group_17" data-name="Group 17">
      <text id="CHI_PHÍ_LÀM_THẺ:_65.000_EUR_ĐẦU_TƯ_BĐS_TỐI_THIỂU:_175.000_EUR_TỔNG_CHI_PHÍ_TỐI_THIỂU_240.000_EUR_" data-name="CHI PHÍ LÀM THẺ: 65.000 EUR
ĐẦU TƯ BĐS TỐI THIỂU: 175.000 EUR
(TỔNG CHI PHÍ TỐI THIỂU 240.000 EUR)" transform="translate(2369.249 522.092)" fill="#fff" font-size="28" font-family="Mulish-ExtraBold, Mulish" font-weight="800" letter-spacing="0.025em"><tspan x="238.514" y="28">CHI PHÍ LÀM THẺ: 65.000 EUR</tspan><tspan x="185.3" y="69">ĐẦU TƯ BĐS TỐI THIỂU: 175.000 EUR</tspan><tspan x="167.66" y="110">(TỔNG CHI PHÍ TỐI THIỂU 240.000 EUR)</tspan></text>
    </g>
  </g>
</svg>
