<svg xmlns="http://www.w3.org/2000/svg" width="195.883" height="69.042" viewBox="0 0 195.883 69.042">
  <g id="Group_112" data-name="Group 112" transform="translate(-1077.309 -1062.445)">
    <text id="Forint_HUF_" data-name="Forint (HUF)" transform="translate(1134.192 1064.487)" fill="#595a5a" font-size="18.243" font-family="'Mulish-SemiBold', sans-serif" font-weight="500" letter-spacing="0.025em"><tspan x="0" y="18">Forint (HUF)</tspan></text>
    <g id="Group_102" data-name="Group 102">
      <path id="Path_1504" data-name="Path 1504" d="M1106.654,1077.118a14.673,14.673,0,1,1-14.672-14.673A14.672,14.672,0,0,1,1106.654,1077.118Z" fill="#be1e2d"/>
      <g id="Group_101" data-name="Group 101">
        <path id="Path_1505" data-name="Path 1505" d="M1092.872,1080.167a3.118,3.118,0,0,1-2.207-.912l-4.058-4.059a1.9,1.9,0,0,1,2.688-2.687l3.578,3.577,11.026-11.026a1.9,1.9,0,0,1,2.687,2.688l-11.505,11.506A3.118,3.118,0,0,1,1092.872,1080.167Z" fill="#fff"/>
      </g>
    </g>
  </g>
</svg>
