<svg xmlns="http://www.w3.org/2000/svg" width="582.991" height="116" viewBox="0 0 550.991 116">
    <g id="Group_123" data-name="Group 123" transform="translate(-1020.079 -1800.795)">
        <g id="Group_96" data-name="Group 96">
            <path id="Path_1498" data-name="Path 1498"
                  d="M1049.424,1820.042a14.672,14.672,0,1,1-14.673-14.673A14.673,14.673,0,0,1,1049.424,1820.042Z"
                  fill="#be1e2d"/>
            <g id="Group_95" data-name="Group 95">
                <path id="Path_1499" data-name="Path 1499"
                      d="M1035.642,1823.091a3.116,3.116,0,0,1-2.208-.912l-4.057-4.058a1.9,1.9,0,0,1,2.688-2.687l3.577,3.577,11.026-11.027a1.9,1.9,0,0,1,2.688,2.688l-11.506,11.506A3.11,3.11,0,0,1,1035.642,1823.091Z"
                      fill="#fff"/>
            </g>
        </g>
        <text id="Mở_rộng_cửa_chào_đón_người_nhập_cư_do_dân_số_tăng_trưởng_âm:_dân_số_giảm_27.700_người_năm"
              data-name="Mở rộng cửa chào đón người nhập cư do dân số tăng trưởng âm: dân số giảm 27.700 người/ năm"
              transform="translate(1070.07 1800.795)" fill="#595a5a" font-size="18.243"
              font-family="'Mulish-SemiBold', sans-serif" font-weight="500" letter-spacing="0.025em">
            <tspan x="0" y="18">Mở rộng cửa chào đón người nhập cư do dân số tăng</tspan>
            <tspan x="0" y="46.504">trưởng âm: dân số giảm 27.700 người/ năm</tspan>
        </text>
    </g>
</svg>
