<svg xmlns="http://www.w3.org/2000/svg" xmlns:xlink="http://www.w3.org/1999/xlink" width="642.638" height="224.674"
     viewBox="0 0 642.638 224.674">
    <style>
        @font-face {
        font-family: 'Mulish-SemiBold';
        src: url("/fonts/Mulish-SemiBold.ttf");
        }

        .text2 {
        font-family: 'Mulish-SemiBold', Mulish;
        }
    </style>
    <defs>
        <clipPath id="clip-path">
            <path id="Path_58" data-name="Path 58"
                  d="M429.8,694.968a40.033,40.033,0,0,1-45.915,51.113v149.4H997.532V694.968Z" fill="none"/>
        </clipPath>
    </defs>
    <g id="Group_133" data-name="Group 133" transform="translate(-354.894 -670.807)">
        <g id="Group_129" data-name="Group 129">
            <path id="Path_54" data-name="Path 54"
                  d="M425.37,706.045a35.238,35.238,0,1,1-35.238-35.238,35.237,35.237,0,0,1,35.238,35.238"
                  fill="#e7c57e"/>
            <path id="Path_55" data-name="Path 55"
                  d="M388.871,704.036a.843.843,0,0,0,.528-.782V682.6a.846.846,0,0,0-.845-.845,21.4,21.4,0,0,0-14.959,6.06.86.86,0,0,0-.257.594.849.849,0,0,0,.24.6l14.367,14.832a.849.849,0,0,0,.609.258.834.834,0,0,0,.317-.063m-1.164-2.871-12.315-12.714a19.7,19.7,0,0,1,12.315-4.99Z"/>
            <path id="Path_56" data-name="Path 56"
                  d="M388.486,707.67a.849.849,0,0,0-.234-.667l-14.369-14.832a.848.848,0,0,0-.594-.257.867.867,0,0,0-.6.238,21.479,21.479,0,0,0-2.582,27.869.849.849,0,0,0,1.179.2l16.849-11.942a.838.838,0,0,0,.354-.611m-17.477,10.674a19.792,19.792,0,0,1,2.258-24.376l13.082,13.505Z"/>
            <path id="Path_57" data-name="Path 57"
                  d="M413.926,706.922q-.07-.527-.163-1.044a21.759,21.759,0,0,0-.519-2.2c-.088-.311-.187-.616-.29-.92-.225-.657-.482-1.313-.77-1.946-.124-.276-.253-.549-.39-.821-.294-.588-.622-1.173-.976-1.741-.154-.249-.311-.494-.474-.734-.4-.59-.838-1.169-1.3-1.718-.183-.218-.369-.435-.56-.647-.423-.468-.875-.929-1.349-1.369-.208-.193-.42-.384-.635-.568-.487-.42-1-.823-1.516-1.2q-.354-.257-.714-.493c-.564-.377-1.137-.72-1.7-1.021-.261-.141-.527-.279-.8-.409a20.931,20.931,0,0,0-2.121-.9c-.3-.107-.6-.212-.9-.307-.7-.218-1.431-.407-2.162-.557-.339-.069-.68-.129-1.023-.185a22.117,22.117,0,0,0-2.481-.233c-.292-.011-.584-.022-.88-.022a1.255,1.255,0,0,0-1.254,1.255v20.007l-16.319,11.566a1.273,1.273,0,0,0-.515.819,1.253,1.253,0,0,0,.217.933l.082.109c.353.494.746.989,1.2,1.517.186.216.373.429.566.634.422.455.883.908,1.372,1.345q.319.286.648.56c.6.5,1.165.926,1.72,1.3.2.137.408.264.616.392l.122.075c.568.354,1.152.682,1.741.98.271.133.541.266.813.389.6.27,1.238.521,1.954.765.3.1.607.2.913.29a21.554,21.554,0,0,0,2.194.527c.346.065.695.114,1.043.161a21.688,21.688,0,0,0,2.8.2l.081,0c.4,0,.789-.012,1.178-.032a21.789,21.789,0,0,0,3.107-.392c.517-.1,1.038-.228,1.592-.382a21.7,21.7,0,0,0,8.6-4.673,21.833,21.833,0,0,0,6.636-10.558c.154-.562.281-1.081.381-1.591a22.506,22.506,0,0,0,.393-3.11c.017-.388.03-.781.03-1.173v-.062a22.519,22.519,0,0,0-.2-2.823m-1.525,3.97a20.43,20.43,0,0,1-.363,2.867c-.092.468-.208.948-.351,1.469a20.306,20.306,0,0,1-6.123,9.741,20.337,20.337,0,0,1-3.728,2.617,20.061,20.061,0,0,1-4.2,1.7c-.513.144-.993.26-1.467.354a20.16,20.16,0,0,1-2.867.36c-.361.02-.719.035-1.083.03l-.061,0a19.968,19.968,0,0,1-2.6-.18c-.324-.043-.646-.09-.965-.146a20.362,20.362,0,0,1-2.023-.489c-.283-.081-.564-.174-.842-.268-.665-.225-1.253-.457-1.8-.7-.255-.114-.506-.239-.751-.359-.54-.274-1.081-.577-1.606-.905l-.126-.077c-.187-.116-.376-.231-.558-.354-.5-.343-1.025-.735-1.583-1.2-.2-.167-.4-.341-.6-.517-.453-.4-.877-.823-1.27-1.241-.178-.193-.352-.391-.521-.588-.343-.4-.65-.774-.926-1.147l16.312-11.562a.848.848,0,0,0,.356-.691v-20c.126,0,.251.008.377.013a20.033,20.033,0,0,1,2.288.216c.318.049.633.1.946.17a20.076,20.076,0,0,1,1.993.514c.28.088.555.183.829.283a19.951,19.951,0,0,1,1.956.828c.249.12.5.247.74.378.515.276,1.043.594,1.566.943.223.144.44.3.656.453.481.345.95.718,1.4,1.106.2.172.394.348.587.526.438.407.856.832,1.244,1.263.178.2.35.4.519.6.423.507.826,1.041,1.2,1.59.15.22.294.448.435.673.324.523.627,1.064.9,1.606.124.249.245.5.36.757.266.586.5,1.188.71,1.8.1.279.185.56.268.85a20.24,20.24,0,0,1,.479,2.024c.057.32.109.641.152.963a20.589,20.589,0,0,1,.178,2.606l0,.058c0,.364-.013.727-.03,1.085"/>
        </g>
        <g id="Group_131" data-name="Group 131">
            <g id="Group_130" data-name="Group 130" clip-path="url(#clip-path)">
                <rect id="Rectangle_48" data-name="Rectangle 48" width="601.988" height="173.198"
                      transform="translate(389.949 705.49)" fill="none" stroke="#e7c57e" stroke-miterlimit="10"
                      stroke-width="4"/>
                <rect id="Rectangle_49" data-name="Rectangle 49" width="601.988" height="173.198"
                      transform="translate(389.949 705.49)" fill="#231f20" stroke="#e7c57e" stroke-miterlimit="10"
                      stroke-width="4" opacity="0.5"/>
            </g>
        </g>
        <text id="QUẢN_LÝ_VẬN_HÀNH_BĐS" data-name="QUẢN LÝ VẬN HÀNH BĐS" transform="translate(431.258 674.079)"
              fill="#e7c57e" font-size="22" font-family="Mulish-ExtraBold, Mulish" font-weight="800"
              letter-spacing="0.028em">
            <tspan x="0" y="22">QUẢN LÝ VẬN HÀNH BĐS</tspan>
        </text>
        <g id="Group_132" data-name="Group 132">
            <text class="text2"
                id="Hỗ_trợ_đóng_thuế_và_các_dịch_vụ_cần_thiết_liên_quan_đến_tài_sản_BĐS_Hỗi_trợ_quản_lý_cho_thuê_trọn_gói_sản_phẩm_Nhận_báo_cáo_dòng_tiền_kết_quả_kinh_doanh_cho_thuê_BĐS_định_kỳ_3_tháng_lần_"
                data-name="Hỗ trợ đóng thuế và các dịch vụ cần thiết liên quan đến tài sản BĐS
Hỗi trợ quản lý cho thuê trọn gói sản phẩm
Nhận báo cáo dòng tiền &amp; kết quả kinh doanh cho thuê BĐS định kỳ 3 tháng/lần "
                transform="translate(448.469 737.616)" fill="#fff" font-size="16"
                letter-spacing="0.025em">
                <tspan x="0" y="17">Hỗ trợ đóng thuế và các dịch vụ cần thiết liên quan đến tài sản BĐS</tspan>
                <tspan x="0" y="42">Hỗi trợ quản lý cho thuê trọn gói sản phẩm</tspan>
                <tspan x="0" y="67">Nhận báo cáo dòng tiền &amp; kết quả kinh doanh cho thuê BĐS định kỳ</tspan>
                <tspan x="0" y="92">3 tháng/lần</tspan>
            </text>
            <circle id="Ellipse_36" data-name="Ellipse 36" cx="4" cy="4" r="4" transform="translate(429.258 746.309)"
                    fill="#e7c57e"/>
            <circle id="Ellipse_37" data-name="Ellipse 37" cx="4" cy="4" r="4" transform="translate(429.258 771.394)"
                    fill="#e7c57e"/>
            <circle id="Ellipse_38" data-name="Ellipse 38" cx="4" cy="4" r="4" transform="translate(429.258 796.309)"
                    fill="#e7c57e"/>
        </g>
    </g>
</svg>
