<svg xmlns="http://www.w3.org/2000/svg" width="800.951" height="100" viewBox="0 0 800.951 100">
    <style>
        @font-face {
        font-family: 'Mulish-SemiBold';
        src: url("/fonts/Mulish-SemiBold.ttf");
        }

        text {
        font-family: 'Mulish-SemiBold', sans-serif;
        }
    </style>
    <g id="Group_138" data-name="Group 138" transform="translate(-189.076 -2143.91)">
        <text id="Top_4_hộ_chiếu_quyền_lực_nhất_thế_giới_cho_phép_du_lịch_dễ_dàng_tới_hơn_50_quốc_gia"
              data-name="Top 4 hộ chiếu quyền lực nhất thế giới cho phép du lịch dễ dàng tới hơn 50 quốc gia"
              transform="translate(273.028 2143.91)" fill="#595a5a" font-size="30" font-weight="500" letter-spacing="0.026em">
            <tspan x="0" y="25">Top 4 hộ chiếu quyền lực nhất thế giới cho phép </tspan>
            <tspan x="0" y="61">du lịch dễ dàng tới hơn 50 quốc gia</tspan>
        </text>
        <g id="Group_41" data-name="Group 41" transform="translate(-2211.915)">
            <path id="Path_750" data-name="Path 750"
                  d="M2443.867,2171.949a21.438,21.438,0,1,1-21.438-21.439A21.438,21.438,0,0,1,2443.867,2171.949Z"
                  fill="#be1e2d"/>
            <g id="Group_40" data-name="Group 40">
                <path id="Path_751" data-name="Path 751"
                      d="M2423.73,2176.4a4.554,4.554,0,0,1-3.225-1.333l-5.928-5.929a2.777,2.777,0,0,1,3.927-3.927l5.227,5.227,16.11-16.111a2.777,2.777,0,0,1,3.927,3.928l-16.811,16.811A4.55,4.55,0,0,1,2423.73,2176.4Z"
                      fill="#fff"/>
            </g>
        </g>
    </g>
</svg>
