<svg xmlns="http://www.w3.org/2000/svg" width="390.951" height="124" viewBox="0 0 390.951 124">
    <g id="Group_126" data-name="Group 126" transform="translate(-189.644 -855.034)">
        <text id="Liên_minh_Châu_Âu_NATO_OECD_WTO" data-name="Liên minh Châu Âu,
NATO, OECD, WTO" transform="translate(273.595 855.034)" fill="#595a5a" font-size="30"
              font-family="'Mulish-SemiBold', sans-serif" font-weight="500" letter-spacing="0.026em">
            <tspan x="0" y="25">Liên minh Châu Âu,</tspan>
            <tspan x="0" y="61">NATO, OECD, WTO</tspan>
        </text>
        <g id="Group_17" data-name="Group 17" transform="translate(-2211.915)">
            <path id="Path_728" data-name="Path 728"
                  d="M2444.435,883.073A21.438,21.438,0,1,1,2423,861.635,21.438,21.438,0,0,1,2444.435,883.073Z"
                  fill="#be1e2d"/>
            <g id="Group_16" data-name="Group 16">
                <path id="Path_729" data-name="Path 729"
                      d="M2424.3,887.528a4.557,4.557,0,0,1-3.225-1.332l-5.928-5.93a2.776,2.776,0,0,1,3.927-3.926l5.227,5.226,16.11-16.11a2.777,2.777,0,0,1,3.927,3.927l-16.811,16.811A4.549,4.549,0,0,1,2424.3,887.528Z"
                      fill="#fff"/>
            </g>
        </g>
    </g>
</svg>
