<svg xmlns="http://www.w3.org/2000/svg" width="958.299" height="603" viewBox="0 0 958.299 603">
    <style>
        @font-face {
        font-family: 'Mulish-SemiBold';
        src: url("/fonts/Mulish-SemiBold.ttf");
        }

        text {
        font-family: 'Mulish-SemiBold', sans-serif;
        }
    </style>
    <g id="Group_27" data-name="Group 27" transform="translate(-105.895 -921.521)">
        <text
            id="Không_phải_chứng_minh_nguồn_tiền_Không_yêu_cầu_trình_độ_tiếng_Anh_Không_phỏng_vấn_xin_visa_nếu_nộp_đơn_tại_Hungary_-_Phỏng_vấn_tại_Việt_Nam_thì_cũng_rất_dễ_dàng_Không_bắt_buộc_thời_gian_cư_trú_Thời_gian_cấp_thẻ_cư_trú_nhanh_nhất_chỉ_từ_03_tháng_Chi_phí_th"
            data-name="Không phải chứng minh nguồn tiền
Không yêu cầu trình độ tiếng Anh
Không phỏng vấn xin visa nếu nộp đơn tại Hungary
- Phỏng vấn tại Việt Nam thì cũng rất dễ dàng
Không bắt buộc thời gian cư trú
Thời gian cấp thẻ cư trú nhanh nhất chỉ từ 03 tháng
Chi phí th" transform="translate(154.194 921.521)" fill="#fff" font-size="35" font-weight="400"
            letter-spacing="0.025em">
            <tspan x="0" y="31">Không phải chứng minh nguồn tiền</tspan>
            <tspan x="0" y="91.263">Không yêu cầu trình độ tiếng Anh</tspan>
            <tspan x="0" y="151.525">Không phỏng vấn xin visa nếu nộp đơn tại Hungary</tspan>
            <tspan x="0" y="211.788">- Phỏng vấn tại Việt Nam thì cũng rất dễ dàng</tspan>
            <tspan x="0" y="272.051">Không bắt buộc thời gian cư trú</tspan>
            <tspan x="0" y="332.314">Thời gian cấp thẻ cư trú nhanh nhất chỉ từ 03 tháng</tspan>
            <tspan x="0" y="392.576">Chi phí thấp nhất</tspan>
            <tspan x="0" y="452.839">Thủ tục đơn giản</tspan>
            <tspan x="0" y="513.102">Tỉ lệ thành công 100% (Cam kết hoàn lại 100% phí</tspan>
            <tspan x="0" y="573.365">dịch vụ nếu không đạt thẻ cư trú)</tspan>
        </text>
        <g id="Group_7" data-name="Group 7" transform="translate(-2211.915)">
            <circle id="Ellipse_1" data-name="Ellipse 1" cx="7.929" cy="7.929" r="7.929"
                    transform="translate(2317.81 935.333)" fill="#e7c57e"/>
            <circle id="Ellipse_2" data-name="Ellipse 2" cx="7.929" cy="7.929" r="7.929"
                    transform="translate(2317.81 995.613)" fill="#e7c57e"/>
            <circle id="Ellipse_3" data-name="Ellipse 3" cx="7.929" cy="7.929" r="7.929"
                    transform="translate(2317.81 1055.589)" fill="#e7c57e"/>
            <circle id="Ellipse_4" data-name="Ellipse 4" cx="7.929" cy="7.929" r="7.929"
                    transform="translate(2317.81 1174.769)" fill="#e7c57e"/>
            <circle id="Ellipse_5" data-name="Ellipse 5" cx="7.929" cy="7.929" r="7.929"
                    transform="translate(2317.81 1234.352)" fill="#e7c57e"/>
            <g id="Group_2" data-name="Group 2" transform="translate(0 23)">
                <g id="Group_1" data-name="Group 1">
                    <path id="Path_1" data-name="Path 1"
                          d="M2325.736,1274.331a7.927,7.927,0,1,1-7.921,7.921A7.929,7.929,0,0,1,2325.736,1274.331Z"
                          fill="#e7c57e"/>
                </g>
            </g>
            <g id="Group_4" data-name="Group 4" transform="translate(0 20)">
                <g id="Group_3" data-name="Group 3">
                    <path id="Path_2" data-name="Path 2"
                          d="M2325.736,1334.611a7.927,7.927,0,1,1-7.921,7.92A7.928,7.928,0,0,1,2325.736,1334.611Z"
                          fill="#e7c57e"/>
                </g>
            </g>
            <g id="Group_6" data-name="Group 6" transform="translate(0 22)">
                <g id="Group_5" data-name="Group 5">
                    <path id="Path_3" data-name="Path 3"
                          d="M2325.736,1394.891a7.927,7.927,0,1,1-7.921,7.92A7.928,7.928,0,0,1,2325.736,1394.891Z"
                          fill="#e7c57e"/>
                </g>
            </g>
        </g>
    </g>
</svg>
