<svg xmlns="http://www.w3.org/2000/svg" width="188.331" height="69.042" viewBox="0 0 188.331 69.042">
    <g id="Group_113" data-name="Group 113" transform="translate(-1373.512 -1062.445)">
        <text id="_9.7_triệu_dân" data-name="~ 9.7 triệu dân" transform="translate(1412.843 1064.487)" fill="#595a5a"
              font-size="18.243" font-family="Mulish, sans-serif" font-weight="500" letter-spacing="0.025em">
            <tspan x="0" y="18">~ 9.7 triệu dân</tspan>
        </text>
        <g id="Group_104" data-name="Group 104">
            <path id="Path_1506" data-name="Path 1506"
                  d="M1402.857,1077.118a14.673,14.673,0,1,1-14.672-14.673A14.672,14.672,0,0,1,1402.857,1077.118Z"
                  fill="#be1e2d"/>
            <g id="Group_103" data-name="Group 103">
                <path id="Path_1507" data-name="Path 1507"
                      d="M1389.076,1080.167a3.119,3.119,0,0,1-2.208-.912l-4.057-4.059a1.9,1.9,0,0,1,2.687-2.687l3.578,3.577,11.026-11.026a1.9,1.9,0,0,1,2.688,2.688l-11.506,11.506A3.114,3.114,0,0,1,1389.076,1080.167Z"
                      fill="#fff"/>
            </g>
        </g>
    </g>
</svg>
