<svg xmlns="http://www.w3.org/2000/svg" xmlns:xlink="http://www.w3.org/1999/xlink" width="1605.656" height="225.455" viewBox="0 0 1605.656 225.455">
  <defs>
    <clipPath id="clip-path">
      <path id="Path_29" data-name="Path 29" d="M790.471,389.769a40.03,40.03,0,0,1-45.916,51.112v149.4H1358.2V389.769Z" fill="none"/>
    </clipPath>
    <clipPath id="clip-path-2">
      <path id="Path_34" data-name="Path 34" d="M1315.419,389.769a40.03,40.03,0,0,1-45.915,51.112v149.4h613.642V389.769Z" fill="none"/>
    </clipPath>
    <clipPath id="clip-path-3">
      <path id="Path_38" data-name="Path 38" d="M352.4,389.769a40.03,40.03,0,0,1-45.915,51.112v149.4H920.128V389.769Z" fill="none"/>
    </clipPath>
  </defs>
  <g id="Group_58" data-name="Group 58" transform="translate(-277.49 -364.827)">
    <g id="Group_36" data-name="Group 36">
      <g id="Group_32" data-name="Group 32">
        <g id="Group_31" data-name="Group 31">
          <path id="Path_24" data-name="Path 24" d="M786.487,400.291a35.464,35.464,0,1,1-35.464-35.464,35.462,35.462,0,0,1,35.464,35.464" fill="#e7c57e"/>
          <path id="Path_25" data-name="Path 25" d="M769.329,416.086a3.836,3.836,0,0,0,3.832-3.82l.071-21.182a3.843,3.843,0,0,0-3.822-3.846l-34.8-.113H734.6a3.837,3.837,0,0,0-3.835,3.819l-.069,21.183a3.832,3.832,0,0,0,3.82,3.845l34.8.114Zm-33.373-1.7h-1.347v-.024h-.088a2.219,2.219,0,0,1-2.211-2.224l.071-21.182a2.219,2.219,0,0,1,2.22-2.211h.006l34.8.113a2.223,2.223,0,0,1,2.211,2.226l-.071,21.183a2.219,2.219,0,0,1-2.217,2.211h-.009l-33.364-.109Z"/>
          <path id="Path_26" data-name="Path 26" d="M767.357,390.483h-8.068a.4.4,0,0,0-.4.4v10.719a.4.4,0,0,0,.4.4h8.068a.4.4,0,0,0,.4-.4V390.886a.4.4,0,0,0-.4-.4m-.4,10.719h-7.262V391.29h7.262Z"/>
          <path id="Path_27" data-name="Path 27" d="M737.3,405.054h12.505a.806.806,0,1,0,0-1.612H737.3a.806.806,0,1,0,0,1.612"/>
          <path id="Path_28" data-name="Path 28" d="M755.658,408.08H737.3a.807.807,0,1,0,0,1.613h18.356a.807.807,0,0,0,0-1.613"/>
        </g>
      </g>
      <g id="Group_34" data-name="Group 34">
        <g id="Group_33" data-name="Group 33" clip-path="url(#clip-path)">
          <rect id="Rectangle_15" data-name="Rectangle 15" width="475.619" height="173.198" transform="translate(750.615 400.291)" fill="none" stroke="#e7c57e" stroke-miterlimit="10" stroke-width="4"/>
          <rect id="Rectangle_16" data-name="Rectangle 16" width="475.619" height="173.198" transform="translate(750.615 400.291)" fill="#231f20" stroke="#e7c57e" stroke-miterlimit="10" stroke-width="4" opacity="0.5"/>
        </g>
      </g>
      <text id="THỜI_GIAN_NHẬN_THẺ" data-name="THỜI GIAN NHẬN THẺ" transform="translate(793.615 367.367)" fill="#e7c57e" font-size="19" font-family="Mulish-ExtraBold, Mulish" font-weight="800" letter-spacing="0.028em"><tspan x="0" y="19">THỜI GIAN NHẬN THẺ</tspan></text>
      <g id="Group_35" data-name="Group 35">
        <text id="_03_THÁNG_KHÁCH_HÀNG_SẼ_ĐƯỢC_CẤP_THẺ_TẠM_TRƯỚC_KHI_NHẬN_THẺ_CHÍNH_THẺ_TẠM_CÓ_QUYỀN_TƯƠNG_ĐƯƠNG_THẺ_CHÍNH_" data-name="03 THÁNG (KHÁCH HÀNG SẼ ĐƯỢC CẤP 
THẺ TẠM TRƯỚC KHI NHẬN THẺ CHÍNH, 
THẺ TẠM CÓ QUYỀN TƯƠNG ĐƯƠNG THẺ CHÍNH)" transform="translate(750.615 444.236)" fill="#fff" font-size="16" font-family="Mulish-ExtraBold, Mulish" font-weight="800" letter-spacing="0.025em"><tspan x="71.498" y="16">03 THÁNG (KHÁCH HÀNG SẼ ĐƯỢC CẤP </tspan><tspan x="72.738" y="44">THẺ TẠM TRƯỚC KHI NHẬN THẺ CHÍNH, </tspan><tspan x="35.178" y="72">THẺ TẠM CÓ QUYỀN TƯƠNG ĐƯƠNG THẺ CHÍNH)</tspan></text>
      </g>
    </g>
    <g id="Group_45" data-name="Group 45">
      <g id="Group_39" data-name="Group 39">
        <g id="Group_38" data-name="Group 38">
          <path id="Path_30" data-name="Path 30" d="M1311.435,400.291a35.464,35.464,0,1,1-35.464-35.464,35.462,35.462,0,0,1,35.464,35.464" fill="#e7c57e"/>
          <g id="Group_37" data-name="Group 37">
            <path id="Path_31" data-name="Path 31" d="M1297.244,402.6c-.552-.193-1.11-.372-1.67-.541a.942.942,0,0,1-.669-.659,11.958,11.958,0,0,0-2.6-4.4.638.638,0,0,1-.123-.481,14.151,14.151,0,0,0,.185-4.737c-.171-1.082-.68-1.667-1.511-1.7a4.912,4.912,0,0,0-1.189.118,21.289,21.289,0,0,0-5.1,1.871,2.514,2.514,0,0,1-1.857-.041,3.248,3.248,0,0,0,.159-.433c.2-.917.417-1.832.565-2.758a.8.8,0,0,0-.338-.614.658.658,0,0,0-.623.044,1.064,1.064,0,0,0-.307.658,7.363,7.363,0,0,1-4.6,6.367,1.328,1.328,0,0,1-.539.077c-1.256-.021-2.513-.054-3.769-.08a3.6,3.6,0,0,1-1.671-.114,7.419,7.419,0,0,1-4.195-7.995,7.442,7.442,0,0,1,12.671-3.951,12.494,12.494,0,0,1,1.309,1.794c.253.368.575.492.905.306a.658.658,0,0,0,.229-.932c-.024-.052-.054-.1-.082-.151a8.748,8.748,0,1,0-12.75,11.3c.107.075.209.158.354.268-.419.132-.777.231-1.122.356a.544.544,0,0,0-.4.706,1.239,1.239,0,0,0,.53.528c.1.061.3-.018.451-.065a17.008,17.008,0,0,1,10.505.007c.5.158.85.009.97-.4.115-.383-.084-.678-.576-.842-.3-.1-.6-.191-.967-.308a9.128,9.128,0,0,0,2.5-2.4.348.348,0,0,1,.269-.138c.333.056.661.147.984.224a.908.908,0,0,1,.016.165c-.013.1-.032.2-.048.3a7.9,7.9,0,0,0,0,3.029,4.952,4.952,0,0,0,5.207,3.886,3.211,3.211,0,0,0,3.15-2.157c.051-.127.115-.249.214-.463a2.674,2.674,0,0,0,.147.235,9.9,9.9,0,0,1,1.787,3.252,2.236,2.236,0,0,0,1.637,1.592c.482.134.953.3,1.426.462a1.161,1.161,0,0,1,.912,1.278q0,1.33,0,2.663A1.162,1.162,0,0,1,1296.7,409q-1.3.429-2.611.837a2.118,2.118,0,0,0-1.268.959,12.428,12.428,0,0,1-5.03,4.673,1.634,1.634,0,0,0-.917,1.287c-.239,1.423-.529,2.837-.782,4.258a.532.532,0,0,1-.636.512c-.829-.028-1.66-.02-2.492,0a.47.47,0,0,1-.555-.445c-.136-.774-.29-1.544-.433-2.317a1.065,1.065,0,0,0-1.358-1,27.882,27.882,0,0,1-6.6.141,1.061,1.061,0,0,0-1.319,1c-.138.744-.293,1.486-.42,2.232a.4.4,0,0,1-.465.385q-1.353-.008-2.707,0a.414.414,0,0,1-.462-.395c-.25-1.334-.542-2.66-.755-4a1.792,1.792,0,0,0-1-1.43,10.553,10.553,0,0,1-3.794-3.355,12.569,12.569,0,0,1-1.434-11.13,10.482,10.482,0,0,1,4.956-6.073.67.67,0,0,0,.322-.969.654.654,0,0,0-.976-.146,12.1,12.1,0,0,0-6,8.618,3.826,3.826,0,0,1-.12.41.656.656,0,0,1-.142-.377,2.876,2.876,0,0,0-1.766-2.493,1.815,1.815,0,0,0-2.337,1.042,1.563,1.563,0,0,0,.688,2.2,9.468,9.468,0,0,0,1.3.549c.136.056.281.085.455.136a3.154,3.154,0,0,1-2.327,1.39.968.968,0,0,0-.813.465v.516c.437.551,1.012.429,1.567.291a4.718,4.718,0,0,0,2.813-2.178,1.656,1.656,0,0,1,.357-.3,1.256,1.256,0,0,1,.088.525,15.065,15.065,0,0,0,.377,3.961,12.3,12.3,0,0,0,6.059,8.01.792.792,0,0,1,.453.61c.231,1.336.5,2.665.761,4a1.608,1.608,0,0,0,1.716,1.41q1.353,0,2.707,0a1.594,1.594,0,0,0,1.754-1.457c.138-.711.278-1.421.418-2.137.755.044,1.469.134,2.179.115,1.33-.032,2.657-.115,3.984-.2.382-.026.636-.053.686.459a15.532,15.532,0,0,0,.367,1.936,1.554,1.554,0,0,0,1.632,1.288c.945,0,1.891.005,2.836,0a1.553,1.553,0,0,0,1.642-1.33c.292-1.457.574-2.915.833-4.377a.7.7,0,0,1,.4-.549,13.976,13.976,0,0,0,5.366-5.01,1.114,1.114,0,0,1,.55-.427c.928-.329,1.874-.606,2.806-.928a2.352,2.352,0,0,0,1.648-2.312q.006-1.461,0-2.921A2.359,2.359,0,0,0,1297.244,402.6Zm-6.882-4.519a2.107,2.107,0,0,1-2.191,1.489,3.669,3.669,0,0,1-3.863-3.723,10.924,10.924,0,0,1,.177-1.915.9.9,0,0,1,.421-.591,22.4,22.4,0,0,1,5.425-1.945c.539-.1.647-.039.736.491s.113,1.05.14,1.314A14.49,14.49,0,0,1,1290.362,398.084Zm-33.308,4.3c-.267-.115-.455-.3-.251-.641.221-.367.48-.474.81-.307a1.869,1.869,0,0,1,.82,1.45C1257.921,402.7,1257.478,402.565,1257.054,402.384Z"/>
            <path id="Path_32" data-name="Path 32" d="M1276.005,387.943c-.141-.068-.3-.111-.429-.192-.085-.051-.2-.148-.2-.226-.015-.7-.01-1.394-.01-2.193.406.15.738.266,1.064.395a.491.491,0,0,0,.749-.361.529.529,0,0,0-.385-.7c-.454-.157-.926-.26-1.391-.385-.085-.209-.248-.46-.392-.45s-.291.271-.434.423l.055.113c-.152.036-.305.066-.455.105a2.025,2.025,0,0,0-.393,3.858c.217.107.455.174.669.286.1.05.22.166.222.254.018.811.011,1.621.011,2.439a2.119,2.119,0,0,1-1.39-.606c-.215-.182-.442-.365-.711-.11a.6.6,0,0,0-.1.883,3.507,3.507,0,0,0,1.026.733,5.976,5.976,0,0,0,1.147.294c-.026.025-.054.05-.08.076.141.159.267.434.426.454.427.052.341-.348.381-.605.059-.018.1-.032.137-.041a2.16,2.16,0,0,0,1.892-1.985A2.251,2.251,0,0,0,1276.005,387.943Zm-1.259-.539c-.764-.194-1.092-.564-1.043-1.135.042-.483.373-.746,1.043-.815Zm.554,3.851v-2.214a1.1,1.1,0,0,1,.968,1.143A.985.985,0,0,1,1275.3,391.255Z"/>
            <path id="Path_33" data-name="Path 33" d="M1291.86,403.271a2.1,2.1,0,0,1-4.2-.059.657.657,0,0,1,.588-.714.626.626,0,0,1,.7.594c.106.568.354.824.806.83.468.006.725-.257.828-.846a.633.633,0,0,1,.715-.575C1291.667,402.543,1291.875,402.827,1291.86,403.271Z"/>
          </g>
        </g>
      </g>
      <g id="Group_41" data-name="Group 41">
        <g id="Group_40" data-name="Group 40" clip-path="url(#clip-path-2)">
          <rect id="Rectangle_17" data-name="Rectangle 17" width="345.664" height="173.198" transform="translate(1275.563 400.291)" fill="none" stroke="#e7c57e" stroke-miterlimit="10" stroke-width="4"/>
          <rect id="Rectangle_18" data-name="Rectangle 18" width="345.664" height="173.198" transform="translate(1275.563 400.291)" fill="#231f20" stroke="#e7c57e" stroke-miterlimit="10" stroke-width="4" opacity="0.5"/>
        </g>
      </g>
      <text id="CHỨNG_MINH_SỐ_DƯ_TKNH" data-name="CHỨNG MINH SỐ DƯ TKNH" transform="translate(1318.563 367.367)" fill="#e7c57e" font-size="19" font-family="Mulish-ExtraBold, Mulish" font-weight="800" letter-spacing="0.028em"><tspan x="0" y="19">CHỨNG MINH SỐ DƯ TKNH</tspan></text>
      <g id="Group_44" data-name="Group 44">
        <g id="Group_43" data-name="Group 43">
          <g id="Group_42" data-name="Group 42">
            <text id="TÀI_KHOẢN_NH_VIỆT_NAM:_400.000_EUR_KHOẢNG_10_TỶ_VNĐ_" data-name="TÀI KHOẢN NH VIỆT NAM:
400.000 EUR
(KHOẢNG 10 TỶ VNĐ)" transform="translate(1276.732 441.236)" fill="#fff" font-size="16" font-family="Mulish-ExtraBold, Mulish" font-weight="800" letter-spacing="0.025em"><tspan x="64.431" y="16">TÀI KHOẢN NH VIỆT NAM:</tspan><tspan font-size="29"><tspan x="94.46" y="44">400.000</tspan><tspan y="44" xml:space="preserve" font-size="16"> EUR</tspan></tspan><tspan x="82.031" y="72">(KHOẢNG 10 TỶ VNĐ)</tspan></text>
          </g>
        </g>
      </g>
    </g>
    <g id="Group_54" data-name="Group 54">
      <g id="Group_48" data-name="Group 48">
        <g id="Group_47" data-name="Group 47">
          <path id="Path_35" data-name="Path 35" d="M348.417,400.291a35.464,35.464,0,1,1-35.464-35.464,35.462,35.462,0,0,1,35.464,35.464" fill="#e7c57e"/>
          <g id="Group_46" data-name="Group 46">
            <path id="Path_36" data-name="Path 36" d="M318.47,403.528a3.031,3.031,0,0,0-.334-1.231,4.215,4.215,0,0,0-1.846-1.772,16.435,16.435,0,0,0-6.835-1.82,22.792,22.792,0,0,0-4.323.055,16.867,16.867,0,0,0-5.623,1.437,4.613,4.613,0,0,0-2.814,2.957v8.791a3.83,3.83,0,0,0,.711,1.418,7,7,0,0,0,2.982,1.918,19.208,19.208,0,0,0,5.668,1.131,22.067,22.067,0,0,0,8.031-.883,8.28,8.28,0,0,0,3.343-1.8,2.939,2.939,0,0,0,1.053-2.159C318.489,408.89,318.5,406.209,318.47,403.528Zm-19.343-.739a6.533,6.533,0,0,1,2.668-1.37,20.33,20.33,0,0,1,7-.761,17.7,17.7,0,0,1,5.17.952,5.792,5.792,0,0,1,2.087,1.17.949.949,0,0,1,.007,1.606,6.642,6.642,0,0,1-2.668,1.372,20.138,20.138,0,0,1-5.821.8,19.326,19.326,0,0,1-6.316-.987,5.884,5.884,0,0,1-2.115-1.179A.948.948,0,0,1,299.127,402.789Zm-.455,4.374a6.017,6.017,0,0,0,0-.619,21.012,21.012,0,0,0,17.8.019c.1,1.181.107,1.514-1,2.236a9.587,9.587,0,0,1-3.214,1.225,21.655,21.655,0,0,1-5.869.457,16.809,16.809,0,0,1-5.14-.957,11.335,11.335,0,0,1-1.859-.956A1.392,1.392,0,0,1,298.672,407.163Zm16.776,5.627a11.769,11.769,0,0,1-3.8,1.322,22.27,22.27,0,0,1-6.989.182,13.28,13.28,0,0,1-4.437-1.242,6.843,6.843,0,0,1-1.027-.68,1.292,1.292,0,0,1-.524-1.191c.017-.212,0-.426,0-.676a21,21,0,0,0,17.787.024A1.9,1.9,0,0,1,315.448,412.79Z"/>
            <path id="Path_37" data-name="Path 37" d="M328.394,391.731a2.835,2.835,0,0,0-.685-1.842,6.785,6.785,0,0,0-2.993-1.952,19.214,19.214,0,0,0-5.7-1.137,22.106,22.106,0,0,0-8.033.888,8.3,8.3,0,0,0-3.294,1.767,3.086,3.086,0,0,0-1.091,2.393c.024,1.259,0,2.518.007,3.776a.989.989,0,1,0,1.976.013c0-.315,0-.63,0-.98a20.988,20.988,0,0,0,17.832,0c0,.263-.014.489,0,.711a1.272,1.272,0,0,1-.487,1.116,4.626,4.626,0,0,1-.618.462,9.356,9.356,0,0,1-2.956,1.13c-.986.2-1.989.327-2.984.489a.987.987,0,0,0-.874,1.139,1.017,1.017,0,0,0,1.156.831c.46-.056.922-.1,1.379-.175a14.615,14.615,0,0,0,5.169-1.667,1.961,1.961,0,0,1,.212-.088c0,.244-.016.462,0,.676a1.342,1.342,0,0,1-.541,1.213,7.046,7.046,0,0,1-2.61,1.292c-.679.2-1.379.331-2.066.51a.991.991,0,0,0-.711,1.175,1.015,1.015,0,0,0,1.088.764,13.879,13.879,0,0,0,4.656-1.569,1.268,1.268,0,0,1,.18-.067c0,.222-.016.419,0,.613a1.387,1.387,0,0,1-.588,1.286,7.2,7.2,0,0,1-2.563,1.25c-.68.2-1.379.331-2.066.511a.989.989,0,0,0-.711,1.174,1.014,1.014,0,0,0,1.088.764,13.886,13.886,0,0,0,4.656-1.569,1.268,1.268,0,0,1,.18-.067c0,.223-.016.419,0,.613a1.387,1.387,0,0,1-.588,1.286,7.2,7.2,0,0,1-2.563,1.251c-.68.2-1.379.331-2.066.51a.99.99,0,0,0-.711,1.174,1,1,0,0,0,1.149.751c.554-.111,1.108-.229,1.655-.372a11.038,11.038,0,0,0,3.12-1.292c0,.274-.016.482,0,.685a1.331,1.331,0,0,1-.542,1.216,4.77,4.77,0,0,1-.574.417,9.345,9.345,0,0,1-2.958,1.127c-1,.2-2.009.329-3.014.494a.991.991,0,0,0,.273,1.962c1.258-.206,2.524-.386,3.762-.678a8.944,8.944,0,0,0,3.739-1.767,3.18,3.18,0,0,0,1.292-2.522Q328.387,401.573,328.394,391.731Zm-2.438.773a6.685,6.685,0,0,1-2.669,1.369c-.158.049-.317.1-.475.139l-.16.044c-.116.031-.231.06-.347.087q-.094.024-.189.045l-.022.005-.163.036c-.081.017-.162.035-.243.05l-.1.019-.138.026-.153.027c-.1.018-.193.034-.29.049-.081.013-.162.026-.243.037s-.181.026-.271.037c-.069.01-.138.018-.207.027l-.217.025-.217.023c-.122.012-.243.023-.366.033l-.229.018c-.1.008-.207.015-.31.021h-.011l-.3.016c-.084.005-.169.009-.253.012l-.369.013c-.185.006-.37.009-.555.012l-.1,0-.1,0-.294-.008c-.132,0-.263-.009-.394-.015-.067,0-.135-.005-.2-.009l-.2-.011-.2-.012-.216-.015-.3-.023c-.2-.017-.395-.036-.593-.059l-.194-.022-.207-.026-.247-.035-.259-.04c-.068-.01-.135-.022-.2-.033l-.175-.031c-.058-.01-.117-.021-.174-.033h0c-.058-.011-.116-.022-.173-.035s-.117-.023-.174-.036-.111-.023-.166-.037l-.2-.045c-.065-.016-.13-.031-.194-.048l-.179-.047-.091-.025c-.14-.037-.279-.077-.419-.121l-.043-.013-.17-.053-.132-.044-.126-.042-.191-.068a5.848,5.848,0,0,1-2.114-1.182.948.948,0,0,1,0-1.6,6.47,6.47,0,0,1,2.639-1.36,20.3,20.3,0,0,1,6.995-.768,17.722,17.722,0,0,1,5.172.947,5.837,5.837,0,0,1,2.114,1.181A.949.949,0,0,1,325.956,392.5Z"/>
          </g>
        </g>
      </g>
      <g id="Group_50" data-name="Group 50">
        <g id="Group_49" data-name="Group 49" clip-path="url(#clip-path-3)">
          <rect id="Rectangle_19" data-name="Rectangle 19" width="388.767" height="173.198" transform="translate(312.545 400.291)" fill="none" stroke="#e7c57e" stroke-miterlimit="10" stroke-width="4"/>
          <rect id="Rectangle_20" data-name="Rectangle 20" width="388.767" height="173.198" transform="translate(312.545 400.291)" fill="#231f20" stroke="#e7c57e" stroke-miterlimit="10" stroke-width="4" opacity="0.5"/>
        </g>
      </g>
      <text id="CHI_PHÍ_LÀM_THẺ" data-name="CHI PHÍ LÀM THẺ" transform="translate(355.953 367.367)" fill="#e7c57e" font-size="19" font-family="Mulish-ExtraBold, Mulish" font-weight="800" letter-spacing="0.028em"><tspan x="0" y="19">CHI PHÍ LÀM THẺ</tspan></text>
      <g id="Group_53" data-name="Group 53">
        <g id="Group_52" data-name="Group 52">
          <g id="Group_51" data-name="Group 51">
            <text id="LÀM_THẺ:_65.000_EUR_ĐẦU_TƯ_BĐS_TỐI_THIỂU:_175.000_EUR_TỔNG_CHI_PHÍ_TỐI_THIỂU_240.000_EUR_" data-name="LÀM THẺ: 65.000 EUR
ĐẦU TƯ BĐS TỐI THIỂU: 175.000 EUR
(TỔNG CHI PHÍ TỐI THIỂU 240.000 EUR)" transform="translate(312.545 444.235)" fill="#fff" font-size="16" font-family="Mulish-ExtraBold, Mulish" font-weight="800" letter-spacing="0.025em"><tspan x="105.84" y="16">LÀM THẺ: 65.000 EUR</tspan><tspan x="41.192" y="44">ĐẦU TƯ BĐS TỐI THIỂU: 175.000 EUR</tspan><tspan x="31.112" y="72">(TỔNG CHI PHÍ TỐI THIỂU 240.000 EUR)</tspan></text>
          </g>
        </g>
      </g>
    </g>
  </g>
</svg>
