<svg xmlns="http://www.w3.org/2000/svg" xmlns:xlink="http://www.w3.org/1999/xlink" width="1082.656" height="378.139"
     viewBox="0 0 1082.656 378.139">
    <style>
        @font-face {
        font-family: 'Mulish-SemiBold';
        src: url("/fonts/Mulish-SemiBold.ttf");
        }
        @font-face {
        font-family: 'Mulish-ExtraBold';
        src: url("/fonts/Mulish-ExtraBold.ttf");
        }
        .text2 {
        font-family: Mulish-ExtraBold, sans-serif;
        font-weight: bold;
        }
    </style>
    <defs>
        <clipPath id="clip-path">
            <path id="Path_41" data-name="Path 41"
                  d="M1514.025,477.778a67.648,67.648,0,0,1-77.591,86.372V816.616H2473.4V477.778Z" fill="none"/>
        </clipPath>
    </defs>
    <g id="Group_59" data-name="Group 59" transform="translate(-1390.745 -438.477)">
        <g id="Group_55" data-name="Group 55">
            <g id="Group_54" data-name="Group 54">
                <path id="Path_38" data-name="Path 38"
                      d="M1502.506,494.357a55.88,55.88,0,1,1-55.88-55.88,55.878,55.878,0,0,1,55.88,55.88"
                      fill="#e7c57e"/>
                <g id="Group_53" data-name="Group 53">
                    <path id="Path_39" data-name="Path 39"
                          d="M1454.5,497.4a4.774,4.774,0,0,0-.529-1.948,6.672,6.672,0,0,0-2.921-2.8,26.014,26.014,0,0,0-10.822-2.882,36.052,36.052,0,0,0-6.843.087,26.7,26.7,0,0,0-8.9,2.274c-2.063.991-3.837,2.3-4.454,4.682v13.917a6.045,6.045,0,0,0,1.125,2.245,11.077,11.077,0,0,0,4.72,3.036,30.412,30.412,0,0,0,8.974,1.791,34.935,34.935,0,0,0,12.713-1.4,13.112,13.112,0,0,0,5.293-2.847,4.653,4.653,0,0,0,1.667-3.417C1454.526,505.888,1454.543,501.643,1454.5,497.4Zm-30.622-1.17a10.353,10.353,0,0,1,4.224-2.169,32.182,32.182,0,0,1,11.075-1.2,28.015,28.015,0,0,1,8.185,1.507,9.16,9.16,0,0,1,3.3,1.852,1.5,1.5,0,0,1,.011,2.543,10.521,10.521,0,0,1-4.223,2.171,31.881,31.881,0,0,1-9.216,1.272,30.593,30.593,0,0,1-10-1.563,9.292,9.292,0,0,1-3.349-1.867A1.5,1.5,0,0,1,1423.874,496.229Zm-.721,6.924a9.276,9.276,0,0,0,.005-.979c4.433,2.436,9.2,3.144,14.108,3.146s9.677-.706,14.068-3.117c.157,1.871.17,2.4-1.582,3.54a15.167,15.167,0,0,1-5.089,1.94,34.3,34.3,0,0,1-9.291.723,26.6,26.6,0,0,1-8.137-1.514,18.133,18.133,0,0,1-2.942-1.513A2.208,2.208,0,0,1,1423.153,503.153Zm26.558,8.909a18.662,18.662,0,0,1-6.013,2.093,35.265,35.265,0,0,1-11.065.287,21,21,0,0,1-7.023-1.966,10.993,10.993,0,0,1-1.627-1.077,2.041,2.041,0,0,1-.828-1.885c.027-.335,0-.674,0-1.069,4.44,2.439,9.213,3.147,14.117,3.147s9.677-.706,14.042-3.109A3.007,3.007,0,0,1,1449.711,512.062Z"/>
                    <path id="Path_40" data-name="Path 40"
                          d="M1470.207,478.724a4.492,4.492,0,0,0-1.084-2.917,10.74,10.74,0,0,0-4.739-3.089,30.419,30.419,0,0,0-9.026-1.8,34.94,34.94,0,0,0-12.717,1.407,13.109,13.109,0,0,0-5.216,2.8,4.888,4.888,0,0,0-1.727,3.789c.038,1.992.005,3.986.011,5.978a1.565,1.565,0,1,0,3.129.021c.006-.5,0-1,0-1.553,4.446,2.441,9.218,3.147,14.123,3.147s9.675-.709,14.106-3.146c0,.416-.023.774.005,1.126a2.01,2.01,0,0,1-.771,1.766,7.444,7.444,0,0,1-.978.731,14.784,14.784,0,0,1-4.68,1.789c-1.562.323-3.149.518-4.724.775a1.562,1.562,0,0,0-1.384,1.8,1.609,1.609,0,0,0,1.83,1.315c.728-.089,1.459-.162,2.184-.277a23.135,23.135,0,0,0,8.182-2.639,3.1,3.1,0,0,1,.336-.14c0,.387-.025.732.007,1.071a2.129,2.129,0,0,1-.857,1.921,11.182,11.182,0,0,1-4.132,2.045c-1.075.319-2.184.524-3.271.807a1.57,1.57,0,0,0-1.126,1.86,1.606,1.606,0,0,0,1.724,1.209,21.942,21.942,0,0,0,7.369-2.483,1.945,1.945,0,0,1,.286-.107,9.685,9.685,0,0,0,.007.971,2.2,2.2,0,0,1-.931,2.035,11.384,11.384,0,0,1-4.058,1.98c-1.076.318-2.184.524-3.27.808a1.57,1.57,0,0,0-1.127,1.86,1.608,1.608,0,0,0,1.724,1.209,22.017,22.017,0,0,0,7.369-2.484,1.955,1.955,0,0,1,.286-.106,9.686,9.686,0,0,0,.007.971,2.2,2.2,0,0,1-.931,2.035,11.426,11.426,0,0,1-4.058,1.98c-1.076.318-2.184.524-3.271.807a1.57,1.57,0,0,0-1.126,1.86,1.589,1.589,0,0,0,1.819,1.188c.878-.175,1.754-.363,2.621-.589a17.437,17.437,0,0,0,4.939-2.045c0,.433-.025.762.007,1.085a2.113,2.113,0,0,1-.858,1.924,7.5,7.5,0,0,1-.91.66,14.8,14.8,0,0,1-4.682,1.785c-1.577.323-3.181.52-4.772.782a1.568,1.568,0,0,0,.433,3.105c1.991-.325,4-.61,5.956-1.073a14.143,14.143,0,0,0,5.918-2.8,5.032,5.032,0,0,0,2.046-3.992Q1470.193,494.3,1470.207,478.724Zm-3.861,1.223a10.565,10.565,0,0,1-4.225,2.167c-.25.079-.5.152-.751.221-.085.023-.169.047-.254.069q-.274.074-.549.138c-.1.025-.2.048-.3.07l-.034.009c-.086.02-.172.038-.259.056-.128.029-.257.056-.385.08l-.151.03-.217.041c-.081.015-.162.03-.243.043-.153.029-.306.054-.459.078-.128.021-.257.04-.384.059l-.43.059-.328.041-.342.04c-.114.013-.228.024-.344.036-.193.02-.385.037-.579.053-.12.01-.242.02-.364.028-.163.013-.326.024-.491.034h-.017c-.157.01-.315.018-.474.026-.133.007-.267.013-.4.018-.194.009-.389.015-.584.021-.292.01-.586.015-.878.019l-.159,0-.16,0c-.156,0-.311-.007-.465-.012-.209-.006-.416-.015-.624-.024-.107,0-.213-.008-.32-.014l-.321-.017-.32-.02-.342-.023c-.156-.011-.311-.024-.467-.037q-.469-.039-.939-.092l-.307-.036q-.164-.02-.327-.042c-.131-.017-.262-.035-.392-.055s-.274-.04-.41-.062c-.107-.016-.214-.035-.319-.053s-.186-.032-.278-.049-.184-.033-.275-.052h0c-.093-.018-.183-.035-.274-.055s-.186-.037-.276-.058-.176-.037-.263-.058q-.155-.035-.309-.072c-.1-.024-.207-.049-.308-.076s-.188-.048-.283-.074c-.048-.012-.1-.025-.145-.039q-.331-.088-.662-.191l-.069-.021c-.09-.027-.179-.056-.269-.085-.07-.022-.139-.045-.209-.069l-.2-.067c-.1-.035-.2-.07-.3-.107a9.257,9.257,0,0,1-3.346-1.871,1.5,1.5,0,0,1,0-2.542,10.263,10.263,0,0,1,4.178-2.153,32.159,32.159,0,0,1,11.075-1.215,28.046,28.046,0,0,1,8.187,1.5,9.232,9.232,0,0,1,3.346,1.87A1.5,1.5,0,0,1,1466.346,479.947Z"/>
                </g>
            </g>
        </g>
        <g id="Group_57" data-name="Group 57">
            <g id="Group_56" data-name="Group 56" clip-path="url(#clip-path)">
                <rect id="Rectangle_19" data-name="Rectangle 19" width="1013.326" height="235.928"
                      transform="translate(1445.982 494.357)" fill="none" stroke="#e7c57e" stroke-miterlimit="10"
                      stroke-width="4"/>
                <rect id="Rectangle_20" data-name="Rectangle 20" width="1013.326" height="235.928"
                      transform="translate(1445.982 494.357)" fill="#231f20" stroke="#e7c57e" stroke-miterlimit="10"
                      stroke-width="4" opacity="0.5"/>
            </g>
        </g>
        <text id="CHI_PHÍ_LÀM_THẺ" data-name="CHI PHÍ LÀM THẺ" transform="translate(1515.157 439.254)" fill="#e7c57e"
              font-size="39.031" font-family="Mulish-ExtraBold, Mulish" font-weight="800" letter-spacing="0.028em">
            <tspan x="0" y="39">CHI PHÍ LÀM THẺ</tspan>
        </text>
        <g id="Group_58" data-name="Group 58">
            <text class="text2" id="CHI_PHÍ_LÀM_THẺ:_65.000_EUR_ĐẦU_TƯ_BĐS_TỐI_THIỂU:_175.000_EUR_TỔNG_CHI_PHÍ_TỐI_THIỂU_240.000_EUR_"
                  data-name="CHI PHÍ LÀM THẺ: 65.000 EUR
ĐẦU TƯ BĐS TỐI THIỂU: 175.000 EUR
(TỔNG CHI PHÍ TỐI THIỂU 240.000 EUR)" transform="translate(1448.109 530.541)" fill="#fff" font-size="31"
                  letter-spacing="0.05em">
                <tspan x="200" y="31">CHI PHÍ LÀM THẺ:</tspan>
                <tspan y="31" fill="#e7c57e" font-size="45">65.000</tspan>
                <tspan y="31" fill="#e7c57e" font-size="31"> EUR</tspan>
                <tspan x="196.39" y="87.873">ĐẦU TƯ BĐS TỐI THIỂU: 175.000 EUR</tspan>
                <tspan x="175.697" y="144.747">(TỔNG CHI PHÍ TỐI THIỂU 240.000 EUR)</tspan>
            </text>
        </g>
    </g>
</svg>
