<svg xmlns="http://www.w3.org/2000/svg" xmlns:xlink="http://www.w3.org/1999/xlink" width="158.525" height="158.525" viewBox="0 0 158.525 158.525">
  <defs>
    <linearGradient id="linear-gradient" y1="0.5" x2="1" y2="0.5" gradientUnits="objectBoundingBox">
      <stop offset="0" stop-color="#121624"/>
      <stop offset="0.749" stop-color="#121624"/>
      <stop offset="1" stop-color="#121624"/>
    </linearGradient>
  </defs>
  <g id="Group_14" data-name="Group 14" transform="translate(-3202.765 -1848.225)">
    <path id="Path_5" data-name="Path 5" d="M3282.028,2002.75a75.263,75.263,0,1,1,75.262-75.262,75.262,75.262,0,0,1-75.262,75.262" fill="#e7c57e" stroke="#e7c57e" stroke-miterlimit="10" stroke-width="8" opacity="0.26"/>
    <g id="Group_13" data-name="Group 13">
      <path id="Path_6" data-name="Path 6" d="M3282.028,2002.75a75.263,75.263,0,1,1,75.262-75.262,75.262,75.262,0,0,1-75.262,75.262" fill="#e7c57e"/>
      <path id="Path_7" data-name="Path 7" d="M3255.44,1897.731a9.069,9.069,0,0,1,12.82-.315l3.813,3.626a9.072,9.072,0,0,1,.318,12.821l-2.377,2.5h0a9.038,9.038,0,0,1-4.167,2.5l-.708.193a1.568,1.568,0,0,0-1.009,2.175l.31.667A46.359,46.359,0,0,0,3288.372,1945l.6.255a1.566,1.566,0,0,0,2.085-.91l.221-.609a9.025,9.025,0,0,1,1.951-3.141l2.377-2.5a9.063,9.063,0,0,1,12.819-.317l3.814,3.628a9.079,9.079,0,0,1,.318,12.819l-2.379,2.5a9.232,9.232,0,0,1-2.3,1.751,13.412,13.412,0,0,1-8.225,1.476,58.092,58.092,0,0,1-50.437-47.995c-.889-5.309,1.133-9.141,2.708-10.421a1.435,1.435,0,0,0,.146-.135l.111-.116a1.674,1.674,0,0,0,.131-.157,8.841,8.841,0,0,1,.748-.9Z" fill="url(#linear-gradient)"/>
    </g>
  </g>
</svg>
