<svg xmlns="http://www.w3.org/2000/svg" viewBox="0 0 482.89 211.23"><defs><style>.cls-1{fill:#bc202e;}</style></defs><g id="Layer_2" data-name="Layer 2"><g id="Layer_1-2" data-name="Layer 1"><path d="M2.58,30.55c.19,0,2-.26,2-3.11V15.78H3v-.45H4.57V4.44c0-2.86-1.8-3.12-2-3.12v0H13.29c5.94,0,9.32,1.31,12.11,4.17,2.18,2.22,3.3,5.41,3.3,9.21a15.77,15.77,0,0,1-5.11,11.87c-2.74,2.45-7,4.06-13,4.06h-8Zm8.27-.41c4.62,0,8-1.24,10.3-3.19,3.23-2.82,4.62-7.14,4.62-11.47,0-3.6-.75-7-2.74-9.47s-4.85-4.28-10.3-4.28H7.43v13.6h4.06v.45H7.43V30.14Z"/><path d="M31.7,9.21v0h4.44V28c0,2.37,1.5,2.59,1.65,2.59v0H31.7v0c.15,0,1.66-.22,1.66-2.59V11.8C33.36,9.43,31.85,9.21,31.7,9.21Zm2.86-5.75a1.73,1.73,0,1,1-1.73,1.73A1.75,1.75,0,0,1,34.56,3.46Z"/><path d="M41.4,20.52c0-6.24,3.53-11.73,10.82-11.73,4.66,0,7.14,2.79,7.14,5.57,0,4.54-5.86,5.45-15.11,5.45.08,6.39,3.42,10.26,7.93,10.26,4.29,0,6.28-2.48,6.92-3.87h0C58.57,28,56.43,31,51.39,31,43.88,31,41.4,25.18,41.4,20.52Zm15.37-6.69a4.29,4.29,0,0,0-4.55-4.51c-4.43,0-7.67,3.95-8,10C53.35,19.35,56.77,17,56.77,13.83ZM46.58,8.23a20.14,20.14,0,0,0,5.23-2.29h.07a20.14,20.14,0,0,0,5.23,2.29l.07,0a14.19,14.19,0,0,1-5.3-4.92h-.07a14.19,14.19,0,0,1-5.3,4.92Zm7.07-4.92,1.58-2.18h0a12,12,0,0,0,5.53,4.92l0,0c-2.14-.11-5.22-1.62-7.1-2.74Z"/><path d="M65,28.15a8,8,0,0,1-1-4V11.8c0-2.37-1.51-2.59-1.66-2.59v0H66.8V23.08a10.3,10.3,0,0,0,.75,4.21,4.6,4.6,0,0,0,4.51,2.78A7.45,7.45,0,0,0,79.2,23.9V11.8c0-2.37-1.5-2.59-1.65-2.59v0H82V28c0,2.37,1.5,2.59,1.66,2.59v0H79.2v-5A8.07,8.07,0,0,1,71.35,31C68.49,31,66.2,30.07,65,28.15Z"/><path d="M111.59,36a10.24,10.24,0,0,0,1.5-5.9V27a7.27,7.27,0,0,1-6.87,4c-6.92,0-9.66-5.45-9.66-10.9,0-6.58,4.24-11.28,10.44-11.28a7,7,0,0,1,6.09,3V9.17h4.44v0c-.15,0-1.66.22-1.66,2.59V29c0,1.57.12,4-1.12,6.05-1.13,1.91-3.65,3.68-8.27,3.68-4,0-6.09-1.13-7.44-1.13V31.34h0c.27,2,.79,3.95,1.73,5,1.54,1.69,3.72,1.84,5.6,1.84A6.27,6.27,0,0,0,111.59,36ZM107,30.07c3.23,0,5.86-2.18,6.12-4.74V12.85c-.6-1.61-2.74-3.15-5.52-3.15-4.06,0-8.16,2.74-8.16,10C99.41,26.2,102.38,30.07,107,30.07Z"/><path d="M120.19,4.06l1.58-2.18h0a12,12,0,0,0,5.52,4.92l0,0c-2.14-.11-5.22-1.62-7.1-2.74Zm.64,5.15v0h4.43V28c0,2.37,1.51,2.59,1.66,2.59v0h-6.09v0c.15,0,1.65-.22,1.65-2.59V11.8C122.48,9.43,121,9.21,120.83,9.21Z"/><path d="M139.54,30.55c.15,0,1.66-.22,1.66-2.59V3.16c0-2.37-1.51-2.6-1.66-2.6v0H144V28c0,2.37,1.5,2.59,1.65,2.59v0h-6.09Zm12.82-19.16c1.61-1.43,0-2.18,0-2.18v0h6.08v0a15.51,15.51,0,0,0-5.78,2.89L145,18.27h3.31c3.08,0,4.09.6,5.52,3.53l2.78,5.64c.68,1.39,1.66,2.55,3.46,1.69l0,0c-1.92,1.28-2.9,1.58-3.72,1.58-1.17,0-1.77-.52-2.78-2.59l-2.3-4.77c-1.69-3.54-2.55-4.66-6.5-4.66H144Z"/><path d="M161.79.56v0h4.43V14.21a8.07,8.07,0,0,1,7.86-5.42c2.85,0,5.14.91,6.35,2.82a7.87,7.87,0,0,1,1,4V28c0,2.37,1.51,2.59,1.66,2.59v0H177v0c.15,0,1.65-.22,1.65-2.59V16.69a10.27,10.27,0,0,0-.75-4.21,4.6,4.6,0,0,0-4.51-2.78,7.45,7.45,0,0,0-7.14,6.16V28c0,2.37,1.5,2.59,1.65,2.59v0h-6.08v0c.15,0,1.65-.22,1.65-2.59V3.16C163.44.79,161.94.56,161.79.56Z"/><path d="M185.76,9.21v0h4.43V28c0,2.37,1.51,2.59,1.66,2.59v0h-6.09v0c.15,0,1.65-.22,1.65-2.59V11.8C187.41,9.43,185.91,9.21,185.76,9.21Zm2.85-5.75a1.73,1.73,0,1,1-1.72,1.73A1.75,1.75,0,0,1,188.61,3.46Z"/><path d="M195.45,20.52c0-6.24,3.54-11.73,10.83-11.73,4.66,0,7.14,2.79,7.14,5.57,0,4.54-5.87,5.45-15.11,5.45.07,6.39,3.42,10.26,7.93,10.26,4.28,0,6.28-2.48,6.91-3.87h0c-.56,1.84-2.7,4.77-7.74,4.77C197.93,31,195.45,25.18,195.45,20.52Zm15.37-6.69a4.29,4.29,0,0,0-4.54-4.51c-4.44,0-7.67,3.95-8,10C207.4,19.35,210.82,17,210.82,13.83Zm-10.18-5.6a19.91,19.91,0,0,0,5.22-2.29h.08a20.06,20.06,0,0,0,5.22,2.29l.08,0a14.12,14.12,0,0,1-5.3-4.92h-.08a14,14,0,0,1-5.3,4.92ZM214,0h0l1.58,2.18v0c-1.88,1.13-5,2.63-7.11,2.74l0,0A11.94,11.94,0,0,0,214,0Z"/><path d="M216.72,9.21v0h4.43v5A8.08,8.08,0,0,1,229,8.79c2.86,0,5.15.91,6.35,2.82a7.87,7.87,0,0,1,1,4V28c0,2.37,1.5,2.59,1.65,2.59v0H231.9v0c.15,0,1.66-.22,1.66-2.59V16.69a10.44,10.44,0,0,0-.75-4.21A4.61,4.61,0,0,0,228.3,9.7a7.47,7.47,0,0,0-7.15,6.16V28c0,2.37,1.51,2.59,1.66,2.59v0h-6.09v0c.15,0,1.65-.22,1.65-2.59V11.8C218.37,9.43,216.87,9.21,216.72,9.21Z"/><path class="cls-1" d="M2.55,85.59c.24,0,2.37-.35,2.37-4.06V70.3H3.3v-.9H4.92V59c0-3.71-2.13-4.06-2.37-4.06v0h12.1c6.46,0,10.2,1.85,12.64,4.61,2.53,3,3.12,6.81,3.12,10A17.18,17.18,0,0,1,25.92,81c-2.61,2.68-6.58,4.65-12.49,4.65H2.55Zm10.68-.83a10.26,10.26,0,0,0,7.84-3.27c2.68-3,3.82-7.64,3.82-11.9a18.49,18.49,0,0,0-2.05-8.94,9.37,9.37,0,0,0-8.67-4.88H10.35V69.4h4.53v.9H10.35V84.76Z"/><path class="cls-1" d="M30.28,85.55c.36,0,2.76-.63,4.3-4.53l8.23-20.84c1.78-4.49-1.18-5.2-1.34-5.2V54.9h7.29l8.71,25.73c1.46,4.29,3.55,4.92,3.86,4.92v.08h-10v-.08c.08,0,2-.51.71-4.29l-1.69-5.05H37.46l-2,5c-1.46,3.78.59,4.37.67,4.37v.08H30.28ZM50,75.35,44.39,58.64,37.77,75.35ZM39.54,53.64a15.31,15.31,0,0,0,6.23-2.29h.08a15.32,15.32,0,0,0,6.22,2.29l.08,0a18,18,0,0,1-6.3-5.6h-.08a18.71,18.71,0,0,1-6.31,5.6Zm8-5.83,2-2.72h.08c1.58,2.32,4.45,5.16,6.22,5.79l-.07.12a22.05,22.05,0,0,1-8.2-3.07Z"/><path class="cls-1" d="M81.66,54.94v0H91.78v0c-.23,0-2.32.35-2.32,4.06V81.53c0,3.71,2.09,4.06,2.32,4.06v0H84V80.47A10.37,10.37,0,0,1,74.6,86c-7.13,0-9.84-4-9.84-9.61V59c0-3.71-2.13-4.06-2.37-4.06v0H72.52v0c-.24,0-2.33.35-2.33,4.06V76.17c0,5.13,1.89,8.63,6.15,8.63,3.78,0,7.68-3.35,7.68-6.89V59C84,55.29,81.89,54.94,81.66,54.94Z"/><path class="cls-1" d="M104.39,61.08h-.08V54.9H129v6.18h0c0-.51-.39-5.31-4.53-5.31h-5V81.53c0,3.71,2.12,4.06,2.32,4.06v0H111.6v0c.19,0,2.32-.35,2.32-4.06V55.77h-5C104.74,55.77,104.39,60.57,104.39,61.08Z"/><path class="cls-1" d="M132.87,76.41V59c0-3.71-2.13-4.06-2.37-4.06v0h10.13v0c-.24,0-2.33.35-2.33,4.06V76.17c0,5.13,1.9,8.63,6.15,8.63,3.78,0,7.68-3.35,7.68-6.89V59c0-3.71-2.12-4.06-2.36-4.06v0h7.8v1.54a2,2,0,0,0,.87-1.42c0-.44,0-1.38-1.54-1.85v0l3.23-1.93a3.47,3.47,0,0,1,.87,2.52c-.28,1.73-2.17,2.79-3.43,3.27V81.53c0,3.71,2.09,4.06,2.32,4.06v0h-7.76V80.47A10.36,10.36,0,0,1,142.72,86C135.59,86,132.87,82,132.87,76.41Z"/><path class="cls-1" d="M188.61,69c4.57,0,8.83,2.64,8.83,8.2a7.17,7.17,0,0,1-3,6.26c-1.85,1.5-4.77,2.21-8.47,2.21H175.18v0c.23,0,2.36-.35,2.36-4.06V59c0-3.71-2.13-4.06-2.36-4.06v0h11.66c3.62,0,6,.71,7.44,2a5.82,5.82,0,0,1,2,4.65C196.25,66.88,190.7,69,188.61,69Zm-3.19-.35c3.23,0,5.63-2.36,5.67-6.82A6.7,6.7,0,0,0,190,57.58a4.67,4.67,0,0,0-4-1.81h-3V68.61Zm.32,16.15a5.52,5.52,0,0,0,4.68-2.09A8.29,8.29,0,0,0,192,77.4c0-4-1.58-7.92-6.54-7.92H183V84.76Z"/><path class="cls-1" d="M197.87,85.55c.35,0,2.76-.63,4.29-4.53l8.24-20.84c1.77-4.49-1.19-5.2-1.34-5.2V54.9h7.29l8.7,25.73c1.46,4.29,3.55,4.92,3.86,4.92v.08h-10v-.08c.08,0,2-.51.71-4.29l-1.7-5.05H205l-2,5c-1.46,3.78.59,4.37.67,4.37v.08h-5.87Zm19.74-10.2L212,58.64l-6.62,16.71ZM207.13,53.64a15.32,15.32,0,0,0,6.22-2.29h.08a15.31,15.31,0,0,0,6.23,2.29l.07,0a18,18,0,0,1-6.3-5.6h-.08a18.67,18.67,0,0,1-6.3,5.6Zm15.28-10h.08l2,2.72v.12a21.65,21.65,0,0,1-8.19,3.07l-.08-.12C218,48.79,220.84,46,222.41,43.63Z"/><path class="cls-1" d="M228.28,61.08h-.08V54.9h24.66v6.18h0c0-.51-.4-5.31-4.54-5.31h-5V81.53c0,3.71,2.13,4.06,2.33,4.06v0H235.49v0c.2,0,2.32-.35,2.32-4.06V55.77h-5C228.63,55.77,228.28,60.57,228.28,61.08Z"/><path class="cls-1" d="M265.39,85.59c.24,0,2.36-.35,2.36-4.06V70.3h-1.61v-.9h1.61V59c0-3.71-2.12-4.06-2.36-4.06v0h12.1c6.46,0,10.2,1.85,12.64,4.61,2.52,3,3.11,6.81,3.11,10A17.13,17.13,0,0,1,288.75,81c-2.6,2.68-6.58,4.65-12.49,4.65H265.39Zm10.68-.83a10.27,10.27,0,0,0,7.84-3.27c2.68-3,3.82-7.64,3.82-11.9a18.49,18.49,0,0,0-2.05-8.94A9.38,9.38,0,0,0,277,55.77h-3.82V69.4h4.53v.9h-4.53V84.76Z"/><path class="cls-1" d="M296.71,70.26c0-8.66,5.2-15.91,15-15.91s15,7.25,15,15.91-5.2,15.92-15,15.92S296.71,78.93,296.71,70.26Zm15,15c6.11,0,9.42-6.42,9.42-15s-3.31-15-9.42-15-9.42,6.43-9.42,15S305.57,85.27,311.68,85.27ZM305,53.17a16.84,16.84,0,0,0,6.7-2.53h.08a16.42,16.42,0,0,0,6.66,2.53l.08,0a20.06,20.06,0,0,1-6.74-6.23h-.08a20.57,20.57,0,0,1-6.78,6.23Zm6.7,34.74a2.19,2.19,0,1,1-2.21,2.17A2.15,2.15,0,0,1,311.68,87.91Z"/><path class="cls-1" d="M330.08,85.59c.19,0,2.4-.35,2.4-4.06V59c0-3.71-2.13-4.06-2.33-4.06v0h6.43L354,76.84V59c0-3.71-2.21-4.06-2.4-4.06v0h5.75v0c-.2,0-2.4.35-2.4,4.06V85.87l-21.56-27V81.53c0,3.71,2.21,4.06,2.41,4.06v0h-5.75Z"/><path class="cls-1" d="M360.65,70.66c0-8.95,5.24-16.31,16.66-16.31,4.57,0,7.84,1.46,9.46,1.46v6.81h-.08a9.11,9.11,0,0,0-2.29-5.08c-1.61-1.5-4.06-2.29-7.13-2.29-7.68,0-11.07,6.5-11.07,15.41,0,8,3,14.61,10.4,14.61a16.14,16.14,0,0,0,4.53-.74V72.63c0-3.71-2.13-4-2.36-4v-.08h10.32v.08c-.2,0-2.32.31-2.32,4V84.17c-1,0-6.11,2-10.48,2C364.7,86.18,360.65,78.7,360.65,70.66Z"/><path class="cls-1" d="M403.27,62.38c0-5,4.33-8,10.32-8,3.51,0,5.52.55,8,.55v6.38h-.08a7.05,7.05,0,0,0-2-4.33c-1.18-1-3-1.7-5.79-1.7-3.43,0-6.42,1.58-6.42,4.65,0,2.76,2.32,4.3,4.61,5.68l5.24,3.11c4,2.36,6.07,5.2,6.07,8.78,0,4.77-3.83,8.4-11,8.4-2.6,0-5.39-.28-8.39-.32V77.87h0a8.89,8.89,0,0,0,2,4.92C407,84.09,409.1,85,411.94,85c4.88,0,6.73-2.44,6.73-5.28,0-2.32-1.22-4.18-4.68-6.23l-5.44-3.23C405.32,68.37,403.27,66.17,403.27,62.38Z"/><path class="cls-1" d="M423.4,85.55c.35,0,2.76-.63,4.29-4.53l8.24-20.84c1.77-4.49-1.18-5.2-1.34-5.2V54.9h7.29l8.7,25.73c1.46,4.29,3.55,4.92,3.87,4.92v.08h-10v-.08c.08,0,2-.51.71-4.29l-1.7-5.05H430.57l-2,5c-1.46,3.78.59,4.37.67,4.37v.08H423.4Zm19.74-10.2L437.5,58.64l-6.61,16.71ZM438.8,45.64c1.5,0,3.24.63,3.24,2.29,0,2.44-3.94,2.63-3.94,4.8a.27.27,0,0,1-.2-.27c0-2.6,1.34-2.8,1.34-4.65,0-.91-.44-1.22-.95-1.22-1.26,0-2,1.73-2,3.54h-.16l-.47-3.51A5.56,5.56,0,0,1,438.8,45.64Z"/><path class="cls-1" d="M455.58,85.59c.2,0,2.41-.35,2.41-4.06V59c0-3.71-2.13-4.06-2.33-4.06v0h6.43l17.45,21.94V59c0-3.71-2.21-4.06-2.4-4.06v0h5.75v0c-.2,0-2.41.35-2.41,4.06V85.87l-21.55-27V81.53c0,3.71,2.21,4.06,2.41,4.06v0h-5.76Z"/><path class="cls-1" d="M2,123c0-9.37,5.49-17.09,17.13-17.09,4.79,0,8.26,1.53,10,1.53v7.14H29a9.52,9.52,0,0,0-2.44-5.33c-1.65-1.56-4.21-2.39-7.43-2.39-7.76,0-11.31,6.81-11.31,16.14,0,8.34,3.18,15.32,10.61,15.32,4.25,0,7-1.53,8.46-3.51A15.07,15.07,0,0,0,29,129.3h.08v7.93c-1.44,0-6.4,2-10.69,2C6.23,139.25,2,131.41,2,123Z"/><path class="cls-1" d="M35.92,129V110.76c0-3.88-2.23-4.25-2.48-4.25v0H44.05v0c-.25,0-2.44.37-2.44,4.25v18c0,5.37,2,9.05,6.45,9.05,4,0,8-3.51,8-7.23V110.76c0-3.88-2.23-4.25-2.48-4.25v0h8.18v1.61a2.06,2.06,0,0,0,.9-1.49c0-.45,0-1.44-1.61-1.94v0l3.39-2a3.68,3.68,0,0,1,.91,2.64c-.29,1.82-2.27,2.93-3.59,3.43v25.72c0,3.88,2.18,4.25,2.43,4.25v0H56.11v-5.41a10.87,10.87,0,0,1-9.87,5.83C38.77,139.09,35.92,134.92,35.92,129Z"/><path class="cls-1" d="M77.78,113H77.7v-6.48h25.85V113h0c0-.54-.42-5.57-4.75-5.57H93.47v27c0,3.88,2.23,4.25,2.44,4.25v0H85.34v0c.21,0,2.44-.37,2.44-4.25v-27H82.49C78.16,107.38,77.78,112.41,77.78,113Z"/><path class="cls-1" d="M105.86,138.63c.25,0,2.48-.37,2.48-4.25V110.76c0-3.88-2.23-4.25-2.48-4.25v0h11.23c3.8,0,7.19.58,9.17,2.39a6.52,6.52,0,0,1,2.64,5.7c0,4.91-3.63,8.71-8.75,9.87,3.3,0,4.83.74,6.07,3.55l2.52,5.7c1.85,4.17,4.21,4.91,4.58,4.91v.08h-5.41c-3.39,0-4-1.48-5.62-5.12l-2-4.58c-1.53-3.39-2.89-4-5-4H114v9.46c0,3.88,2.23,4.25,2.43,4.25v0H105.86ZM115.44,124c5.29,0,7.72-4,7.72-8.76a9,9,0,0,0-1.4-5.28c-1-1.65-2.69-2.6-5.45-2.6H114V124Z"/><path class="cls-1" d="M155.41,106.51v0H166v0c-.25,0-2.43.37-2.43,4.25v23.62c0,3.88,2.18,4.25,2.43,4.25v0h-8.13v-5.41a10.87,10.87,0,0,1-9.87,5.83c-7.47,0-10.32-4.17-10.32-10.08V110.76c0-3.88-2.23-4.25-2.48-4.25v0h10.61v0c-.25,0-2.44.37-2.44,4.25v18c0,5.37,2,9.05,6.45,9.05,4,0,8-3.51,8-7.23V110.76C157.89,106.88,155.66,106.51,155.41,106.51Zm-2.89-8.38h.08l2.07,2.85v.12a22.67,22.67,0,0,1-8.59,3.22l-.08-.12C147.85,103.54,150.87,100.56,152.52,98.13Z"/><path d="M188.23,122.9a5.07,5.07,0,0,1,4.41,2.11v-5.27h-3.42v-.54h3.42c0-2.09-1.3-2.32-1.44-2.32v0h4.46v2.34h1v.54h-1V137c0,2.18,1.32,2.4,1.44,2.4v0h-4.46V136.9a5.35,5.35,0,0,1-4.94,2.85c-4.86,0-7.17-3.81-7.17-8.13C180.53,126.57,183.52,122.9,188.23,122.9Zm.31,15.95a4.13,4.13,0,0,0,4.1-3.28v-9.48a3.79,3.79,0,0,0-3.56-2.2c-2.85,0-5.51,2.39-5.51,7.45C183.57,135.83,185.49,138.85,188.54,138.85Z"/><path d="M200.63,128l-.12-.06c.15-2.43,2.49-5,6.64-5a7.54,7.54,0,0,1,4.85,1.44,4.65,4.65,0,0,1,1.42,3.65v9c0,2.18,1.32,2.4,1.43,2.4v0H210.4V136a6.55,6.55,0,0,1-6.05,3.61c-3.13,0-4.65-1.58-4.65-3.78,0-3.53,3.75-6.13,10.7-6.24v-1.24a4.77,4.77,0,0,0-.88-3.08,4,4,0,0,0-3.33-1.44C203.17,123.83,200.91,126.09,200.63,128Zm4.94,10.58a5.5,5.5,0,0,0,4.83-3.44v-5.08c-5.9.08-7.6,3.36-7.6,5.53A2.74,2.74,0,0,0,205.57,138.59Z"/><path d="M217,123.21v0h4.49v3.44a5.71,5.71,0,0,1,5.65-3.72,4.82,4.82,0,0,1,5.36,5V137c0,2.18,1.3,2.4,1.41,2.4v0H228v0c.14,0,1.44-.22,1.44-2.4v-8.47a6.91,6.91,0,0,0-.51-2.85,2.93,2.93,0,0,0-2.85-1.78,4.87,4.87,0,0,0-4.6,4.69V137c0,2.18,1.3,2.4,1.41,2.4v0H217v0c.14,0,1.44-.22,1.44-2.4v-11.4C218.47,123.41,217.17,123.21,217,123.21Z"/><path d="M247.15,143.48a8,8,0,0,0,1.13-4.55v-2a5.34,5.34,0,0,1-4.94,2.85c-4.85,0-7.17-3.81-7.17-8.13,0-5.05,3-8.72,7.71-8.72a5.06,5.06,0,0,1,4.4,2.11v-1.83h4.46v0c-.11,0-1.44.2-1.44,2.4v12.64a7.68,7.68,0,0,1-1.35,4.8,7.5,7.5,0,0,1-6.07,2.49c-2.94,0-4.6-.91-5.65-.91v-4.54h.06a6.71,6.71,0,0,0,1.47,3.56,5.16,5.16,0,0,0,3.81,1.38A4.3,4.3,0,0,0,247.15,143.48Zm-3-4.63a4.12,4.12,0,0,0,4.09-3.28v-9.48a3.77,3.77,0,0,0-3.55-2.2c-2.85,0-5.51,2.39-5.51,7.45C239.22,135.83,241.14,138.85,244.19,138.85Z"/><path d="M268.87,138.68a3.9,3.9,0,0,0,3.07-1.75H272a4.91,4.91,0,0,1-4.43,2.74c-1.95,0-3.9-.74-3.9-3.79V123.63h-1.3v-.45h1.3v-4.12h3.05v4.12h4.88v.45h-4.88v12C266.72,137.58,267.43,138.68,268.87,138.68Z"/><path d="M273.44,123.21v0h4.49v3.44c.68-1.86,2-3.72,4.8-3.72,1,0,1.66.17,2,.17v5.11h-.05a5.28,5.28,0,0,0-1-2.91,2.49,2.49,0,0,0-2-1c-1.95,0-3.47,1.75-3.64,4.29V137c0,2.18,1.3,2.4,1.41,2.4v0h-5.9v0c.14,0,1.44-.22,1.44-2.4v-11.4C274.88,123.41,273.58,123.21,273.44,123.21Z"/><path d="M287.11,131.31c0-4.4,2.45-8.41,7.93-8.41a8.19,8.19,0,0,1,4.66,1.3,1.36,1.36,0,0,0,.31-.82c0-.28-.15-.93-1.16-1.13v0l1.95-1.52a1.92,1.92,0,0,1,.76,1.6,2.88,2.88,0,0,1-1.5,2.18,8.42,8.42,0,0,1,2.94,6.83c0,4.4-2.49,8.44-8,8.44S287.11,135.71,287.11,131.31Zm7.93,7.93c3,0,4.88-3.22,4.88-7.93s-1.92-7.9-4.88-7.9-4.83,3.21-4.83,7.9S292.1,139.24,295,139.24Zm-.12-22.3c1.08,0,2.21.48,2.21,1.55,0,1.58-2.63,1.9-2.63,3.19-.06,0-.14-.08-.14-.22,0-1.47,1-1.72,1-3,0-.68-.34-.93-.74-.93-.87,0-1.32,1.24-1.38,2.37h-.08l-.26-2.23A3.41,3.41,0,0,1,294.92,116.94Z"/><path d="M319,138.68a3.94,3.94,0,0,0,3.08-1.75h.05a4.91,4.91,0,0,1-4.43,2.74c-1.95,0-3.89-.74-3.89-3.79V123.63h-1.3v-.45h1.3v-4.12h3v4.12h4.89v.45h-4.89v12C316.83,137.58,317.54,138.68,319,138.68Z"/><path d="M323.44,116.88v0h4.46v9.76a5.76,5.76,0,0,1,5.68-3.72,5.15,5.15,0,0,1,4.31,1.78,5.06,5.06,0,0,1,1,3.24V137c0,2.18,1.3,2.4,1.44,2.4v0h-5.9v0c.11,0,1.41-.22,1.41-2.4v-8.47a6.91,6.91,0,0,0-.51-2.85,2.92,2.92,0,0,0-2.85-1.78,4.92,4.92,0,0,0-4.6,4.69V137c0,2.18,1.3,2.4,1.44,2.4v0h-5.9v0c.11,0,1.41-.22,1.41-2.4V119.28C324.85,117.11,323.55,116.88,323.44,116.88Z"/><path d="M343.49,128l-.12-.06c.14-2.43,2.49-5,6.64-5a7.54,7.54,0,0,1,4.85,1.44,4.65,4.65,0,0,1,1.41,3.65v9c0,2.18,1.33,2.4,1.44,2.4v0h-4.46V136a6.52,6.52,0,0,1-6,3.61c-3.13,0-4.65-1.58-4.65-3.78,0-3.53,3.75-6.13,10.69-6.24v-1.24a4.77,4.77,0,0,0-.87-3.08,4,4,0,0,0-3.33-1.44C346,123.83,343.77,126.09,343.49,128Zm4.94,10.58a5.49,5.49,0,0,0,4.82-3.44v-5.08c-5.9.08-7.59,3.36-7.59,5.53A2.74,2.74,0,0,0,348.43,138.59Zm-1.13-18.91,1.3-1.81h0a11,11,0,0,0,4.32,3.95l-.05.06a14.85,14.85,0,0,1-5.62-2.14Z"/><path d="M359.89,123.21v0h4.49v3.44A5.7,5.7,0,0,1,370,122.9a4.82,4.82,0,0,1,5.37,5V137c0,2.18,1.3,2.4,1.41,2.4v0h-5.9v0c.14,0,1.44-.22,1.44-2.4v-8.47a6.91,6.91,0,0,0-.51-2.85,2.94,2.94,0,0,0-2.85-1.78,4.87,4.87,0,0,0-4.6,4.69V137c0,2.18,1.3,2.4,1.41,2.4v0h-5.9v0c.14,0,1.44-.22,1.44-2.4v-11.4C361.33,123.41,360,123.21,359.89,123.21Z"/><path d="M378.86,116.88v0h4.46v9.76A5.76,5.76,0,0,1,389,122.9a5.18,5.18,0,0,1,4.32,1.78,5.12,5.12,0,0,1,1,3.24V137c0,2.18,1.3,2.4,1.44,2.4v0h-5.9v0c.11,0,1.41-.22,1.41-2.4v-8.47a7.07,7.07,0,0,0-.5-2.85,3,3,0,0,0-2.86-1.78,4.92,4.92,0,0,0-4.6,4.69V137c0,2.18,1.3,2.4,1.44,2.4v0h-5.9v0c.12,0,1.41-.22,1.41-2.4V119.28C380.27,117.11,379,116.88,378.86,116.88Z"/><path class="cls-1" d="M26.86,199.17c.05,0,1.94-.78.05-4L18,179.82,7.67,194.72c-2.39,3.44.39,4.45.5,4.45v.05H0v-.05c.56,0,4.17-1.12,6.84-5.07L17.4,178.81,7.28,161.47C4.67,157,2,155.91,1.56,155.91v-.06h11.9v.06c-.06,0-2,.77-.06,4l8,13.73,8.84-13.29c2.33-3.5-.45-4.44-.5-4.44v-.06h7.89v.06c-.55,0-4,1.16-6.89,5.5L22,174.64,33,193.6c2.61,4.51,5.56,5.57,6.06,5.57v.05H26.86Z"/><path class="cls-1" d="M46.09,196.27a10.08,10.08,0,0,1-2-6.45V172c0-4.34-2.55-4.73-2.83-4.73v-.06H50V188.6a13.81,13.81,0,0,0,1,5.67,5.89,5.89,0,0,0,5.62,3.5c4.78,0,8.73-4.22,9.12-9.23V172c0-4.34-2.56-4.73-2.84-4.73v-.06h8.79v27.25c0,4.28,2.61,4.73,2.83,4.73v.05H65.78v-6.78a11.4,11.4,0,0,1-11.18,7.34C50.93,199.78,47.87,198.61,46.09,196.27Z"/><path class="cls-1" d="M93.58,154.79v0h8.78V174c1.39-3.67,4.9-7.34,11.18-7.34,3.67,0,6.67,1.11,8.51,3.5a10,10,0,0,1,2,6.39v17.91c0,4.28,2.56,4.73,2.84,4.73v.05H115.26v-.05c.23,0,2.78-.45,2.78-4.73V177.76a13.59,13.59,0,0,0-1-5.62,5.78,5.78,0,0,0-5.61-3.5c-4.73,0-8.68,4.22-9.07,9.23v16.57c0,4.28,2.56,4.73,2.84,4.73v.05H93.58v-.05c.22,0,2.78-.45,2.78-4.73V159.52C96.36,155.24,93.8,154.79,93.58,154.79Z"/><path class="cls-1" d="M135.17,196.27a10,10,0,0,1-2-6.45V172c0-4.34-2.56-4.73-2.84-4.73v-.06h8.79V188.6a13.81,13.81,0,0,0,1,5.67,5.88,5.88,0,0,0,5.61,3.5c4.79,0,8.73-4.22,9.12-9.23V172c0-4.34-2.55-4.73-2.83-4.73v-.06h8.78v2.06a2.46,2.46,0,0,0,1.34-1.89c.05-.56,0-1.83-1.89-2.5v-.06l4.22-2.44a4.28,4.28,0,0,1,1.06,3.33c-.39,2.39-3,3.67-4.73,4.28v24.47c0,4.28,2.62,4.73,2.84,4.73v.05h-8.79v-6.78a11.39,11.39,0,0,1-11.17,7.34C140,199.78,137,198.61,135.17,196.27Z"/><path class="cls-1" d="M169.53,183.21c0-8.68,4.84-16.57,15.63-16.57a16.12,16.12,0,0,1,9.17,2.55,2.51,2.51,0,0,0,.61-1.61c-.05-.55-.27-1.83-2.28-2.22v-.06l3.84-3a3.79,3.79,0,0,1,1.5,3.17c0,1.89-1.56,3.34-2.95,4.28,3.95,3.06,5.79,8.12,5.79,13.46,0,8.67-4.9,16.62-15.68,16.62S169.53,191.88,169.53,183.21Zm15.63,15.62c5.84,0,9.62-6.34,9.62-15.62s-3.78-15.57-9.62-15.57-9.51,6.34-9.51,15.57S179.37,198.83,185.16,198.83ZM188,156.57h.11l2.56,3.56v.11c-2.78,1.84-7.84,3.95-11.06,4.23l-.11-.11C181.82,163.58,185.88,160,188,156.57Z"/><path class="cls-1" d="M205.56,167.25v-.06h8.84V174c1.34-3.67,4.9-7.34,11.12-7.34,3.67,0,6.73,1.11,8.51,3.5a10,10,0,0,1,2.06,6.39v17.91c0,4.28,2.56,4.73,2.78,4.73v.05H227.25v-.05c.28,0,2.83-.45,2.83-4.73V177.76a13.59,13.59,0,0,0-1-5.62,5.78,5.78,0,0,0-5.61-3.5c-4.78,0-8.73,4.22-9.07,9.23v16.57c0,4.28,2.56,4.73,2.78,4.73v.05H205.56v-.05c.28,0,2.84-.45,2.84-4.73V172C208.4,167.64,205.84,167.25,205.56,167.25Z"/><path class="cls-1" d="M264.89,207.17c1.73-2.44,2.23-5.84,2.23-8.95v-4a10.53,10.53,0,0,1-9.73,5.61c-9.57,0-14.13-7.5-14.13-16,0-9.95,5.9-17.18,15.18-17.18,4.95,0,7.73,2.61,8.68,4.17v-3.62h8.78v.06c-.22,0-2.84.39-2.84,4.73v24.91c0,3.28-.55,6.72-2.66,9.45-2.34,2.94-6.45,4.89-12,4.89-5.78,0-9.06-1.78-11.12-1.78V200.5h.11a13.25,13.25,0,0,0,2.89,7,10.15,10.15,0,0,0,7.51,2.72C261.11,210.23,263.5,209,264.89,207.17Zm-5.84-9.12a8.12,8.12,0,0,0,8.07-6.45V172.92a7.48,7.48,0,0,0-7-4.34c-5.62,0-10.84,4.73-10.84,14.68C249.27,192.1,253.05,198.05,259.05,198.05Z"/></g></g></svg>