<svg xmlns="http://www.w3.org/2000/svg" width="87.15" height="87.15" viewBox="0 0 87.15 87.15">
  <path id="Path_13" data-name="Path 13" d="M1807.178,478.974a43.575,43.575,0,1,0,43.575,43.575A43.575,43.575,0,0,0,1807.178,478.974Zm23.948,38.586a21.346,21.346,0,0,1-4.8-.579,23,23,0,0,1-7.551-3.254c-.121-.079-.25-.25-.379-.191-.164.075-.078.286-.078.436,0,6.25.023,12.5-.013,18.75a17.878,17.878,0,0,1-15.808,17.765,17.706,17.706,0,0,1-10.175-1.8,9.4,9.4,0,0,1-1.482-.907l-.44-.39h0a4.211,4.211,0,0,1-.922-.635,17.746,17.746,0,0,1-6.791-15.141,17.746,17.746,0,0,1,11.686-15.507,17.73,17.73,0,0,1,4.722-1,18.368,18.368,0,0,1,3.509.079c.157.019.25.051.247.238-.013.649-.012,1.3-.017,1.946.012.011.1,4.932.1,7.185,0,.08,0,.159-.007.239-.01.226-.126.3-.339.241a8.493,8.493,0,0,0-1.886-.29,7.172,7.172,0,0,0-2.884.429A8.009,8.009,0,0,0,1796,539.453c.225.155.455.3.665.475l.151.138a10.974,10.974,0,0,0,1.907.628,8.147,8.147,0,0,0,9.69-6.657,7.816,7.816,0,0,0,.1-1.394q0-18.825,0-37.651c0-.585-.081-.511.5-.512q4.341,0,8.682,0c.068,0,.137,0,.205,0,.3.005.3.005.3.3a19.374,19.374,0,0,0,.3,2.37c1.252,6.345,8.647,10.225,10.927,10.569a12.035,12.035,0,0,0,1.9.165c.265,0,.272.007.272.26,0,.59.116,6.657.113,8.877C1831.707,517.534,1831.639,517.559,1831.126,517.56Z" transform="translate(-1763.603 -478.974)" fill="#fff"/>
</svg>
