<svg xmlns="http://www.w3.org/2000/svg" width="87.15" height="87.15" viewBox="0 0 87.15 87.15">
  <g id="Group_30" data-name="Group 30" transform="translate(-1764.582 -627.254)">
    <path id="Path_14" data-name="Path 14" d="M1808.157,627.254a43.575,43.575,0,1,0,43.575,43.575A43.575,43.575,0,0,0,1808.157,627.254Zm0,75.169a35.887,35.887,0,0,1-9.53-1.266,2.635,2.635,0,0,0-1.759.129l-6.535,2.885a2.633,2.633,0,0,1-3.7-2.329l-.179-5.856a2.631,2.631,0,0,0-.885-1.878,31.234,31.234,0,0,1-10.339-23.621c0-18.35,14.376-31.936,32.923-31.936s32.923,13.586,32.923,31.936S1826.7,702.423,1808.157,702.423Z" fill="#fff" fill-rule="evenodd"/>
    <g id="Group_29" data-name="Group 29">
      <path id="Path_15" data-name="Path 15" d="M1797.467,665.6a2.865,2.865,0,0,0,.475-.975,5.068,5.068,0,0,0,.108-1.347h-12.084q0,1.293,0,2.584,4.191,0,8.381,0l-8.14,10.065a2.3,2.3,0,0,0-.519,1,6.764,6.764,0,0,0-.067,1.341q5.706,0,11.412,0a1.039,1.039,0,0,0,1.013-.958c.01-.484,0-.969,0-1.453h-8.793l7.235-9.072C1796.812,666.383,1797.124,665.978,1797.467,665.6Z" fill="#fff"/>
      <path id="Path_16" data-name="Path 16" d="M1812.55,677.389a.865.865,0,0,0,.817.875c.59.007,1.181,0,1.772,0q0-7.5,0-14.992h-2.589Z" fill="#fff"/>
      <path id="Path_17" data-name="Path 17" d="M1828.638,671.377a5.933,5.933,0,1,0-.7,4.04A5.934,5.934,0,0,0,1828.638,671.377Zm-2.482,2.036a3.487,3.487,0,1,1-.182-2.411A3.5,3.5,0,0,1,1826.156,673.413Z" fill="#fff"/>
      <path id="Path_18" data-name="Path 18" d="M1808.059,667.729a5.89,5.89,0,1,0,0,9.511,1.045,1.045,0,0,0,.955,1.022c.489.012.978,0,1.467.005V666.921h-2.419Zm-.149,5.724a3.455,3.455,0,1,1-.09-2.206A3.472,3.472,0,0,1,1807.91,673.453Z" fill="#fff"/>
    </g>
  </g>
</svg>
