<svg id="Layer_1" data-name="Layer 1" xmlns="http://www.w3.org/2000/svg" viewBox="0 0 86.55 93.45"><defs><style>.cls-1{fill:#595a5a;}</style></defs><path class="cls-1" d="M46.71,49.67a1.34,1.34,0,0,1-.48-.08,1.48,1.48,0,0,1-.91-1.87l5-14.38L23.86,49.46A1.47,1.47,0,0,1,22.33,47l30-18.26a1.48,1.48,0,0,1,2.16,1.74L48.1,48.69A1.47,1.47,0,0,1,46.71,49.67Z"/><path class="cls-1" d="M53.1,67.92a1.51,1.51,0,0,1-.77-.21l-30-18.25A1.47,1.47,0,1,1,23.86,47L50.35,63.06l-5-14.37a1.47,1.47,0,1,1,2.78-1L54.49,66a1.47,1.47,0,0,1-1.39,2Z"/></svg>