<svg id="Layer_1" data-name="Layer 1" xmlns="http://www.w3.org/2000/svg" viewBox="0 0 86.55 93.45"><defs><style>.cls-1{fill:#595a5a;}</style></defs><path class="cls-1" d="M34.66,49.67a1.4,1.4,0,0,0,.49-.08,1.47,1.47,0,0,0,.9-1.87L31,33.34,57.51,49.46A1.47,1.47,0,0,0,59,47L29,28.69a1.48,1.48,0,0,0-1.69.12,1.46,1.46,0,0,0-.46,1.62l6.38,18.26A1.48,1.48,0,0,0,34.66,49.67Z"/><path class="cls-1" d="M28.28,67.92a1.5,1.5,0,0,0,.76-.21L59,49.46A1.47,1.47,0,1,0,57.51,47L31,63.06l5-14.37a1.47,1.47,0,1,0-2.78-1L26.89,66a1.47,1.47,0,0,0,.46,1.63A1.52,1.52,0,0,0,28.28,67.92Z"/></svg>