<svg xmlns="http://www.w3.org/2000/svg" viewBox="0 0 503.3 65.5"><g id="Layer_2" data-name="Layer 2"><g id="Layer_1-2" data-name="Layer 1"><path d="M0,17C0,11.4,3.2,7,10.2,7a37.1,37.1,0,0,1,5.7.8v4.3h-.1a6.3,6.3,0,0,0-1.3-3,5.7,5.7,0,0,0-4.3-1.5C5.6,7.6,4,11.7,4,17s1.6,8.9,5.7,8.9,4.1-1,4.9-2.3a9.8,9.8,0,0,0,1.2-3.2h.1v4.8c-.8,0-3.7,1.3-6.2,1.3C2.5,26.5,0,22.1,0,17Z" style="fill:#e7c57e"/><path d="M31.9,16.2V10c0-2.4-1.3-2.6-1.5-2.6h6.9c-.1,0-1.5.2-1.5,2.6V23.5c0,2.4,1.4,2.6,1.5,2.6H30.4c.2,0,1.5-.2,1.5-2.6V16.8H24.2v6.7c0,2.4,1.3,2.6,1.5,2.6H18.8c.1,0,1.5-.2,1.5-2.6V10c0-2.4-1.4-2.6-1.5-2.6h6.9c-.2,0-1.5.2-1.5,2.6v6.2Z" style="fill:#e7c57e"/><path d="M41.2,20.5V10c0-2.4-1.3-2.6-1.5-2.6h7c-.2,0-1.5.2-1.5,2.6V20.3c0,2.8.6,5.3,3.3,5.3s4.4-2.2,4.4-4V10c0-2.4-1.4-2.6-1.5-2.6h5.4v1a1.1,1.1,0,0,0,.5-.9c0-.3-.1-.9-1.1-1.1h0l2-1.4a2.7,2.7,0,0,1,.7,1.7c-.1,1.1-1.3,1.9-2.1,2.2V23.5c0,2.4,1.4,2.6,1.5,2.6H52.9V23.1a6.5,6.5,0,0,1-5.8,3.3C42.4,26.4,41.2,23.6,41.2,20.5Z" style="fill:#e7c57e"/><path d="M60.9,16.8c0-5.4,3.2-9.8,9.2-9.8a9.2,9.2,0,0,1,4.6,1.1,1.1,1.1,0,0,0,.5-.9,1.2,1.2,0,0,0-1-1.2h0l2-1.4a2,2,0,0,1,.6,1.6,2.6,2.6,0,0,1-1.7,2.1c2.8,1.7,4.2,4.9,4.2,8.5,0,5.3-3.2,9.7-9.2,9.7S60.9,22.1,60.9,16.8Zm9.2,9.1c3.6,0,5.2-4.1,5.2-9.1s-1.6-9.2-5.2-9.2-5.2,4.1-5.2,9.2S66.5,25.9,70.1,25.9Z" style="fill:#e7c57e"/><path d="M81.4,26.1c.2,0,1.5-.2,1.5-2.6V10c0-2.4-1.3-2.6-1.5-2.6h4.5L96.4,20V10c0-2.4-1.4-2.6-1.5-2.6h3.7c-.2,0-1.5.2-1.5,2.6V26.3L83.6,10V23.5c0,2.4,1.4,2.6,1.5,2.6H81.4Z" style="fill:#e7c57e"/><path d="M100.5,17c0-5.6,3.2-10,10.4-10a37.1,37.1,0,0,1,5.7.8v4.3h-.1a6.3,6.3,0,0,0-1.3-3,5.5,5.5,0,0,0-4.3-1.5c-4.8,0-6.4,4.1-6.4,9.4s1.6,8.9,5.9,8.9l2.1-.2V18.2c0-2.4-1.3-2.6-1.5-2.6h7.1c-.1,0-1.5.2-1.5,2.6v7c-.4,0-3.7,1.3-6.4,1.3C103,26.5,100.5,22.1,100.5,17Z" style="fill:#e7c57e"/><path d="M125.7,11.1h-.1V7.3h15.6v3.8h-.1c0-.2-.2-3.1-3-3.1h-2.7V23.5c0,2.4,1.3,2.6,1.5,2.6H130c.1,0,1.5-.2,1.5-2.6V8h-2.8C126,8,125.7,10.9,125.7,11.1Z" style="fill:#e7c57e"/><path d="M142.5,26.1c.2,0,1.5-.2,1.5-2.6V10c0-2.4-1.3-2.6-1.5-2.6h7c2.6,0,4.8.4,6.1,1.7a4.6,4.6,0,0,1,1.1,3.2,6.1,6.1,0,0,1-4.9,5.8c2.1,0,2.9.6,3.6,2.1l1.3,2.9c1.2,2.7,2.6,3.1,2.8,3.1h-3.7c-2.2,0-2.5-1-3.5-3.3l-1-2.1c-.9-1.9-1.5-2.4-2.7-2.4H148v5.1c0,2.4,1.3,2.6,1.5,2.6h-7Zm6-8.3c3.1,0,4.2-2.6,4.2-5.2a5.6,5.6,0,0,0-.6-3A3.1,3.1,0,0,0,149,8h-1v9.8Z" style="fill:#e7c57e"/><path d="M161,26.1c.1,0,1.5-.2,1.5-2.6V10c0-2.4-1.4-2.6-1.5-2.6h6.9c-.2,0-1.5.2-1.5,2.6V23.5c0,2.4,1.3,2.6,1.5,2.6H161Zm.9-21.7,1.2-1.8h.1a14.9,14.9,0,0,0,3.9,3.7h0a12.3,12.3,0,0,1-5.2-2Z" style="fill:#e7c57e"/><path d="M170.3,26.1c.1,0,1.5-.2,1.5-2.6V10c0-2.4-1.4-2.6-1.5-2.6h4.5L185.2,20V10c0-2.4-1.3-2.6-1.4-2.6h3.6c-.1,0-1.5.2-1.5,2.6V26.3L172.5,10V23.5c0,2.4,1.3,2.6,1.5,2.6h-3.7Z" style="fill:#e7c57e"/><path d="M202.9,16.2V10c0-2.4-1.4-2.6-1.5-2.6h6.9c-.1,0-1.5.2-1.5,2.6V23.5c0,2.4,1.4,2.6,1.5,2.6h-6.9c.1,0,1.5-.2,1.5-2.6V16.8h-7.7v6.7c0,2.4,1.3,2.6,1.5,2.6h-6.9c.1,0,1.5-.2,1.5-2.6V10c0-2.4-1.4-2.6-1.5-2.6h6.9c-.2,0-1.5.2-1.5,2.6v6.2Z" style="fill:#e7c57e"/><path d="M215.7,7.4h7c-.1,0-1.5.4-.4,2.9l4.2,10.3,4.3-10.3c1.1-2.5-.3-2.9-.4-2.9h3.9c-.3,0-1.8.4-2.8,2.9l-6.7,16.1-6.5-15.7C217.1,7.8,215.9,7.4,215.7,7.4Z" style="fill:#e7c57e"/><path d="M232.4,26.1c.2,0,1.8-.4,2.8-2.9l5-12.5c1.2-2.9-.7-3.3-.8-3.3h5l5.3,15.5c1,2.9,2.3,3.3,2.5,3.3h-6.9s1.3-.3.4-2.9l-.9-2.7H237l-1.1,2.7c-1,2.5.3,2.9.4,2.9h-3.9Zm12.2-6.3-3.4-10-4,10ZM239.7,4.4,241,2.6h.1c1,1.3,2.7,3.2,3.9,3.7h-.1a13.4,13.4,0,0,1-5.2-2Z" style="fill:#e7c57e"/><path d="M259.2,16.8c0-5.4,3.2-9.8,9.2-9.8s9.2,4.4,9.2,9.8-3.2,9.7-9.2,9.7S259.2,22.1,259.2,16.8Zm4.3,11.4a2.2,2.2,0,0,1,1.8-1.1,16.6,16.6,0,0,1,2.8.9,9.8,9.8,0,0,0,2.9.5,4.8,4.8,0,0,0,1.8-.3,3.1,3.1,0,0,0,1.1-.9h0a14.5,14.5,0,0,1-1,2.5,2.9,2.9,0,0,1-2.3,1.6,7.1,7.1,0,0,1-3.4-1.4,7.2,7.2,0,0,0-3.1-1.5.8.8,0,0,0-.7.2l-.5.5h0A2.7,2.7,0,0,1,263.5,28.2Zm4.9-2.3c3.6,0,5.2-4.1,5.2-9.1s-1.6-9.2-5.2-9.2-5.2,4.1-5.2,9.2S264.8,25.9,268.4,25.9Z" style="fill:#e7c57e"/><path d="M291.3,7.4h6.9c-.2,0-1.5.2-1.5,2.6V23.5c0,2.4,1.3,2.6,1.5,2.6h-5.4V23.1a6.6,6.6,0,0,1-5.8,3.3c-4.7,0-5.9-2.8-5.9-5.9V10c0-2.4-1.3-2.6-1.5-2.6h6.9c-.1,0-1.5.2-1.5,2.6V20.3c0,2.8.7,5.3,3.4,5.3s4.4-2.2,4.4-4V10C292.8,7.6,291.4,7.4,291.3,7.4Z" style="fill:#e7c57e"/><path d="M304.9,26.1c.1,0,1.5-.2,1.5-2.6V18.6L301.8,10c-1.1-2.2-2.3-2.6-2.6-2.6h6.9c-.1,0-1.2.4-.2,2.2l3.9,7.6,3.7-7.2c1.1-2.2-.1-2.6-.1-2.6h3.7c-.3,0-1.8.5-3.1,2.9l-3.7,7.4v5.8c0,2.4,1.3,2.6,1.5,2.6h-6.9Zm3.6-23.7c.9,0,2.5,1.4,3.4,1.4s.8-.1,1.2-1.3h0c-.4,2.1-1.1,2.9-1.9,2.9s-2.5-1.3-3.5-1.3-.9.4-1.3,1.3h-.1C306.9,3.4,307.7,2.4,308.5,2.4Z" style="fill:#e7c57e"/><path d="M324.1,17c0-5.6,3.2-10,10.1-10a33.3,33.3,0,0,1,5.7.8v4.3h0a6.3,6.3,0,0,0-1.3-3,5.8,5.8,0,0,0-4.4-1.5c-4.5,0-6.2,4.1-6.2,9.4s1.7,8.9,5.7,8.9,4.2-1,5-2.3a12.8,12.8,0,0,0,1.2-3.2h0v4.8c-.7,0-3.7,1.3-6.2,1.3C326.5,26.5,324.1,22.1,324.1,17Z" style="fill:#e7c57e"/><path d="M340.2,26.1c.2,0,1.8-.4,2.8-2.9l5-12.5c1.1-2.9-.7-3.3-.8-3.3h5l5.3,15.5c1,2.9,2.3,3.3,2.5,3.3h-6.9s1.3-.3.4-2.9l-.9-2.7h-7.8l-1.1,2.7c-1,2.5.3,2.9.4,2.9h-3.9Zm12.2-6.3L349,9.8l-4,10ZM346.5,2c.3,1.3,2.2,2.1,3.6,2.1s3.2-.8,3.6-2.1h.1a3.7,3.7,0,1,1-7.4,0Z" style="fill:#e7c57e"/><path d="M360.5,26.1c.2,0,1.5-.2,1.5-2.6V10c0-2.4-1.3-2.6-1.5-2.6H365L375.5,20V10c0-2.4-1.4-2.6-1.5-2.6h3.6c-.1,0-1.5.2-1.5,2.6V26.3L362.7,10V23.5c0,2.4,1.3,2.6,1.5,2.6h-3.7Z" style="fill:#e7c57e"/><path d="M399.6,16.2V10c0-2.4-1.4-2.6-1.5-2.6H405c-.1,0-1.5.2-1.5,2.6V23.5c0,2.4,1.4,2.6,1.5,2.6h-6.9c.1,0,1.5-.2,1.5-2.6V16.8h-7.7v6.7c0,2.4,1.3,2.6,1.5,2.6h-6.9c.1,0,1.4-.2,1.4-2.6V10c0-2.4-1.3-2.6-1.4-2.6h6.9c-.2,0-1.5.2-1.5,2.6v6.2Z" style="fill:#e7c57e"/><path d="M405.2,26.1c.2,0,1.8-.4,2.8-2.9l5-12.5c1.1-2.9-.7-3.3-.8-3.3h5l5.2,15.5c1,2.9,2.4,3.3,2.6,3.3h-6.9s1.3-.3.4-2.9l-.9-2.7h-7.8l-1.1,2.7c-1,2.5.3,2.9.4,2.9h-3.9Zm12.2-6.3L414,9.8l-4,10ZM411.1,6.5A8.6,8.6,0,0,0,415,5.1h.1a9,9,0,0,0,4,1.4h0a11.3,11.3,0,0,1-4-3.5H415a10.5,10.5,0,0,1-4,3.5ZM420.7,0h.1l1.3,1.8h0a14.9,14.9,0,0,1-5.2,1.9h-.1C418,3.3,419.7,1.4,420.7,0Z" style="fill:#e7c57e"/><path d="M425.9,26.1c.1,0,1.5-.2,1.5-2.6V10c0-2.4-1.4-2.6-1.5-2.6h6.9c2.7,0,4.6.5,5.8,1.6a4.6,4.6,0,0,1,1.5,3.8,5.7,5.7,0,0,1-2.6,5,10.1,10.1,0,0,1-5.4,1.4h-.8v4.4c0,2.4,1.4,2.6,1.5,2.6h-6.9Zm6-7.6a3.7,3.7,0,0,0,2.7-1.1,6,6,0,0,0,1.5-4.5A5.7,5.7,0,0,0,435,9a3.3,3.3,0,0,0-2.7-1h-1V18.5Z" style="fill:#e7c57e"/><path d="M448.8,26.1c.1,0,1.5-.2,1.5-2.6V10c0-2.4-1.4-2.6-1.5-2.6h7.6c4,0,6.4,1.3,7.7,2.9a9.9,9.9,0,0,1,1.9,6.2,10.3,10.3,0,0,1-2.6,6.8,9.3,9.3,0,0,1-7.4,3h-7.2Zm7-.5a5.3,5.3,0,0,0,4.1-2,12.3,12.3,0,0,0,2.1-7.3,13.7,13.7,0,0,0-1-5.2A5.4,5.4,0,0,0,456.1,8h-1.9V25.6Z" style="fill:#e7c57e"/><path d="M465.9,26.1c.2,0,1.8-.4,2.8-2.9l5-12.5c1.1-2.9-.7-3.3-.8-3.3h5l5.2,15.5c1,2.9,2.4,3.3,2.6,3.3h-6.9s1.3-.3.4-2.9l-.9-2.7h-7.8l-1.1,2.7c-1,2.5.3,2.9.4,2.9h-3.9Zm12.2-6.3-3.4-10-4,10ZM471.7,6.5a8.6,8.6,0,0,0,4-1.4h.1a9,9,0,0,0,4,1.4h0a11.3,11.3,0,0,1-4-3.5h-.1a10.5,10.5,0,0,1-4,3.5ZM476.3.2c.9,0,2.6,1.4,3.4,1.4s.8-.1,1.2-1.3h.1c-.5,2.1-1.2,2.9-1.9,2.9s-2.5-1.3-3.5-1.3-1,.4-1.4,1.3h-.1C474.7,1.2,475.5.2,476.3.2Z" style="fill:#e7c57e"/><path d="M486.2,26.1c.1,0,1.5-.2,1.5-2.6V10c0-2.4-1.4-2.6-1.5-2.6h4.5L501.1,20V10c0-2.4-1.3-2.6-1.5-2.6h3.7c-.1,0-1.5.2-1.5,2.6V26.3L488.4,10V23.5c0,2.4,1.3,2.6,1.5,2.6h-3.7Z" style="fill:#e7c57e"/><path d="M0,65.1c.1,0,1.5-.2,1.5-2.6V49c0-2.4-1.4-2.6-1.5-2.6H4.5L14.9,59V49c0-2.4-1.3-2.6-1.5-2.6h3.7c-.1,0-1.5.2-1.5,2.6V65.3L2.2,49V62.5c0,2.4,1.3,2.6,1.5,2.6H0Z" style="fill:#e7c57e"/><path d="M32.6,55.2V49c0-2.4-1.4-2.6-1.5-2.6H38c-.1,0-1.5.2-1.5,2.6V62.5c0,2.4,1.4,2.6,1.5,2.6H31.1c.1,0,1.5-.2,1.5-2.6V55.8H24.9v6.7c0,2.4,1.3,2.6,1.5,2.6H19.5c.1,0,1.4-.2,1.4-2.6V49c0-2.4-1.3-2.6-1.4-2.6h6.9c-.2,0-1.5.2-1.5,2.6v6.2Z" style="fill:#e7c57e"/><path d="M38.2,65.1c.2,0,1.8-.4,2.8-2.9l5-12.5c1.1-2.9-.7-3.3-.8-3.3h5l5.2,15.5c1,2.9,2.4,3.3,2.6,3.3H51.1s1.3-.3.4-2.9l-.9-2.7H42.8l-1.1,2.7c-1,2.5.3,2.9.4,2.9H38.2Zm12.2-6.3L47,48.8l-4,10ZM44.1,45.5A8.6,8.6,0,0,0,48,44.1h.1a9,9,0,0,0,4,1.4h0a11.3,11.3,0,0,1-4-3.5H48a10.5,10.5,0,0,1-4,3.5ZM53.7,39h.1l1.3,1.8h0a14.9,14.9,0,0,1-5.2,1.9h-.1C51,42.3,52.7,40.4,53.7,39Z" style="fill:#e7c57e"/><path d="M57.5,50.1h-.1V46.3H73v3.8h-.1c0-.2-.3-3.1-3-3.1H67.2V62.5c0,2.4,1.3,2.6,1.5,2.6h-7c.2,0,1.5-.2,1.5-2.6V47H60.5C57.7,47,57.5,49.9,57.5,50.1Z" style="fill:#e7c57e"/><path d="M79.4,50.1h-.1V46.3H94.9v3.8h-.1c0-.2-.2-3.1-3-3.1H89.1V62.5c0,2.4,1.3,2.6,1.5,2.6H83.7c.1,0,1.5-.2,1.5-2.6V47H82.4C79.7,47,79.4,49.9,79.4,50.1Z" style="fill:#e7c57e"/><path d="M109.4,55.2V49c0-2.4-1.4-2.6-1.5-2.6h6.9c-.2,0-1.5.2-1.5,2.6V62.5c0,2.4,1.3,2.6,1.5,2.6h-6.9c.1,0,1.5-.2,1.5-2.6V55.8h-7.8v6.7c0,2.4,1.4,2.6,1.5,2.6H96.2c.2,0,1.5-.2,1.5-2.6V49c0-2.4-1.3-2.6-1.5-2.6h6.9c-.1,0-1.5.2-1.5,2.6v6.2Z" style="fill:#e7c57e"/><path d="M128.8,46.4h7c-.2,0-1.5.2-1.5,2.6V62.5c0,2.4,1.3,2.6,1.5,2.6h-5.5V62.1a6.3,6.3,0,0,1-5.7,3.3c-4.7,0-5.9-2.8-5.9-5.9V49c0-2.4-1.4-2.6-1.5-2.6h6.9c-.1,0-1.5.2-1.5,2.6V59.3c0,2.8.7,5.3,3.3,5.3s4.4-2.2,4.4-4V49C130.3,46.6,129,46.4,128.8,46.4Zm-2.4-6.3c.9,0,2.1.3,2.1,1.4s-2.6,1.7-2.6,3.2a.3.3,0,0,1-.1-.2c0-1.8.8-1.9.8-3s-.3-.8-.6-.8-1.2,1.1-1.2,2.3h-.2l-.3-2.3A4,4,0,0,1,126.4,40.1Z" style="fill:#e7c57e"/><path d="M145,65.1c.2,0,1.5-.2,1.5-2.6V55.9h-.9v-.7h.9V49c0-2.4-1.3-2.6-1.5-2.6h7.7c4,0,6.4,1.3,7.7,2.9a9.9,9.9,0,0,1,1.9,6.2,10.3,10.3,0,0,1-2.6,6.8,9.5,9.5,0,0,1-7.4,3H145Zm7.1-.5a5.3,5.3,0,0,0,4.1-2,13,13,0,0,0,2.1-7.3,12.2,12.2,0,0,0-1.1-5.2,5.1,5.1,0,0,0-4.8-3.1h-1.9v8.2h2.8v.7h-2.8v8.7Z" style="fill:#e7c57e"/><path d="M164.4,55.8c0-5.4,3.2-9.8,9.2-9.8s9.2,4.4,9.2,9.8-3.2,9.7-9.2,9.7S164.4,61.1,164.4,55.8Zm9.2,9.1c3.5,0,5.2-4.1,5.2-9.1s-1.7-9.2-5.2-9.2-5.2,4.1-5.2,9.2S170,64.9,173.6,64.9Zm-4.4-19.7a11.5,11.5,0,0,0,4.4-1.6h0a10.9,10.9,0,0,0,4.4,1.6h.1a12.4,12.4,0,0,1-4.5-4h0a13.3,13.3,0,0,1-4.5,4Z" style="fill:#e7c57e"/><path d="M200.8,54.9c2.8,0,5.3,1.6,5.3,5a4.3,4.3,0,0,1-1.5,3.6c-1.2,1.2-3.2,1.7-5.9,1.7h-7c.1,0,1.5-.2,1.5-2.6V49c0-2.4-1.4-2.6-1.5-2.6h7.7c2.3,0,3.8.5,4.7,1.3a3.6,3.6,0,0,1,1.3,2.9C205.4,53.7,202.1,54.9,200.8,54.9Zm-2.2-.3c1.8,0,3-1.4,3.1-4a3.9,3.9,0,0,0-.7-2.5,2.6,2.6,0,0,0-2.2-1.1h-1.7v7.6Zm.1,10a2.9,2.9,0,0,0,2.6-1.3,5.8,5.8,0,0,0,.8-3.2c0-2.6-1-4.8-3.5-4.8h-1.5v9.3Z" style="fill:#e7c57e"/><path d="M220.3,46.4h6.9c-.2,0-1.5.2-1.5,2.6V62.5c0,2.4,1.3,2.6,1.5,2.6h-5.4V62.1a6.6,6.6,0,0,1-5.8,3.3c-4.7,0-5.9-2.8-5.9-5.9V49c0-2.4-1.3-2.6-1.5-2.6h6.9c-.1,0-1.5.2-1.5,2.6V59.3c0,2.8.7,5.3,3.4,5.3s4.4-2.2,4.4-4V49C221.8,46.6,220.4,46.4,220.3,46.4Z" style="fill:#e7c57e"/><path d="M230,65.1c.1,0,1.5-.2,1.5-2.6V49c0-2.4-1.4-2.6-1.5-2.6h7.6c4,0,6.4,1.3,7.8,2.9a9.8,9.8,0,0,1,1.8,6.2,10.3,10.3,0,0,1-2.6,6.8,9.3,9.3,0,0,1-7.4,3H230Zm7-.5a5.1,5.1,0,0,0,4.1-2,12.3,12.3,0,0,0,2.1-7.3,13.7,13.7,0,0,0-1-5.2,5.3,5.3,0,0,0-4.8-3.1h-2V64.6Z" style="fill:#e7c57e"/><path d="M247.1,65.1c.2,0,1.8-.4,2.8-2.9l5-12.5c1.1-2.9-.7-3.3-.8-3.3h5l5.3,15.5c.9,2.9,2.3,3.3,2.5,3.3H260s1.3-.3.4-2.9l-.9-2.7h-7.8l-1.1,2.7c-1,2.5.3,2.9.4,2.9h-3.9Zm12.2-6.3-3.4-10-4,10Z" style="fill:#e7c57e"/><path d="M267.8,65.1c.1,0,1.5-.2,1.5-2.6V49c0-2.4-1.4-2.6-1.5-2.6h6.9c2.7,0,4.6.5,5.8,1.6a4.6,4.6,0,0,1,1.5,3.8,5.7,5.7,0,0,1-2.6,5,10.1,10.1,0,0,1-5.4,1.4h-.8v4.4c0,2.4,1.4,2.6,1.5,2.6h-6.9Zm6-7.6a3.7,3.7,0,0,0,2.7-1.1,6,6,0,0,0,1.5-4.5,5.7,5.7,0,0,0-1.1-3.9,3.3,3.3,0,0,0-2.6-1h-1.1V57.5Z" style="fill:#e7c57e"/><path d="M296.8,50.1h0c0-.2-.3-3.1-3-3.1h-4.2v8.2h3.9a2.3,2.3,0,0,0,2.4-2.3h0v5.3h0a2.4,2.4,0,0,0-2.4-2.4h-3.9v8.8h4.7c2.7,0,3-2.9,3-3.2h0v3.8H284.2c.1,0,1.5-.2,1.5-2.6V49c0-2.4-1.4-2.6-1.5-2.6h12.6Z" style="fill:#e7c57e"/><path d="M299.9,51.1c0-3.3,2.9-5.1,6.5-5.1s3.6.3,5.3.3v4h-.1a3.9,3.9,0,0,0-1.2-2.5,5.5,5.5,0,0,0-3.9-1.2c-2,0-3.8.8-3.8,2.7s1.5,2.5,2.9,3.3l3.4,2c2.7,1.5,3.8,3.3,3.8,5.4s-2.7,5.3-7.1,5.3h-5.3v-5h0a5.5,5.5,0,0,0,1.2,3.1,5.2,5.2,0,0,0,3.9,1.4c3.2,0,4.2-1.5,4.2-3s-.6-2.4-3-3.7l-3.6-2C301.1,54.8,299.9,53.3,299.9,51.1Z" style="fill:#e7c57e"/><path d="M314,50.1h-.1V46.3h15.5v3.8h0c0-.2-.3-3.1-3-3.1h-2.8V62.5c0,2.4,1.4,2.6,1.5,2.6h-6.9c.2,0,1.5-.2,1.5-2.6V47h-2.8C314.2,47,314,49.9,314,50.1Z" style="fill:#e7c57e"/></g></g></svg>