<svg xmlns="http://www.w3.org/2000/svg" viewBox="0 0 495.7 88.2"><g id="Layer_2" data-name="Layer 2"><g id="Layer_1-2" data-name="Layer 1"><path d="M27,27.7V21.6H46.6v6.1Zm3.6,12.4V9.4H43.2a18,18,0,0,1,8.7,1.9,12.3,12.3,0,0,1,5.6,5.2,16.3,16.3,0,0,1,2,8.2A17.5,17.5,0,0,1,57.6,33,13,13,0,0,1,52,38.3a20,20,0,0,1-8.8,1.8Zm8.1-6.4h3.9c2.9,0,5.2-.8,6.6-2.3s2.2-3.7,2.2-6.7c0-5.9-2.9-8.8-8.8-8.8H38.7Z" style="fill:#e7c57e"/><path d="M69.8,40.1H61.7L76,9.4h6.4L96.8,40.1h-8L78.5,15.9h1.7Zm-1.5-6.3,3.2-6.1h15l3.1,6.1ZM79.2,6.5a9.2,9.2,0,0,1-5.1-1.3,6.3,6.3,0,0,1-2.9-3.5L74.5.3a3.5,3.5,0,0,0,2,1.3,8,8,0,0,0,2.7.4,7.7,7.7,0,0,0,2.7-.4,3.5,3.5,0,0,0,2-1.3l3.3,1.4a6.3,6.3,0,0,1-2.9,3.5A9.2,9.2,0,0,1,79.2,6.5Z" style="fill:#e7c57e"/><path d="M99.8,40.1V9.4h5.9l15.2,19-1.3,1.1V9.4h7.6V40.1h-5.9L106.1,21.2l1.2-1.1v20Z" style="fill:#e7c57e"/><path d="M149.5,40.5a18.6,18.6,0,0,1-8.7-1.9,13.3,13.3,0,0,1-5.6-5.4,16.5,16.5,0,0,1-2-8.5,16,16,0,0,1,2-8.3,13.3,13.3,0,0,1,5.6-5.4,17.4,17.4,0,0,1,8.4-1.9,21.8,21.8,0,0,1,6.3.8,13.5,13.5,0,0,1,4.8,2.4L157.8,18a19.2,19.2,0,0,0-4.1-2,14.2,14.2,0,0,0-4.2-.6c-2.8,0-4.8.8-6.1,2.3s-2,3.9-2,7,.7,5.7,2.1,7.3,3.5,2.4,6.4,2.4l2.9-.2,2.9-.7L154,35.8V28.3h-5.4V22.8h12.6V38.2a23.4,23.4,0,0,1-3.5,1.3l-4,.8Z" style="fill:#e7c57e"/><path d="M181.3,40.1V9.4h8.1V40.1Zm20.4,0L187.8,24.4l13.5-15h9.5L195.1,26.3l.6-4.1,15.6,17.9Z" style="fill:#e7c57e"/><path d="M220.2,40.1V26.3l1.7,4.5L207.4,9.4h9.1l8.8,13.9h-2.1l8.9-13.9h9.3L226.7,30.8l1.7-4.5V40.1Zm6.4-33.3h-4.7L226.4,0h7Z" style="fill:#e7c57e"/><path d="M26.2,74.8v-2h10v2Zm2.2,8.3V64.8h6.3A10.9,10.9,0,0,1,40,65.9,6.9,6.9,0,0,1,43.2,69a9.4,9.4,0,0,1,1.1,4.9,9.7,9.7,0,0,1-1.1,5A6.9,6.9,0,0,1,40,82a10.9,10.9,0,0,1-5.3,1.1Zm2.7-2.2h3.5c2.3,0,4.1-.6,5.2-1.8s1.8-2.8,1.8-5.2-.6-4-1.8-5.1-2.9-1.7-5.2-1.7H31.1Z" style="fill:#fff"/><path d="M48.7,83.1V64.8h12V67H51.3v5.7h8.8v2.2H51.3v6h9.4v2.2Zm2.4-19.9L53.9,59h2.4l2.9,4.2H57.5l-2.4-2.7-2.3,2.7Zm6.8-2.7a1.9,1.9,0,0,1,.2-.8l.5-.6.5-.4a.8.8,0,0,0,.2-.5c0-.2-.1-.3-.3-.4H57.5l-.8.3L56.4,57l1-.4h1.4a2.9,2.9,0,0,1,1.7.4,1,1,0,0,1,.6.9c0,.4,0,.6-.2.8l-.6.6-.6.5a1.1,1.1,0,0,0-.3.8Z" style="fill:#fff"/><path d="M72.5,83.1V64.8h2.1L85.8,79.6h-.6V64.8h2.5V83.1H85.6L74.4,68.4H75V83.1Z" style="fill:#fff"/><path d="M92.7,83.1V64.8h2.7v7.9h10.3V64.8h2.7V83.1h-2.7V75H95.4v8.1Z" style="fill:#fff"/><path d="M111.6,83.1l8.1-18.3H122l8.3,18.3h-2.8l-2.2-5.2,1.1.8H115.3l1.2-.8-2.2,5.2Zm9.2-15.3-3.9,9.3-.6-.6h9.2l-.5.6-4.1-9.3Zm-4.3-4.6,3.2-4.5h2.4l3.2,4.5h-1.9l-2.5-2.9-2.5,2.9Zm3,25V85.6h2.8v2.6Z" style="fill:#fff"/><path d="M133.5,83.1V64.8h2.1l11.2,14.8h-.6V64.8h2.5V83.1h-2.1L135.4,68.4h.6V83.1Z" style="fill:#fff"/><path d="M165.8,83.1v-16h-6.3V64.8h15.2v2.3h-6.2v16Z" style="fill:#fff"/><path d="M178,83.1V64.8h2.7v7.9H191V64.8h2.7V83.1H191V75H180.7v8.1Z" style="fill:#fff"/><path d="M198.1,73.9a10.7,10.7,0,0,1,1-4.9,7.4,7.4,0,0,1,3-3.3,10.2,10.2,0,0,1,9.2,0,7.8,7.8,0,0,1,2.9,3.3,10.7,10.7,0,0,1,1.1,4.9,11.2,11.2,0,0,1-1.1,5,8.5,8.5,0,0,1-2.9,3.3,8.8,8.8,0,0,1-4.6,1.2,8.5,8.5,0,0,1-4.6-1.2,8,8,0,0,1-3-3.3A12.4,12.4,0,0,1,198.1,73.9Zm2.8,0a11.3,11.3,0,0,0,.7,3.9,5,5,0,0,0,1.9,2.4,6.3,6.3,0,0,0,3.2.8,5.5,5.5,0,0,0,4.3-1.8,8.4,8.4,0,0,0,1.5-5.3,11.2,11.2,0,0,0-.7-3.8,5.2,5.2,0,0,0-2-2.4,5.9,5.9,0,0,0-3.1-.8,5.2,5.2,0,0,0-4.3,1.8A8.2,8.2,0,0,0,200.9,73.9Zm1.4-10.7,3.2-4.5h2.4l3.2,4.5h-1.9l-2.5-2.9-2.5,2.9Z" style="fill:#fff"/><path d="M219.7,83.1V64.8h2.1l11.3,14.8h-.7V64.8h2.5V83.1h-2L221.6,68.4h.6V83.1Z" style="fill:#fff"/><path d="M248.6,83.4a9.6,9.6,0,0,1-5.1-1.2,6.9,6.9,0,0,1-3.1-3.2,11.2,11.2,0,0,1-1.1-5,10.9,10.9,0,0,1,1.1-5,7.8,7.8,0,0,1,3.2-3.3,9.7,9.7,0,0,1,5-1.1,9.6,9.6,0,0,1,3.5.5,10.1,10.1,0,0,1,2.6,1.6l-1,2.1a9.1,9.1,0,0,0-1.6-1.1,7.6,7.6,0,0,0-1.6-.6l-1.9-.2a5.9,5.9,0,0,0-4.8,1.9,7.4,7.4,0,0,0-1.6,5.2,7.9,7.9,0,0,0,1.5,5.2,6.4,6.4,0,0,0,5,1.8l2.3-.2,2.2-.7-.5,1.3v-6h-4.5v-2h6.7V82a7.5,7.5,0,0,1-1.8.7l-2.2.5Z" style="fill:#fff"/><path d="M271.8,83.1v-16h-6.2V64.8h15.2v2.3h-6.3v16Z" style="fill:#fff"/><path d="M284.1,83.1V64.8h2.7V83.1Z" style="fill:#fff"/><path d="M291.8,83.1V64.8h2.1l11.3,14.8h-.7V64.8H307V83.1h-2L293.7,68.4h.6V83.1Z" style="fill:#fff"/><path d="M319.7,83.1V64.8h2.4l7.1,15.9h-.8l7.1-15.9h2.3V83.1h-2.4V68.5h.8l-6.6,14.6h-1.7l-6.6-14.6h.9V83.1Z" style="fill:#fff"/><path d="M342.3,73.9a10.7,10.7,0,0,1,1-4.9,7.8,7.8,0,0,1,2.9-3.3,8.8,8.8,0,0,1,4.7-1.1,8.1,8.1,0,0,1,4.5,1.1,7.4,7.4,0,0,1,3,3.3,10.7,10.7,0,0,1,1.1,4.9,11.2,11.2,0,0,1-1.1,5,8,8,0,0,1-3,3.3,8.4,8.4,0,0,1-4.5,1.2,8.3,8.3,0,0,1-4.6-1.2,8,8,0,0,1-3-3.3A10.9,10.9,0,0,1,342.3,73.9Zm2.8,0a11.4,11.4,0,0,0,.6,3.9,5.9,5.9,0,0,0,2,2.4,6.1,6.1,0,0,0,3.2.8,5.2,5.2,0,0,0,4.2-1.8,8.4,8.4,0,0,0,1.5-5.3,11.2,11.2,0,0,0-.6-3.8,5.9,5.9,0,0,0-2-2.4,6.2,6.2,0,0,0-3.1-.8,5.1,5.1,0,0,0-4.3,1.8A8.2,8.2,0,0,0,345.1,73.9Zm5-10.7,3.1-4.5H356l-4,4.5Zm3.6,3-1.2-1.5h2a3.5,3.5,0,0,0,1.6-.3,2,2,0,0,0,.9-.9,7.2,7.2,0,0,0,.2-1.7v-.4h2.3v.8a4.2,4.2,0,0,1-.4,2,3.5,3.5,0,0,1-1.3,1.4,3.3,3.3,0,0,1-2,.5Z" style="fill:#fff"/><path d="M363.9,83.1V64.8h2.7V83.1Z" style="fill:#fff"/><path d="M379.3,83.1V64.8h2.1l11.2,14.8H392V64.8h2.5V83.1h-2L381.2,68.4h.6V83.1Z" style="fill:#fff"/><path d="M399.5,83.1V64.8h2.7v7.9h10.3V64.8h2.7V83.1h-2.7V75H402.2v8.1Z" style="fill:#fff"/><path d="M418.4,83.1l8.1-18.3h2.4l8.3,18.3h-2.8l-2.3-5.2,1.2.8H422.1l1.3-.8-2.3,5.2Zm9.3-15.3-4,9.3-.6-.6h9.2l-.5.6-4-9.3Zm-4-4.6,2.8-4.2h2.4l2.9,4.2h-1.7l-2.4-2.7-2.3,2.7Zm6.6-2.7,2.2-3.9h2.4l-3,3.9Z" style="fill:#fff"/><path d="M444.7,83.1v-16h-6.3V64.8h15.3v2.3h-6.3v16Z" style="fill:#fff"/><path d="M470.4,83.1l-8-18.3h2.9l6.8,16.1h-.9l6.9-16.1h2.8l-8.1,18.3Z" style="fill:#fff"/><path d="M483.7,83.1V64.8h12V67h-9.4v5.7h8.8v2.2h-8.8v6h9.4v2.2Zm2.4-19.9,2.8-4.2h2.4l2.9,4.2h-1.7l-2.4-2.7-2.3,2.7Zm7.7-2.7-3-3.9h2.4l2.2,3.9Z" style="fill:#fff"/><rect y="4.7" width="3.8" height="79.93" style="fill:#e7c57e"/></g></g></svg>