<svg xmlns="http://www.w3.org/2000/svg" viewBox="0 0 495.7 83.5"><g id="Layer_2" data-name="Layer 2"><g id="Layer_1-2" data-name="Layer 1"><path d="M26.1,19.2h3.6V6.7a47.4,47.4,0,0,1,8-.6c5.3,0,9.2,1.2,11.8,3.6s4,5.7,4,10.5-1.4,8.6-4.1,11.4-7.3,4.1-12.9,4.1a45.8,45.8,0,0,1-6.8-.3V22.2H26.1Zm15.1,3H33.5V32.6h3.7c8.1,0,12.4-4.4,12.4-12.4S45.8,9.1,37.9,9.1a16.3,16.3,0,0,0-4.4.4v9.7h7.7Z" style="fill:#e7c57e"/><path d="M64.3,26.3l-3,9.1H57.4l9.9-29h4.5l9.9,29h-4l-3.1-9.1ZM66.4.2c.2,1,1,2.1,3.1,2.1s2.9-.9,3.1-2.1h2.2c0,2.6-1.6,4.6-5.4,4.6s-5.2-2-5.3-4.6Zm7.4,23.2L71,15c-.6-1.9-1.1-3.6-1.5-5.3h-.1c-.4,1.7-.9,3.5-1.5,5.3l-2.8,8.4Z" style="fill:#e7c57e"/><path d="M87.2,35.4V6.4h4.1l9.3,14.7a83.8,83.8,0,0,1,5.2,9.4h.1c-.3-3.9-.4-7.4-.4-11.9V6.4H109v29h-3.8L96,20.7A78.4,78.4,0,0,1,90.6,11h-.2c.3,3.6.3,7.1.3,11.9V35.4Z" style="fill:#e7c57e"/><path d="M138.9,34.1a24.8,24.8,0,0,1-8.9,1.6c-4.4,0-8.1-1.1-10.9-3.8A14.9,14.9,0,0,1,115,21.1c.1-8.7,6-15,15.8-15A18,18,0,0,1,138,7.4l-.9,3.1a14.6,14.6,0,0,0-6.4-1.3c-7.1,0-11.7,4.4-11.7,11.7s4.4,11.7,11.2,11.7a12.8,12.8,0,0,0,5-.7V23.2h-5.9v-3h9.6Z" style="fill:#e7c57e"/><path d="M156.2,6.4h3.7v14h.1l2.3-3.1,8.9-10.9h4.7L165.3,18.7l11.4,16.7h-4.5l-9.5-14.2-2.8,3.2v11h-3.7Z" style="fill:#e7c57e"/><path d="M187.2,35.4V23.1L178,6.4h4.3l4.1,8c1.1,2.2,2,4,2.9,6h0c.9-1.9,1.9-3.8,3-6l4.2-8h4.2L191,23.1V35.4ZM195.8.1l-5.5,5h-3.1l4-5Z" style="fill:#e7c57e"/><path d="M26.2,70.1v-2h10v2Zm2.2,8.3V60.1h6.3A12.2,12.2,0,0,1,40,61.2a6.9,6.9,0,0,1,3.2,3.1,9.5,9.5,0,0,1,1.1,5,9.4,9.4,0,0,1-1.1,4.9A7.6,7.6,0,0,1,40,77.4a12.2,12.2,0,0,1-5.3,1Zm2.7-2.2h3.5a7.2,7.2,0,0,0,5.2-1.7,7,7,0,0,0,1.8-5.2c0-2.4-.6-4.1-1.8-5.2s-2.9-1.7-5.2-1.7H31.1Z" style="fill:#fff"/><path d="M48.7,78.4V60.1h12v2.2H51.3V68h8.8v2.2H51.3v6.1h9.4v2.1Zm2.4-19.8,2.8-4.3h2.4l2.9,4.3H57.5l-2.4-2.8-2.3,2.8Zm6.8-2.8a1.9,1.9,0,0,1,.2-.8,1.2,1.2,0,0,1,.5-.5c.2-.2.4-.3.5-.5a.8.8,0,0,0,.2-.5.3.3,0,0,0-.3-.3H57.5l-.8.3-.3-1.1,1-.4h1.4a2.9,2.9,0,0,1,1.7.4,1,1,0,0,1,.6.9c0,.4,0,.7-.2.9l-.6.5-.6.6a.9.9,0,0,0-.3.7Z" style="fill:#fff"/><path d="M72.5,78.4V60.1h2.1L85.8,74.9h-.6V60.1h2.5V78.4H85.6L74.4,63.7H75V78.4Z" style="fill:#fff"/><path d="M92.7,78.4V60.1h2.7V68h10.3V60.1h2.7V78.4h-2.7V70.3H95.4v8.1Z" style="fill:#fff"/><path d="M111.6,78.4l8.1-18.3H122l8.3,18.3h-2.8l-2.2-5.2,1.1.8H115.3l1.2-.8-2.2,5.2Zm9.2-15.3-3.9,9.3-.6-.6h9.2l-.5.6-4.1-9.3Zm-4.3-4.5,3.2-4.5h2.4l3.2,4.5h-1.9l-2.5-3-2.5,3Zm3,24.9V80.9h2.8v2.6Z" style="fill:#fff"/><path d="M133.5,78.4V60.1h2.1l11.2,14.8h-.6V60.1h2.5V78.4h-2.1L135.4,63.7h.6V78.4Z" style="fill:#fff"/><path d="M165.8,78.4v-16h-6.3V60.1h15.2v2.3h-6.2v16Z" style="fill:#fff"/><path d="M178,78.4V60.1h2.7V68H191V60.1h2.7V78.4H191V70.3H180.7v8.1Z" style="fill:#fff"/><path d="M198.1,69.3a10.9,10.9,0,0,1,1-5,8,8,0,0,1,3-3.3,10.2,10.2,0,0,1,9.2,0,8.5,8.5,0,0,1,2.9,3.3,10.7,10.7,0,0,1,1.1,4.9,10.9,10.9,0,0,1-1.1,5,7.8,7.8,0,0,1-2.9,3.3,8.8,8.8,0,0,1-4.6,1.2,8.5,8.5,0,0,1-4.6-1.2,7.4,7.4,0,0,1-3-3.3A12.2,12.2,0,0,1,198.1,69.3Zm2.8,0a11.2,11.2,0,0,0,.7,3.8,5,5,0,0,0,1.9,2.4,5.5,5.5,0,0,0,3.2.8,5.5,5.5,0,0,0,4.3-1.8,8.2,8.2,0,0,0,1.5-5.2,11.3,11.3,0,0,0-.7-3.9,5.2,5.2,0,0,0-2-2.4,5.9,5.9,0,0,0-3.1-.8,5,5,0,0,0-4.3,1.9A7.9,7.9,0,0,0,200.9,69.3Zm1.4-10.7,3.2-4.5h2.4l3.2,4.5h-1.9l-2.5-3-2.5,3Z" style="fill:#fff"/><path d="M219.7,78.4V60.1h2.1l11.3,14.8h-.7V60.1h2.5V78.4h-2L221.6,63.7h.6V78.4Z" style="fill:#fff"/><path d="M248.6,78.7a9.6,9.6,0,0,1-5.1-1.2,6.9,6.9,0,0,1-3.1-3.2,11.2,11.2,0,0,1-1.1-5,10.9,10.9,0,0,1,1.1-5,8.5,8.5,0,0,1,3.2-3.3,10.9,10.9,0,0,1,5-1.1,12.3,12.3,0,0,1,3.5.5,10.6,10.6,0,0,1,2.6,1.7l-1,2.1a6.1,6.1,0,0,0-1.6-1.2l-1.6-.6-1.9-.2a6.2,6.2,0,0,0-4.8,1.9,7.5,7.5,0,0,0-1.6,5.2,7.9,7.9,0,0,0,1.5,5.2,6.4,6.4,0,0,0,5,1.8,9,9,0,0,0,2.3-.2,14.1,14.1,0,0,0,2.2-.6l-.5,1.2v-6h-4.5v-2h6.7v8.7l-1.8.6-2.2.5Z" style="fill:#fff"/><path d="M271.8,78.4v-16h-6.2V60.1h15.2v2.3h-6.3v16Z" style="fill:#fff"/><path d="M284.1,78.4V60.1h2.7V78.4Z" style="fill:#fff"/><path d="M291.8,78.4V60.1h2.1l11.3,14.8h-.7V60.1H307V78.4h-2L293.7,63.7h.6V78.4Z" style="fill:#fff"/><path d="M319.7,78.4V60.1h2.4L329.2,76h-.8l7.1-15.9h2.3V78.4h-2.4V63.8h.8l-6.6,14.6h-1.7l-6.6-14.6h.9V78.4Z" style="fill:#fff"/><path d="M342.3,69.3a10.9,10.9,0,0,1,1-5,8.5,8.5,0,0,1,2.9-3.3,9.9,9.9,0,0,1,4.7-1.1,9.1,9.1,0,0,1,4.5,1.1,8,8,0,0,1,3,3.3,10.7,10.7,0,0,1,1.1,4.9,10.9,10.9,0,0,1-1.1,5,7.4,7.4,0,0,1-3,3.3,8.4,8.4,0,0,1-4.5,1.2,8.3,8.3,0,0,1-4.6-1.2,7.4,7.4,0,0,1-3-3.3A10.7,10.7,0,0,1,342.3,69.3Zm2.8,0a11.2,11.2,0,0,0,.6,3.8,5.9,5.9,0,0,0,2,2.4,5.3,5.3,0,0,0,3.2.8,5.2,5.2,0,0,0,4.2-1.8,8.2,8.2,0,0,0,1.5-5.2,11.4,11.4,0,0,0-.6-3.9,5.9,5.9,0,0,0-2-2.4,6.2,6.2,0,0,0-3.1-.8,4.9,4.9,0,0,0-4.3,1.9A7.9,7.9,0,0,0,345.1,69.3Zm5-10.7,3.1-4.5H356l-4,4.5Zm3.6,3L352.5,60h2a3.5,3.5,0,0,0,1.6-.3,1.3,1.3,0,0,0,.9-.9,7,7,0,0,0,.2-1.6v-.5h2.3v.8a4.6,4.6,0,0,1-.4,2.1,4.4,4.4,0,0,1-1.3,1.4,4.2,4.2,0,0,1-2,.5Z" style="fill:#fff"/><path d="M363.9,78.4V60.1h2.7V78.4Z" style="fill:#fff"/><path d="M379.3,78.4V60.1h2.1l11.2,14.8H392V60.1h2.5V78.4h-2L381.2,63.7h.6V78.4Z" style="fill:#fff"/><path d="M399.5,78.4V60.1h2.7V68h10.3V60.1h2.7V78.4h-2.7V70.3H402.2v8.1Z" style="fill:#fff"/><path d="M418.4,78.4l8.1-18.3h2.4l8.3,18.3h-2.8l-2.3-5.2,1.2.8H422.1l1.3-.8-2.3,5.2Zm9.3-15.3-4,9.3-.6-.6h9.2l-.5.6-4-9.3Zm-4-4.5,2.8-4.3h2.4l2.9,4.3h-1.7l-2.4-2.8-2.3,2.8Zm6.6-2.8,2.2-3.9h2.4l-3,3.9Z" style="fill:#fff"/><path d="M444.7,78.4v-16h-6.3V60.1h15.3v2.3h-6.3v16Z" style="fill:#fff"/><path d="M470.4,78.4l-8-18.3h2.9l6.8,16.1h-.9l6.9-16.1h2.8l-8.1,18.3Z" style="fill:#fff"/><path d="M483.7,78.4V60.1h12v2.2h-9.4V68h8.8v2.2h-8.8v6.1h9.4v2.1Zm2.4-19.8,2.8-4.3h2.4l2.9,4.3h-1.7l-2.4-2.8-2.3,2.8Zm7.7-2.8-3-3.9h2.4l2.2,3.9Z" style="fill:#fff"/><rect width="3.8" height="79.93" style="fill:#e7c57e"/></g></g></svg>