<svg xmlns="http://www.w3.org/2000/svg" viewBox="0 0 159.7 79.9"><g id="Layer_2" data-name="Layer 2"><g id="Layer_1-2" data-name="Layer 1"><path d="M26.1,19.2h3.6V6.7a47.4,47.4,0,0,1,8-.6c5.3,0,9.2,1.2,11.8,3.6s4,5.7,4,10.5-1.4,8.6-4.1,11.4-7.3,4.1-12.9,4.1a45.8,45.8,0,0,1-6.8-.3V22.2H26.1Zm15.1,3H33.5V32.6h3.7c8.1,0,12.4-4.4,12.4-12.4S45.8,9.1,37.9,9.1a16.3,16.3,0,0,0-4.4.4v9.7h7.7Z" style="fill:#e7c57e"/><path d="M84.8,3a7.2,7.2,0,0,1,.8,3.5c0,2.4-1.4,4.2-4.5,3.9a15.5,15.5,0,0,1,3.3,10.2c0,10-6,15.3-13.4,15.3S57.9,30,57.9,21.2,63.6,5.9,71.4,5.9a14.5,14.5,0,0,1,4.5.8c1.3.4,3.4,1.5,4.8,1.5s1.9-.6,1.9-1.9a5.7,5.7,0,0,0-.7-2.7ZM80.5,20.8C80.5,15,77.5,9,71.2,9s-9.3,5.8-9.3,12.1,3.3,11.8,9.3,11.8S80.5,27.4,80.5,20.8Z" style="fill:#e7c57e"/><path d="M90.5,35.4V6.4h4.1l9.3,14.7a70.4,70.4,0,0,1,5.2,9.4h.1c-.3-3.9-.4-7.4-.4-11.9V6.4h3.5v29h-3.8L99.3,20.7A78.4,78.4,0,0,1,93.9,11h-.1c.2,3.6.3,7.1.3,11.9V35.4Z" style="fill:#e7c57e"/><path d="M136.8,35.4l-9.5-29h4.1l4.5,14.3c1.3,3.9,2.3,7.5,3.1,10.9h.1c.8-3.4,2-7.1,3.3-10.9l4.9-14.3h4l-10.4,29Z" style="fill:#e7c57e"/><path d="M155.5,41a2.1,2.1,0,1,1,4.2,0,2.1,2.1,0,1,1-4.2,0Zm3.9-34.6v29h-3.7V6.4Z" style="fill:#e7c57e"/><path d="M26.2,70.1v-2h10v2Zm2.2,8.3V60.1h6.3A12.2,12.2,0,0,1,40,61.2a6.9,6.9,0,0,1,3.2,3.1,9.5,9.5,0,0,1,1.1,5,9.4,9.4,0,0,1-1.1,4.9A7.6,7.6,0,0,1,40,77.4a12.2,12.2,0,0,1-5.3,1Zm2.7-2.2h3.5a7.2,7.2,0,0,0,5.2-1.7,7,7,0,0,0,1.8-5.2c0-2.4-.6-4.1-1.8-5.2s-2.9-1.7-5.2-1.7H31.1Z" style="fill:#fff"/><path d="M48.1,69.3a10.9,10.9,0,0,1,1-5,8,8,0,0,1,3-3.3,9.2,9.2,0,0,1,4.6-1.1A9.1,9.1,0,0,1,61.2,61a8,8,0,0,1,3,3.3,10.7,10.7,0,0,1,1.1,4.9,10.9,10.9,0,0,1-1.1,5,7.4,7.4,0,0,1-3,3.3,8.4,8.4,0,0,1-4.5,1.2,8.5,8.5,0,0,1-4.6-1.2,7.4,7.4,0,0,1-3-3.3A10.7,10.7,0,0,1,48.1,69.3Zm2.8,0a9.2,9.2,0,0,0,.7,3.8,5,5,0,0,0,1.9,2.4,5.3,5.3,0,0,0,3.2.8,5.2,5.2,0,0,0,4.2-1.8,8.2,8.2,0,0,0,1.5-5.2,11.4,11.4,0,0,0-.6-3.9,5.9,5.9,0,0,0-2-2.4,6.2,6.2,0,0,0-3.1-.8,5,5,0,0,0-4.3,1.9A7.9,7.9,0,0,0,50.9,69.3Zm1.7-10.7,2.9-4.3h2.4l2.8,4.3H59l-2.3-2.8-2.4,2.8Zm6.7-2.8,2.2-3.9h2.3l-2.9,3.9Z" style="fill:#fff"/><path d="M69.7,78.4V60.1h2.7V78.4Z" style="fill:#fff"/><path d="M89.5,78.4v-16H83.2V60.1H98.5v2.3H92.2v16Z" style="fill:#fff"/><path d="M99.8,78.4,108,60.1h2.3l8.3,18.3h-2.8l-2.2-5.2,1.1.8H103.6l1.2-.8-2.2,5.2Zm9.3-15.3-3.9,9.3-.7-.6h9.3l-.6.6-4-9.3Zm-.9-4.5,3.1-4.5h2.8l-4,4.5Z" style="fill:#fff"/><path d="M130,78.7a9,9,0,0,1-4.8-1.2,7.2,7.2,0,0,1-3-3.2,11.2,11.2,0,0,1-1.1-5,10.9,10.9,0,0,1,1.1-5,8,8,0,0,1,3-3.3,10,10,0,0,1,4.8-1.1,12.3,12.3,0,0,1,3.5.5,9.5,9.5,0,0,1,2.7,1.7l-1,2.2a8.4,8.4,0,0,0-2.4-1.6,7.9,7.9,0,0,0-2.8-.4,5.8,5.8,0,0,0-4.5,1.8,7.9,7.9,0,0,0-1.5,5.2,10.8,10.8,0,0,0,.6,3.8,6.1,6.1,0,0,0,2.1,2.4,6.7,6.7,0,0,0,3.3.8,7.8,7.8,0,0,0,2.8-.5,7.9,7.9,0,0,0,2.4-1.5l1,2.1a8.7,8.7,0,0,1-6.2,2.3Z" style="fill:#fff"/><rect width="3.8" height="79.93" style="fill:#e7c57e"/></g></g></svg>