<svg xmlns="http://www.w3.org/2000/svg" viewBox="0 0 190.9 80.4"><g id="Layer_2" data-name="Layer 2"><g id="Layer_1-2" data-name="Layer 1"><path d="M27,23.4v-6H46.6v6Zm3.6,12.5V5.2H43.2A19.3,19.3,0,0,1,51.9,7a13.1,13.1,0,0,1,5.6,5.3,16.3,16.3,0,0,1,2,8.2,17.8,17.8,0,0,1-1.9,8.3A13.6,13.6,0,0,1,52,34.1a20,20,0,0,1-8.8,1.8Zm8.1-6.5h3.9c2.9,0,5.2-.7,6.6-2.2s2.2-3.7,2.2-6.7c0-5.9-2.9-8.8-8.8-8.8H38.7Z" style="fill:#e7c57e"/><path d="M80.1,36.3a17,17,0,0,1-8.3-2,12.6,12.6,0,0,1-5.3-5.4,17.4,17.4,0,0,1-1.9-8.4,18.1,18.1,0,0,1,1.9-8.3,13.6,13.6,0,0,1,5.4-5.5,17.4,17.4,0,0,1,8.2-1.9l2.7.2a9.4,9.4,0,0,0,2.5.2A3.4,3.4,0,0,0,88,4.3,5.9,5.9,0,0,0,88.7.9V0h6.7V1.9a7.4,7.4,0,0,1-.9,3.6,5.9,5.9,0,0,1-2.3,2.4,6.4,6.4,0,0,1-3.4.9l.9-1A12.4,12.4,0,0,1,94,13.1a18.8,18.8,0,0,1,1.4,7.4,17.4,17.4,0,0,1-1.9,8.4,12.6,12.6,0,0,1-5.3,5.4A16.2,16.2,0,0,1,80.1,36.3Zm0-6.2a6.5,6.5,0,0,0,5.3-2.4c1.4-1.6,2-4,2-7.2s-.6-5.5-2-7.1a7.2,7.2,0,0,0-10.7,0c-1.3,1.5-2,3.9-2,7.1s.7,5.6,2,7.2A6.6,6.6,0,0,0,80.1,30.1Z" style="fill:#e7c57e"/><path d="M101.3,35.9V5.2h5.9l15.3,19-1.3,1.1V5.2h7.6V35.9h-6L107.7,17l1.2-1.1v20Z" style="fill:#e7c57e"/><path d="M159.5,35.9l-14-30.7h8.4l10,23.2h-2.3L171.7,5.2h8.2l-14,30.7Z" style="fill:#e7c57e"/><path d="M182.8,35.9V5.2h8.1V35.9Zm.6,2.5h6.8v6.5h-6.8Z" style="fill:#e7c57e"/><path d="M26.2,70.6v-2h10v2Zm2.2,8.3V60.6h6.3a12.2,12.2,0,0,1,5.3,1,7.4,7.4,0,0,1,3.2,3.1,10,10,0,0,1,1.1,5,9.7,9.7,0,0,1-1.1,5A6.9,6.9,0,0,1,40,77.8a12.2,12.2,0,0,1-5.3,1.1Zm2.7-2.3h3.5c2.3,0,4.1-.5,5.2-1.7s1.8-2.9,1.8-5.2a7,7,0,0,0-1.8-5.2,7.2,7.2,0,0,0-5.2-1.7H31.1Z" style="fill:#fff"/><path d="M48.1,69.7a11.2,11.2,0,0,1,1-5,7.2,7.2,0,0,1,3-3.2,8.3,8.3,0,0,1,4.6-1.2,8.2,8.2,0,0,1,4.5,1.2,7.2,7.2,0,0,1,3,3.2,11.9,11.9,0,0,1,0,10,8,8,0,0,1-3,3.3,9.4,9.4,0,0,1-4.5,1.1A9.5,9.5,0,0,1,52.1,78a8,8,0,0,1-3-3.3A11.2,11.2,0,0,1,48.1,69.7Zm2.8,0a8.6,8.6,0,0,0,.7,3.8A4.8,4.8,0,0,0,53.5,76a6.1,6.1,0,0,0,3.2.8,5,5,0,0,0,4.2-1.9,7.9,7.9,0,0,0,1.5-5.2,10.8,10.8,0,0,0-.6-3.8,4.8,4.8,0,0,0-2-2.4,5.3,5.3,0,0,0-3.1-.8,5.2,5.2,0,0,0-4.3,1.8A8.2,8.2,0,0,0,50.9,69.7ZM52.6,59l2.9-4.2h2.4L60.7,59H59l-2.3-2.7L54.3,59Zm6.7-2.7,2.2-3.9h2.3l-2.9,3.9Z" style="fill:#fff"/><path d="M69.7,78.9V60.6h2.7V78.9Z" style="fill:#fff"/><path d="M89.5,78.9V62.8H83.2V60.6H98.5v2.2H92.2V78.9Z" style="fill:#fff"/><path d="M99.8,78.9,108,60.6h2.3l8.3,18.3h-2.8l-2.2-5.2,1.1.7H103.6l1.2-.7-2.2,5.2Zm9.3-15.4-3.9,9.4-.7-.6h9.3l-.6.6-4-9.4Zm-.9-4.5,3.1-4.5h2.8l-4,4.5Z" style="fill:#fff"/><path d="M130,79.1a9,9,0,0,1-4.8-1.1,8,8,0,0,1-3-3.3,11.9,11.9,0,0,1,0-10,7.2,7.2,0,0,1,3-3.2,9,9,0,0,1,4.8-1.2,9.5,9.5,0,0,1,3.5.6,7.7,7.7,0,0,1,2.7,1.7l-1,2.1a7.9,7.9,0,0,0-2.4-1.5,7.8,7.8,0,0,0-2.8-.5,5.8,5.8,0,0,0-4.5,1.8,8.2,8.2,0,0,0-1.5,5.2,10.4,10.4,0,0,0,.6,3.8,5,5,0,0,0,2.1,2.4,5.8,5.8,0,0,0,3.3.8,7.9,7.9,0,0,0,2.8-.4,8.4,8.4,0,0,0,2.4-1.6l1,2.2a7.4,7.4,0,0,1-2.7,1.6A9.5,9.5,0,0,1,130,79.1Z" style="fill:#fff"/><rect y="0.5" width="3.8" height="79.93" style="fill:#e7c57e"/></g></g></svg>