<svg xmlns="http://www.w3.org/2000/svg" viewBox="0 0 231.1 80"><g id="Layer_2" data-name="Layer 2"><g id="Layer_1-2" data-name="Layer 1"><path d="M29.5,6.5h3.7V32.4H45.7v3.1H29.5Z" style="fill:#e7c57e"/><path d="M54.8,6.5v29H51V6.5Z" style="fill:#e7c57e"/><path d="M77.6,21.9H66.3V32.4H78.9v3.1H62.6V6.5H78.2V9.6H66.3v9.2H77.6ZM71.8,0l4.5,4.9H73.1l-2.7-3h-.1l-2.7,3H64.4L68.9,0Z" style="fill:#e7c57e"/><path d="M85,35.5V6.5h4.1l9.3,14.7a91.7,91.7,0,0,1,5.2,9.4h.1a113.2,113.2,0,0,1-.5-12V6.5h3.6v29H103L93.8,20.8a97.9,97.9,0,0,1-5.5-9.7h-.1c.2,3.7.3,7.2.3,12V35.5Z" style="fill:#e7c57e"/><path d="M128.6,6.5V18.6h14.1V6.5h3.8v29h-3.8V21.9H128.6V35.5h-3.7V6.5Z" style="fill:#e7c57e"/><path d="M169.2,21.9H157.9V32.4h12.6v3.1H154.2V6.5h15.7V9.6h-12v9.2h11.3ZM163.4,0l4.5,4.9h-3.2l-2.7-3h-.1l-2.7,3h-3.1L160.5,0Zm-3.1,41.1a2.1,2.1,0,0,1,2.2-2.1,2.1,2.1,0,0,1,2.1,2.1,2.2,2.2,0,1,1-4.3,0Z" style="fill:#e7c57e"/><path d="M34.2,78.5l-8-18.3h2.9l6.8,16H35l6.9-16h2.8L36.6,78.5Z" style="fill:#fff"/><path d="M46.9,69.3a11.2,11.2,0,0,1,1-5,7.2,7.2,0,0,1,3-3.2,8.5,8.5,0,0,1,4.6-1.2,8.8,8.8,0,0,1,4.6,1.2A7.5,7.5,0,0,1,63,64.3a11.9,11.9,0,0,1,0,10,8,8,0,0,1-3,3.3,8.4,8.4,0,0,1-4.5,1.1,8.5,8.5,0,0,1-4.6-1.1,8,8,0,0,1-3-3.3A11.2,11.2,0,0,1,46.9,69.3Zm2.8,0a8.6,8.6,0,0,0,.7,3.8,4.8,4.8,0,0,0,1.9,2.5,6.1,6.1,0,0,0,3.2.8,5,5,0,0,0,4.2-1.9,7.9,7.9,0,0,0,1.5-5.2,10.8,10.8,0,0,0-.6-3.8,5.3,5.3,0,0,0-2-2.4,5.9,5.9,0,0,0-3.1-.8,5.2,5.2,0,0,0-4.3,1.8A8.2,8.2,0,0,0,49.7,69.3Zm5-10.7,3.1-4.5h2.8l-4,4.5Zm3.6,3-1.2-1.5h2a3.5,3.5,0,0,0,1.6-.3,2,2,0,0,0,.9-.9,4.2,4.2,0,0,0,.2-1.7v-.5h2.4v.9a4.6,4.6,0,0,1-.5,2,3.5,3.5,0,0,1-1.3,1.4,3.3,3.3,0,0,1-2,.5Z" style="fill:#fff"/><path d="M68.5,78.5V60.2h2.7V78.5Z" style="fill:#fff"/><path d="M92.2,78.7a9,9,0,0,1-4.8-1.1,8.2,8.2,0,0,1-3.1-3.3,10.9,10.9,0,0,1-1-5,11.2,11.2,0,0,1,1-5,7.4,7.4,0,0,1,3.1-3.2,10.1,10.1,0,0,1,8.2-.6,7.3,7.3,0,0,1,2.7,1.7l-.9,2.1A9.3,9.3,0,0,0,95,62.8a7.8,7.8,0,0,0-2.8-.5,5.3,5.3,0,0,0-4.5,1.9,7.3,7.3,0,0,0-1.6,5.1,10.3,10.3,0,0,0,.7,3.8,5,5,0,0,0,2.1,2.4,5.8,5.8,0,0,0,3.3.8,7.9,7.9,0,0,0,2.8-.4,10,10,0,0,0,2.4-1.6l.9,2.2a7.3,7.3,0,0,1-2.7,1.7A11.6,11.6,0,0,1,92.2,78.7Z" style="fill:#fff"/><path d="M102.5,78.5V60.2h2.7v7.9h10.3V60.2h2.7V78.5h-2.7V70.3H105.2v8.2Z" style="fill:#fff"/><path d="M130.6,78.7a8.8,8.8,0,0,1-4.2-.8,5.7,5.7,0,0,1-2.5-2.6,10.1,10.1,0,0,1-.8-4.2V60.2h2.7V71.1a6,6,0,0,0,1.2,4,4.4,4.4,0,0,0,3.6,1.3,4.9,4.9,0,0,0,3.7-1.3,6,6,0,0,0,1.2-4V60.2h2.6V71.1a10.1,10.1,0,0,1-.8,4.2,5.7,5.7,0,0,1-2.5,2.6A8.8,8.8,0,0,1,130.6,78.7Zm-.9-20.1,3-4.5h2.9l-4,4.5Z" style="fill:#fff"/><path d="M143,78.5V60.2h2.1l11.3,14.7h-.7V60.2h2.6V78.5h-2.1L145,63.7h.6V78.5Z" style="fill:#fff"/><path d="M171.9,78.7a10.1,10.1,0,0,1-5.1-1.1,6.9,6.9,0,0,1-3.1-3.2,11.2,11.2,0,0,1-1.1-5,11.3,11.3,0,0,1,1.1-5.1,7.6,7.6,0,0,1,3.2-3.2,10,10,0,0,1,5-1.2,9.5,9.5,0,0,1,3.5.6,7.6,7.6,0,0,1,2.6,1.6l-.9,2.1-1.6-1.1-1.6-.6-2-.2a5.9,5.9,0,0,0-4.8,1.9,7.4,7.4,0,0,0-1.6,5.2,7.4,7.4,0,0,0,1.6,5.2c1,1.2,2.7,1.8,4.9,1.8l2.3-.2,2.2-.7-.5,1.3v-6h-4.5v-2h6.8v8.6a8.4,8.4,0,0,1-1.9.7l-2.2.5Z" style="fill:#fff"/><path d="M195.2,78.5V62.4h-6.3V60.2h15.2v2.2h-6.2V78.5Z" style="fill:#fff"/><path d="M206.8,69.3a11.2,11.2,0,0,1,1-5,7,7,0,0,1,2.9-3.2,8.8,8.8,0,0,1,4.6-1.2,8.5,8.5,0,0,1,4.6,1.2,7.2,7.2,0,0,1,3,3.2,11.9,11.9,0,0,1,0,10,8,8,0,0,1-3,3.3,8.5,8.5,0,0,1-4.6,1.1,8.7,8.7,0,0,1-4.6-1.1,8.5,8.5,0,0,1-2.9-3.3A11.2,11.2,0,0,1,206.8,69.3Zm2.8,0a10.4,10.4,0,0,0,.6,3.8,5.6,5.6,0,0,0,2,2.5,5.9,5.9,0,0,0,3.1.8,5,5,0,0,0,4.3-1.9,7.9,7.9,0,0,0,1.5-5.2,10.8,10.8,0,0,0-.6-3.8,5.3,5.3,0,0,0-2-2.4,6.3,6.3,0,0,0-3.2-.8,5,5,0,0,0-4.2,1.8A8.2,8.2,0,0,0,209.6,69.3ZM211,58.6l3.2-4.5h2.3l3.2,4.5h-1.9l-2.5-2.9-2.4,2.9Z" style="fill:#fff"/><path d="M228.4,78.5V60.2h2.7V78.5Z" style="fill:#fff"/><rect y="0.1" width="3.8" height="79.93" style="fill:#e7c57e"/></g></g></svg>