<svg xmlns="http://www.w3.org/2000/svg" viewBox="0 0 231.1 84.6"><g id="Layer_2" data-name="Layer 2"><g id="Layer_1-2" data-name="Layer 1"><path d="M29,40.1V9.4h8.1V33.6h13v6.5Z" style="fill:#e7c57e"/><path d="M55.1,40.1V9.4h8.1V40.1Z" style="fill:#e7c57e"/><path d="M70,40.1V9.4H91.9v6.2h-14v5.8H91v6.2H77.9v6.3h14v6.2ZM79.2,6.8H73.5l6-6.8h4.3l6,6.8H84.1L81.7,3.4Z" style="fill:#e7c57e"/><path d="M97.2,40.1V9.4h5.9l15.3,19L117,29.5V9.4h7.7V40.1h-6L103.5,21.2l1.2-1.1v20Z" style="fill:#e7c57e"/><path d="M145.1,40.1V9.4h8V40.1Zm2.4-12.4V21.4h22.8v6.3Zm18,12.4V9.4h7.9V40.1Z" style="fill:#e7c57e"/><path d="M180.1,40.1V9.4H202v6.2H188v5.8h13.1v6.2H188v6.3h14v6.2Zm9.2-33.3h-5.6l6-6.8H194l5.9,6.8h-5.6l-2.5-3.4Zm-.9,35.8h6.8v6.5h-6.8Z" style="fill:#e7c57e"/><path d="M34.2,83.1l-8-18.3h2.9l6.8,16.1H35l6.9-16.1h2.8L36.6,83.1Z" style="fill:#fff"/><path d="M46.9,73.9a10.7,10.7,0,0,1,1-4.9,7.4,7.4,0,0,1,3-3.3,8.5,8.5,0,0,1,4.6-1.1,8.7,8.7,0,0,1,4.6,1.1A7.8,7.8,0,0,1,63,69a10.7,10.7,0,0,1,1.1,4.9,11.2,11.2,0,0,1-1.1,5,8,8,0,0,1-3,3.3,8.4,8.4,0,0,1-4.5,1.2,8.5,8.5,0,0,1-4.6-1.2,8,8,0,0,1-3-3.3A10.9,10.9,0,0,1,46.9,73.9Zm2.8,0a9.4,9.4,0,0,0,.7,3.9,5,5,0,0,0,1.9,2.4,6.1,6.1,0,0,0,3.2.8,5.2,5.2,0,0,0,4.2-1.8,8.4,8.4,0,0,0,1.5-5.3,11.2,11.2,0,0,0-.6-3.8,5.2,5.2,0,0,0-5.1-3.2,5.2,5.2,0,0,0-4.3,1.8A8.2,8.2,0,0,0,49.7,73.9Zm5-10.7,3.1-4.5h2.8l-4,4.5Zm3.6,3-1.2-1.5h2a3.5,3.5,0,0,0,1.6-.3,2,2,0,0,0,.9-.9,4.2,4.2,0,0,0,.2-1.7v-.4h2.4v.8a4.2,4.2,0,0,1-.5,2,3.5,3.5,0,0,1-1.3,1.4,3.3,3.3,0,0,1-2,.5Z" style="fill:#fff"/><path d="M68.5,83.1V64.8h2.7V83.1Z" style="fill:#fff"/><path d="M92.2,83.4a9,9,0,0,1-4.8-1.2,7.1,7.1,0,0,1-3.1-3.3,10.9,10.9,0,0,1-1-5,10.7,10.7,0,0,1,1-4.9,7.6,7.6,0,0,1,3.1-3.3,11.3,11.3,0,0,1,8.2-.6,7.3,7.3,0,0,1,2.7,1.7L97.4,69A7.7,7.7,0,0,0,95,67.4a7.9,7.9,0,0,0-2.8-.4,5.5,5.5,0,0,0-4.5,1.8,7.3,7.3,0,0,0-1.6,5.1,11.3,11.3,0,0,0,.7,3.9,5.2,5.2,0,0,0,2.1,2.3,5.8,5.8,0,0,0,3.3.9,7.8,7.8,0,0,0,2.8-.5,7.7,7.7,0,0,0,2.4-1.6l.9,2.2a7.3,7.3,0,0,1-2.7,1.7A9,9,0,0,1,92.2,83.4Z" style="fill:#fff"/><path d="M102.5,83.1V64.8h2.7v7.9h10.3V64.8h2.7V83.1h-2.7V75H105.2v8.1Z" style="fill:#fff"/><path d="M130.6,83.4a8.7,8.7,0,0,1-4.2-.9,5.7,5.7,0,0,1-2.5-2.6,10.1,10.1,0,0,1-.8-4.2V64.8h2.7V75.7a5.8,5.8,0,0,0,1.2,4,4.4,4.4,0,0,0,3.6,1.3,4.9,4.9,0,0,0,3.7-1.3,5.8,5.8,0,0,0,1.2-4V64.8h2.6V75.7a10.1,10.1,0,0,1-.8,4.2,5.7,5.7,0,0,1-2.5,2.6A8.7,8.7,0,0,1,130.6,83.4Zm-.9-20.2,3-4.5h2.9l-4,4.5Z" style="fill:#fff"/><path d="M143,83.1V64.8h2.1l11.3,14.8h-.7V64.8h2.6V83.1h-2.1L145,68.4h.6V83.1Z" style="fill:#fff"/><path d="M171.9,83.4a10.1,10.1,0,0,1-5.1-1.2,6.9,6.9,0,0,1-3.1-3.2,11.2,11.2,0,0,1-1.1-5,10.9,10.9,0,0,1,1.1-5,7.8,7.8,0,0,1,3.2-3.3,10,10,0,0,1,5-1.1,9.6,9.6,0,0,1,3.5.5,7.6,7.6,0,0,1,2.6,1.6l-.9,2.1-1.6-1.1-1.6-.6-2-.2a5.9,5.9,0,0,0-4.8,1.9,7.4,7.4,0,0,0-1.6,5.2,7.4,7.4,0,0,0,1.6,5.2c1,1.2,2.7,1.8,4.9,1.8l2.3-.2,2.2-.7-.5,1.3v-6h-4.5v-2h6.8V82a8.4,8.4,0,0,1-1.9.7l-2.2.5Z" style="fill:#fff"/><path d="M195.2,83.1v-16h-6.3V64.8h15.2v2.3h-6.2v16Z" style="fill:#fff"/><path d="M206.8,73.9a10.7,10.7,0,0,1,1-4.9,7.2,7.2,0,0,1,2.9-3.3,8.7,8.7,0,0,1,4.6-1.1,8.5,8.5,0,0,1,4.6,1.1,7.4,7.4,0,0,1,3,3.3,10.7,10.7,0,0,1,1.1,4.9,11.2,11.2,0,0,1-1.1,5,8,8,0,0,1-3,3.3,8.5,8.5,0,0,1-4.6,1.2,8.8,8.8,0,0,1-4.6-1.2,8.5,8.5,0,0,1-2.9-3.3A10.9,10.9,0,0,1,206.8,73.9Zm2.8,0a11.4,11.4,0,0,0,.6,3.9,5.2,5.2,0,0,0,5.1,3.2,5.2,5.2,0,0,0,4.3-1.8,8.4,8.4,0,0,0,1.5-5.3,11.2,11.2,0,0,0-.6-3.8,5.9,5.9,0,0,0-2-2.4,6.3,6.3,0,0,0-3.2-.8,5,5,0,0,0-4.2,1.8A8.2,8.2,0,0,0,209.6,73.9ZM211,63.2l3.2-4.5h2.3l3.2,4.5h-1.9l-2.5-2.9-2.4,2.9Z" style="fill:#fff"/><path d="M228.4,83.1V64.8h2.7V83.1Z" style="fill:#fff"/><rect y="4.7" width="3.8" height="79.93" style="fill:#e7c57e"/></g></g></svg>