<svg xmlns="http://www.w3.org/2000/svg" viewBox="0 0 32.6 32.6"><g id="Layer_2" data-name="Layer 2"><g id="Layer_1-2" data-name="Layer 1"><path d="M26.8,0H5.8A5.8,5.8,0,0,0,0,5.8v21a5.8,5.8,0,0,0,5.8,5.8h21a5.8,5.8,0,0,0,5.8-5.8V5.8A5.8,5.8,0,0,0,26.8,0ZM9.3,9.2H23.4l.8.2v.2l-6.3,7.1a2,2,0,0,1-1.5.6,1.8,1.8,0,0,1-1.4-.6L8.5,9.4H8.4Zm16.2,12a2.1,2.1,0,0,1-2.1,2.2H9.3a2.2,2.2,0,0,1-2.2-2.2V11.4a2,2,0,0,1,.3-1.1h0l6.5,7.3a3.2,3.2,0,0,0,2.4,1.1,3.3,3.3,0,0,0,2.5-1.1l6.3-7.1c0-.1.1-.2.1-.3a2.7,2.7,0,0,1,.3,1.2Z" style="fill:#fff"/></g></g></svg>