<svg xmlns="http://www.w3.org/2000/svg" viewBox="0 0 32.6 32.6"><g id="Layer_2" data-name="Layer 2"><g id="Layer_1-2" data-name="Layer 1"><path d="M18.8,10.3A4.1,4.1,0,0,0,13.1,16a1.9,1.9,0,0,0,.8.7A4.1,4.1,0,0,0,19.6,11,2.7,2.7,0,0,0,18.8,10.3Z" style="fill:#fff"/><path d="M27.9,0H4.7A4.7,4.7,0,0,0,0,4.7V27.9a4.7,4.7,0,0,0,4.7,4.7H27.9a4.7,4.7,0,0,0,4.7-4.7V4.7A4.7,4.7,0,0,0,27.9,0ZM16.7,27.1l-.4.2-.3-.2c-.3-.4-7.2-9.6-7.2-13.6a7.6,7.6,0,0,1,15.1,0C23.9,17.5,17,26.7,16.7,27.1Z" style="fill:#fff"/></g></g></svg>