<svg xmlns="http://www.w3.org/2000/svg" viewBox="0 0 32.6 32.6"><g id="Layer_2" data-name="Layer 2"><g id="Layer_1-2" data-name="Layer 1"><path d="M30.9,1.8A6,6,0,0,0,26.5,0H6.1A5.8,5.8,0,0,0,1.8,1.8,5.8,5.8,0,0,0,0,6.1V26.5a6,6,0,0,0,1.8,4.4,6.1,6.1,0,0,0,4.3,1.7H26.5a6.4,6.4,0,0,0,4.4-1.7,6.4,6.4,0,0,0,1.7-4.4V6.1A6.1,6.1,0,0,0,30.9,1.8Zm-4.2,23a3.9,3.9,0,0,1-2,1.7,6,6,0,0,1-2.7.7h-.8l-.6-.2h-.7l-.6-.3-.7-.2-.7-.3a17.5,17.5,0,0,1-6.8-4.6,19.1,19.1,0,0,1-4.6-6.8l-.2-.6c-.2-.3-.2-.6-.3-.7l-.2-.6-.2-.7c0-.2-.1-.4-.1-.7s-.1-.5-.1-.7a7.1,7.1,0,0,1,.8-2.8,3.5,3.5,0,0,1,1.7-2A5.4,5.4,0,0,1,10,5.4h.4l.3.4a5.6,5.6,0,0,1,.5.8l.6,1,.5,1a1.5,1.5,0,0,1,.3.6l.3.4a.9.9,0,0,1,.3.5.9.9,0,0,1,.1.5,1.2,1.2,0,0,1-.4.8l-.9.8-1,.8a1.3,1.3,0,0,0-.4.7v.4l.2.3.2.4.2.3a13.8,13.8,0,0,0,2.6,3.6,20.7,20.7,0,0,0,3.7,2.7l.3.2.3.2h.7c.2,0,.5-.2.9-.7L21,20c.4-.5.7-.7,1-.7h.4l.5.3.4.3,1.2.6,1.8,1.1.9.6v.3A4.7,4.7,0,0,1,26.7,24.8Z" style="fill:#fff"/></g></g></svg>