<svg xmlns="http://www.w3.org/2000/svg" viewBox="0 0 554.1 113.7"><g id="Layer_2" data-name="Layer 2"><g id="Layer_1-2" data-name="Layer 1"><path d="M15.9,88.3c4.8,0,9.1,2.7,9.1,8.6a8.1,8.1,0,0,1-2.6,6.4c-2.1,2-5.5,2.9-10.2,2.9H0c.3,0,2.6-.4,2.6-4.6V78.1c0-4.2-2.3-4.6-2.6-4.6H13.4c3.9,0,6.5.9,8.1,2.2a6.2,6.2,0,0,1,2.3,5C23.8,86.2,18,88.3,15.9,88.3ZM12,87.9c3.1,0,5.3-2.5,5.3-7a7.3,7.3,0,0,0-1.1-4.4,4.7,4.7,0,0,0-3.9-2H9.4V87.9Zm.1,17.2a5.3,5.3,0,0,0,4.6-2.3,9.3,9.3,0,0,0,1.4-5.5c0-4.4-1.8-8.4-6.1-8.4H9.4v16.2Z" style="fill:#fff"/><path d="M22.7,106.1c.3,0,3-.7,4.8-5.1l8.7-21.8c2-4.9-1.3-5.7-1.4-5.7h8.7l9.1,26.9c1.7,5.1,4.1,5.8,4.4,5.8H45c.1,0,2.3-.6.8-5.2l-1.6-4.7H30.6L28.7,101c-1.7,4.4.6,5.1.7,5.1H22.7Zm21.1-11L37.9,77.8,31,95.1Zm-11-23.2a15.7,15.7,0,0,0,7-2.3h0a15.7,15.7,0,0,0,7,2.3h0a21.8,21.8,0,0,1-7-6.1h0a21.1,21.1,0,0,1-7.1,6.1ZM49.6,60.7h.1L52,63.8V64a23.8,23.8,0,0,1-9.1,3.3h-.1C44.8,66.4,47.9,63.1,49.6,60.7Z" style="fill:#fff"/><path d="M53.6,80.1h-.1V73.4h27v6.7h-.1c0-.5-.5-5.6-5.2-5.6H70.4v27c0,4.2,2.3,4.6,2.6,4.6H61c.2,0,2.6-.4,2.6-4.6v-27H58.8C54.1,74.5,53.6,79.6,53.6,80.1Z" style="fill:#fff"/><path d="M91.7,106.1c.3,0,2.6-.4,2.6-4.6V90H92.6V88.8h1.7V78.1c0-4.2-2.3-4.6-2.6-4.6h13.2c7.1,0,11.1,2.2,13.5,5.1s3.2,7.7,3.2,10.7a18.6,18.6,0,0,1-4.4,11.9c-2.7,2.9-6.8,5.1-12.9,5.1H91.7Zm12.2-1a9.3,9.3,0,0,0,7.2-3.5c2.5-3.2,3.6-8.2,3.6-12.6a22.7,22.7,0,0,0-1.8-9.1,9.1,9.1,0,0,0-8.4-5.4h-3.4V88.8h5V90h-5v15.1Z" style="fill:#fff"/><path d="M124.1,89.8c0-9.2,5.6-16.9,16-16.9S156,80.6,156,89.8s-5.5,17-15.9,17S124.1,99,124.1,89.8Zm16,15.9c6.1,0,9-7.1,9-15.9s-2.9-15.9-9-15.9S131,81,131,89.8,133.9,105.7,140.1,105.7Zm-7.7-34.3a16.7,16.7,0,0,0,7.6-2.7h.1a17.2,17.2,0,0,0,7.6,2.7h.1a23.2,23.2,0,0,1-7.7-6.9H140a23.2,23.2,0,0,1-7.7,6.9Zm7.7,37.3a2.5,2.5,0,1,1-2.5,2.5A2.5,2.5,0,0,1,140.1,108.7Z" style="fill:#fff"/><path d="M158.4,106.1c.2,0,2.6-.4,2.6-4.6V78.1c0-4.2-2.4-4.6-2.6-4.6h7.8l18.1,22.1V78.1c0-4.2-2.3-4.6-2.6-4.6h6.4c-.3,0-2.6.4-2.6,4.6v28.3L162.2,78.1v23.4c0,4.2,2.3,4.6,2.6,4.6h-6.4Z" style="fill:#fff"/><path d="M190.3,90.2c0-9.6,5.5-17.3,18-17.3,5,0,8.6,1.3,9.9,1.3v7.6h0a11.2,11.2,0,0,0-2.3-5.2c-1.5-1.6-3.8-2.7-7.6-2.7-8.2,0-11.1,7.1-11.1,16.3s2.9,15.5,10.3,15.5a22,22,0,0,0,3.6-.4v-13c0-4.2-2.3-4.6-2.6-4.6h12.3c-.2,0-2.6.4-2.6,4.6v12.2c-.7,0-6.3,2.3-11.1,2.3C194.6,106.8,190.3,99,190.3,90.2Z" style="fill:#fff"/><path d="M233.4,81.7c0-5.7,5-8.8,11.4-8.8,3.8,0,6.1.5,9.1.5v6.9h-.1a8,8,0,0,0-2.2-4.4c-1.3-1.1-3.3-2-6.7-2s-6.7,1.4-6.7,4.7,2.7,4.4,5.1,5.8l5.9,3.3c4.7,2.7,6.7,5.8,6.7,9.5,0,5.6-4.7,9.2-12.4,9.2l-9.3-.2V97.5h.1a8.9,8.9,0,0,0,2.1,5.4c1.3,1.4,3.5,2.4,6.7,2.4,5.5,0,7.3-2.6,7.3-5.2s-1.1-4.1-5.2-6.4L239,90.1C235.5,88.1,233.4,85.6,233.4,81.7Z" style="fill:#fff"/><path d="M254.5,106.1c.4,0,3.1-.7,4.8-5.1L268,79.2c2-4.9-1.2-5.7-1.4-5.7h8.8l9,26.9c1.8,5.1,4.1,5.8,4.5,5.8H276.8c.1,0,2.3-.6.8-5.2L276,96.2H262.4l-1.8,4.8c-1.8,4.4.5,5.1.7,5.1h-6.8Zm21.1-11-5.8-17.3-6.9,17.3Zm-4-32.1c1.6,0,3.6.6,3.6,2.5s-4.4,2.9-4.4,5.5a.3.3,0,0,1-.3-.3c0-3.2,1.5-3.3,1.5-5.3s-.5-1.2-1-1.2-2.2,1.9-2.2,4h-.2L268,64A7.3,7.3,0,0,1,271.6,63Z" style="fill:#fff"/><path d="M288.6,106.1c.2,0,2.6-.4,2.6-4.6V78.1c0-4.2-2.4-4.6-2.6-4.6h7.8l18.1,22.1V78.1c0-4.2-2.4-4.6-2.6-4.6h6.4c-.3,0-2.6.4-2.6,4.6v28.3L292.3,78.1v23.4c0,4.2,2.4,4.6,2.6,4.6h-6.3Z" style="fill:#fff"/><path d="M354,88.8V78.1c0-4.2-2.4-4.6-2.6-4.6h12c-.3,0-2.6.4-2.6,4.6v23.4c0,4.2,2.3,4.6,2.6,4.6h-12c.2,0,2.6-.4,2.6-4.6V89.9H340.6v11.6c0,4.2,2.4,4.6,2.6,4.6h-12c.3,0,2.6-.4,2.6-4.6V78.1c0-4.2-2.3-4.6-2.6-4.6h12c-.2,0-2.6.4-2.6,4.6V88.8Z" style="fill:#fff"/><path d="M386.6,73.5h12c-.2,0-2.6.4-2.6,4.6v23.4c0,4.2,2.4,4.6,2.6,4.6h-9.4v-5.3a11.2,11.2,0,0,1-10,5.7c-8.2,0-10.2-5-10.2-10.4V78.1c0-4.2-2.3-4.6-2.6-4.6h12c-.2,0-2.6.4-2.6,4.6V95.9c0,4.9,1.2,9.2,5.8,9.2s7.6-3.8,7.6-6.8V78.1C389.2,73.9,386.9,73.5,386.6,73.5Z" style="fill:#fff"/><path d="M401.6,106.1c.3,0,2.6-.4,2.6-4.6V78.1c0-4.2-2.3-4.6-2.6-4.6h7.9l18.1,22.1V78.1c0-4.2-2.4-4.6-2.6-4.6h6.4c-.3,0-2.6.4-2.6,4.6v28.3L405.4,78.1v23.4c0,4.2,2.4,4.6,2.6,4.6h-6.4Z" style="fill:#fff"/><path d="M433.5,90.2c0-9.6,5.6-17.3,18.1-17.3,4.9,0,8.6,1.3,9.9,1.3v7.6h-.1a11.1,11.1,0,0,0-2.2-5.2c-1.6-1.6-3.9-2.7-7.6-2.7-8.3,0-11.2,7.1-11.2,16.3s2.9,15.5,10.4,15.5a22,22,0,0,0,3.6-.4v-13c0-4.2-2.3-4.6-2.6-4.6h12.3c-.2,0-2.6.4-2.6,4.6v12.2c-.8,0-6.4,2.3-11.2,2.3C437.8,106.8,433.5,99,433.5,90.2Z" style="fill:#fff"/><path d="M462.8,106.1c.3,0,3-.7,4.8-5.1l8.7-21.8c2-4.9-1.3-5.7-1.4-5.7h8.7l9.1,26.9c1.7,5.1,4.1,5.8,4.4,5.8h-12c.1,0,2.3-.6.7-5.2l-1.5-4.7H470.7l-1.9,4.8c-1.8,4.4.6,5.1.7,5.1h-6.7Zm21.1-11L478,77.8l-6.9,17.3Z" style="fill:#fff"/><path d="M497.5,106.1c.2,0,2.6-.4,2.6-4.6V78.1c0-4.2-2.4-4.6-2.6-4.6h12c4.6,0,8.5.8,10.6,3a7.2,7.2,0,0,1,2,5.4c0,5.1-3.7,8.9-8.5,10.2,3.6,0,5,1,6.1,3.6l2.4,5.1c2,4.6,4.5,5.4,4.8,5.4h-6.4c-3.8,0-4.3-1.8-6.1-5.7l-1.6-3.6c-1.6-3.4-2.7-4.3-4.8-4.3h-1.1v8.9c0,4.2,2.3,4.6,2.6,4.6h-12Zm10.3-14.6c5.3,0,7.4-4.3,7.4-8.9a10.9,10.9,0,0,0-1.1-5.3c-1-1.7-2.6-2.8-5.4-2.8h-1.8v17Z" style="fill:#fff"/><path d="M532.9,106.1c.2,0,2.5-.4,2.5-4.6V93l-7.9-15c-2-3.7-4.1-4.5-4.5-4.5H535c-.1,0-2.1.7-.4,4l6.9,13.1,6.4-12.5c1.9-3.8-.3-4.6-.3-4.6h6.5c-.5,0-3.1.9-5.3,5.1l-6.6,12.8v10.1c0,4.2,2.4,4.6,2.6,4.6H532.9Z" style="fill:#fff"/><path d="M24,39.2h.1v7H.1c.3,0,2.7-.4,2.7-4.9V16.6c0-4.5-2.4-4.9-2.7-4.9H12.8c-.3,0-2.8.4-2.8,4.9V45h8.5C23.5,45,24,39.7,24,39.2Z" style="fill:#e7c57e"/><path d="M26.9,28.9c0-9.7,5.9-17.9,16.8-17.9a17.2,17.2,0,0,1,8.5,2.1,2.2,2.2,0,0,0,.9-1.7,2.1,2.1,0,0,0-1.9-2.1h0l3.6-2.5A3.7,3.7,0,0,1,56,9.6c-.1,1.8-1.7,3.1-3.1,3.9,5,3.1,7.6,8.9,7.6,15.4,0,9.7-5.8,17.9-16.8,17.9S26.9,38.6,26.9,28.9ZM43.7,45.6c6.5,0,9.6-7.4,9.6-16.7s-3.1-16.7-9.6-16.7-9.5,7.4-9.5,16.7S37.2,45.6,43.7,45.6Zm0,3.2a2.7,2.7,0,0,1,2.7,2.7,2.6,2.6,0,0,1-2.7,2.6,2.5,2.5,0,0,1-2.6-2.6A2.6,2.6,0,0,1,43.7,48.8Z" style="fill:#e7c57e"/><path d="M65.7,46.1c.2,0,2.7-.4,2.7-4.9V16.6c0-4.5-2.5-4.9-2.7-4.9H78.3c-.2,0-2.7.4-2.7,4.9V41.2c0,4.5,2.5,4.9,2.7,4.9H65.7Z" style="fill:#e7c57e"/><path d="M96.4,46.1c.2,0,2.7-.4,2.7-4.9V16.6c0-4.5-2.5-4.9-2.7-4.9H109c-.2,0-2.7.4-2.7,4.9V41.2c0,4.5,2.5,4.9,2.7,4.9H96.4Zm8.5-43.2h.1l2.4,3.3h0c-2.3,1.8-6.9,3.2-9.5,3.6l-.2-.2C99.9,8.9,103.1,5.4,104.9,2.9Z" style="fill:#e7c57e"/><path d="M112.6,29.3c0-10.1,5.8-18.3,18.6-18.3,5.2,0,9.1,1.5,10.4,1.5v7.9h-.1a11.5,11.5,0,0,0-2.3-5.4c-1.6-1.8-4.1-2.8-8-2.8-8.3,0-11.3,7.4-11.3,17.1s3,16.3,10.4,16.3c5.1,0,7.6-1.9,9.1-4.2a19.1,19.1,0,0,0,2.1-5.9h.1v8.9c-1.3,0-6.7,2.4-11.3,2.4C117.1,46.8,112.6,38.6,112.6,29.3Z" style="fill:#e7c57e"/><path d="M171.5,27.9V16.6c0-4.5-2.5-4.9-2.7-4.9h12.6c-.3,0-2.7.4-2.7,4.9V41.2c0,4.5,2.4,4.9,2.7,4.9H168.8c.2,0,2.7-.4,2.7-4.9V29H157.4V41.2c0,4.5,2.5,4.9,2.7,4.9H147.5c.2,0,2.7-.4,2.7-4.9V16.6c0-4.5-2.5-4.9-2.7-4.9h12.6c-.2,0-2.7.4-2.7,4.9V27.9Z" style="fill:#e7c57e"/><path d="M199.5,46.1c.2,0,2.7-.4,2.7-4.9V29.1h-1.8V27.8h1.8V16.6c0-4.5-2.5-4.9-2.7-4.9h13.9c7.4,0,11.7,2.3,14.2,5.3S231,25,231,28.2a19.7,19.7,0,0,1-4.7,12.6c-2.8,3.1-7.1,5.4-13.6,5.4H199.5ZM212.3,45a9.9,9.9,0,0,0,7.6-3.6c2.6-3.4,3.8-8.7,3.8-13.3a22.9,22.9,0,0,0-1.9-9.6,9.6,9.6,0,0,0-8.8-5.7h-3.6v15h5.2v1.3h-5.2V45Z" style="fill:#e7c57e"/><path d="M231.3,46.1c.4,0,3.2-.8,5.1-5.4l9.2-23c2-5.1-1.4-6-1.5-6h9.2L262.9,40c1.8,5.3,4.3,6.1,4.7,6.1H254.9s2.3-.7.8-5.5L254,35.7H239.7l-2,5c-1.9,4.6.6,5.4.7,5.4h-7.1Zm22.3-11.6-6.2-18.3-7.3,18.3ZM242,10a15.4,15.4,0,0,0,7.3-2.4h.1a15.8,15.8,0,0,0,7.3,2.4h.1a23,23,0,0,1-7.4-6.4h-.1a22,22,0,0,1-7.4,6.4Zm9.3-6.7L253.6,0h.1c1.9,2.5,5.1,6,7.2,6.8h-.1c-2.6-.3-7.3-1.8-9.5-3.5Z" style="fill:#e7c57e"/><path d="M290.2,11.7h12.7c-.3,0-2.7.4-2.7,4.9V41.2c0,4.5,2.4,4.9,2.7,4.9H293V40.5a11.8,11.8,0,0,1-10.6,6.1c-8.6,0-10.7-5.2-10.7-10.9V16.6c0-4.5-2.5-4.9-2.7-4.9h12.6c-.2,0-2.7.4-2.7,4.9V35.4c0,5,1.2,9.6,6,9.6s8.1-4,8.1-7.2V16.6C293,12.1,290.5,11.7,290.2,11.7Z" style="fill:#e7c57e"/><path d="M318.4,18.6h-.1v-7h28.4v7h-.1c0-.5-.5-5.8-5.5-5.8h-5V41.2c0,4.5,2.5,4.9,2.7,4.9H326.2c.2,0,2.7-.4,2.7-4.9V12.8h-5C318.9,12.8,318.4,18.1,318.4,18.6Z" style="fill:#e7c57e"/><path d="M351.7,35.7V16.6c0-4.5-2.4-4.9-2.7-4.9h12.7c-.3,0-2.8.4-2.8,4.9V35.4c0,5,1.3,9.6,6.1,9.6s8-4,8-7.2V16.6c0-4.5-2.5-4.9-2.7-4.9h9.9v1.9a2.6,2.6,0,0,0,.9-1.7c0-.5-.2-1.7-2-2.1h0l3.7-2.5A4.1,4.1,0,0,1,384,10c-.1,2.1-2.3,3.5-3.8,4.2v27c0,4.5,2.5,4.9,2.7,4.9H373V40.5a11.6,11.6,0,0,1-10.5,6.1C353.9,46.6,351.7,41.4,351.7,35.7Z" style="fill:#e7c57e"/></g></g></svg>